<svg width="266" height="181" viewBox="0 0 266 181" fill="none" xmlns="http://www.w3.org/2000/svg">
<path d="M56.4061 53.9254C56.2002 54.7728 56.2709 55.6404 56.6133 56.4673C56.9556 57.2941 57.5613 58.06 58.3876 58.711C59.2139 59.362 60.2408 59.8823 61.3959 60.2353C62.551 60.5882 63.8062 60.7652 65.0731 60.7538L86.3037 102.624L99.8503 96.3137L73.6994 54.3784C73.53 52.9372 72.5865 51.5881 71.0475 50.5868C69.5086 49.5855 67.4813 49.0017 65.3496 48.9458C63.218 48.89 61.1302 49.3661 59.4819 50.2838C57.8335 51.2016 56.7391 52.4973 56.4061 53.9254Z" fill="#A0616A"/>
<path d="M167.216 68.0921C157.788 75.3623 134.541 88.1746 115.389 96.9971C111.25 98.904 107.299 100.622 103.722 102.059C101.306 103.03 99.0595 103.87 97.037 104.555C95.6795 105.014 94.197 105.277 92.6824 105.329C91.1678 105.381 89.6536 105.221 88.2348 104.857C86.8159 104.494 85.523 103.937 84.4369 103.219C83.3508 102.502 82.495 101.64 81.923 100.688L68.6624 78.9441L73.2505 76.8825L84.5633 71.7965L87.1328 70.6444L97.7413 87.7692L108.928 81.6831L115.873 77.9039L147.534 60.6831L150.265 60.1337L156.635 64.3476L161.141 67.3293L165.379 67.828C166.012 67.9027 166.626 67.9907 167.216 68.0921Z" fill="#4169E2"/>
<path d="M251.803 127.836C252.46 128.402 253.141 128.964 253.821 129.53C251.477 132.793 248.841 135.957 245.928 139.003C245.712 138.899 245.495 138.795 245.279 138.691C245.245 138.678 245.212 138.664 245.18 138.648C244.374 138.259 243.563 137.875 242.756 137.485V137.483C242.091 135.948 241.719 134.361 241.651 132.762C242.067 132.698 242.443 132.548 242.73 132.333C243.016 132.118 243.198 131.849 243.25 131.562C243.303 131.275 243.225 130.984 243.025 130.728C242.825 130.472 242.515 130.264 242.135 130.132C242.029 130.007 241.954 129.916 241.848 129.788C241.851 129.756 241.859 129.722 241.863 129.69C242.481 126.359 248.745 125.196 251.803 127.836Z" fill="white"/>
<path d="M258.866 116.421C259.338 117.302 259.768 118.191 260.157 119.091C259.889 119.625 259.615 120.156 259.334 120.686C259.228 120.406 259.118 120.126 259.004 119.846C258.364 118.289 257.595 116.757 256.702 115.259C255.97 114.029 255.159 112.825 254.27 111.647C249.434 105.248 242.427 99.7184 233.824 95.5121C230.269 94.9548 227.051 93.6721 224.605 91.837C223.722 91.1776 222.984 90.4357 222.413 89.634C222.775 89.5994 223.137 89.5514 223.491 89.5007C223.601 89.4847 223.715 89.466 223.826 89.45L223.869 89.4447C224.256 89.3838 224.609 89.2485 224.885 89.0549C225.162 88.8613 225.35 88.6177 225.426 88.3534C225.503 88.0891 225.466 87.8154 225.319 87.5652C225.172 87.315 224.921 87.099 224.597 86.943C224.396 86.8443 224.192 86.7483 223.991 86.6523C223.684 86.5003 223.373 86.3563 223.062 86.2069C223.029 86.1931 222.998 86.178 222.968 86.1616C222.614 85.9909 222.26 85.8256 221.909 85.6522C222.181 85.0579 222.651 84.514 223.283 84.0627C225.482 82.5238 229.409 82.5585 231.975 83.812C234.544 85.0655 235.835 87.2604 236 89.3994C236.146 91.2316 235.563 93.0451 234.796 94.8134C234.989 94.9094 235.19 95.0001 235.382 95.0987C238.925 96.8782 242.201 98.889 245.165 101.102C243.453 98.3498 242.831 94.76 243.276 92.2877C243.783 89.4714 245.802 86.7964 247.455 84.132C249.434 80.9316 256.186 80.8889 258.091 84.1107C258.11 84.1427 258.13 84.172 258.146 84.204C257.827 84.4201 257.52 84.6441 257.225 84.8761C256.855 85.1685 256.623 85.5299 256.561 85.913C256.498 86.2961 256.608 86.683 256.875 87.0231C257.143 87.3632 257.556 87.6407 258.06 87.8191C258.564 87.9976 259.136 88.0687 259.7 88.0232L259.759 88.0178C260.005 88.9686 260.144 89.9306 260.176 90.8955C260.225 93.5953 259.451 96.2728 257.901 98.7602C256.352 101.248 254.062 103.491 251.173 105.351C250.984 105.471 250.799 105.588 250.607 105.703C252.429 107.46 254.067 109.302 255.506 111.215C256.783 112.902 257.905 114.641 258.866 116.421Z" fill="white"/>
<path d="M183.046 91.4017L181.858 146.718L85.8619 144.851L101.192 121.915C101.082 121.179 107.921 116.013 107.882 115.247C107.764 113.004 110.235 110.927 110.636 108.58C111.455 103.739 106.768 85.4596 108.928 81.6831C109.849 79.9967 111.028 78.3805 112.446 76.8612C113.674 75.6023 114.933 74.7542 116.137 74.4475L119.686 68.8415L122.834 65.6411L147.534 60.6831L150.265 60.1337L156.635 64.3476L161.141 67.3293L165.379 67.828C166.012 67.9027 166.626 67.9907 167.216 68.092C170.059 68.5363 172.708 69.426 174.952 70.6897C182.35 74.9489 183.212 82.9606 183.046 91.4017Z" fill="#4169E2"/>
<path d="M238.176 146.303C235.469 148.604 232.6 150.811 229.571 152.922L219.19 152.927L163.366 152.97L153.316 152.978L146.634 152.983L136.695 152.989L129.049 152.994L114.927 153.005L106.597 153.013L89.0549 153.023L80.6814 153.031L57.4773 153.047L42.9023 153.058L38.991 153.061C38.1214 152.458 37.2649 151.846 36.4215 151.226C34.3203 149.682 32.2991 148.089 30.3578 146.449L38.4559 146.444L43.9726 146.441L56.7454 146.431L81.3937 146.415L89.7239 146.409L93.0921 146.407H93.1039L95.7482 146.404L96.9326 146.401L99.9664 146.399H101.249L110.244 146.393L129.647 146.377L138.186 146.372L146.363 146.367L154.028 146.361L165.026 146.353L223.767 146.313L238.176 146.303Z" fill="#CCCCCC"/>
<path d="M105.363 63.244L105.342 63.2454C104.207 63.3169 103.076 63.08 102.199 62.5865C101.321 62.0931 100.769 61.3837 100.664 60.6143L98.4259 44.4257C98.0208 41.5256 98.4803 38.5999 99.7769 35.8226C102.318 30.402 107.848 25.8553 115.213 23.1299C119.017 21.7264 123.2 20.8593 127.51 20.581C145.147 19.4422 151.592 21.9317 162.486 40.1625C173.38 58.3933 164.727 56.3757 164.727 56.3757C164.781 56.7659 164.72 57.1595 164.545 57.5331C164.202 58.2619 163.457 58.8728 162.465 59.2381C161.956 59.4251 161.397 59.5409 160.821 59.5786C139.971 63.1706 118.933 66.9517 105.36 63.2442L105.363 63.244Z" fill="#2F2E41"/>
<path d="M144.17 35.9202C146.787 38.5448 148.198 41.6363 148.225 44.8041C148.251 47.9719 146.892 51.074 144.319 53.7186C141.746 56.3632 138.074 58.4317 133.768 59.6627C129.461 60.8938 124.713 61.2323 120.123 60.6354C117.084 60.247 114.19 59.4538 111.607 58.3017C109.024 57.1497 106.804 55.6616 105.075 53.9239C102.463 51.3001 101.056 48.211 101.031 45.0459C101.006 41.8809 102.364 38.7817 104.934 36.1391C107.504 33.4965 111.171 31.4288 115.473 30.1967C119.774 28.9646 124.517 28.6233 129.105 29.2158C132.146 29.6019 135.043 30.3934 137.629 31.5444C140.216 32.6954 142.439 34.1829 144.17 35.9208L144.17 35.9202Z" fill="#9E616A"/>
<path d="M91.0326 46.2242C90.7125 43.9306 91.0759 41.6167 92.1013 39.4202C92.339 34.0469 94.6392 29.18 104.308 29.3843C107.297 28.2823 110.583 27.599 113.969 27.375L118.747 27.0552C118.801 27.0516 118.855 27.0481 118.909 27.0447C122.219 26.8359 125.558 27.0711 128.734 27.7368C131.91 28.4025 134.862 29.4857 137.421 30.9247C139.98 32.3636 142.095 34.13 143.647 36.123C145.198 38.1161 146.155 40.2967 146.463 42.5405L146.508 42.8647L136.399 43.5346L132.048 37.224L132.263 43.81L127.042 44.1573L124.847 40.9735L124.955 44.2941C117.202 48.9217 105.447 49.1643 91.0819 46.5488L91.0326 46.2242Z" fill="#2F2E41"/>
<path d="M123.369 61.586C123.283 62.1194 123.42 62.6584 123.763 63.1418C123.937 63.3894 124.16 63.6193 124.427 63.8248C124.656 63.9999 124.914 64.156 125.197 64.29C126.035 64.6852 127.052 64.8652 128.068 64.7977C128.131 64.7933 128.194 64.788 128.257 64.782C128.32 64.776 128.383 64.769 128.446 64.7609C128.51 64.7533 128.573 64.7444 128.635 64.7344C128.697 64.7243 128.76 64.7135 128.823 64.7018L132.351 64.0317L136.305 56.559L137.212 63.1162L153.256 60.0887L149.409 32.2625L122.064 34.0888L122.814 34.5782C125.306 36.2221 127.08 38.3001 127.942 40.5834C128.797 42.8972 129.061 45.2933 128.722 47.6675C128.406 50.0683 127.75 52.4429 126.764 54.7587C125.905 56.8093 124.873 58.8246 123.673 60.7948C123.517 61.0476 123.415 61.3139 123.369 61.586Z" fill="#2F2E41"/>
<path d="M127.016 149.318C126.546 149.318 126.081 149.247 125.657 149.11L49.9019 150.42C49.3206 150.233 48.8365 149.931 48.5135 149.554C48.1905 149.177 48.0438 148.743 48.0929 148.308C48.1419 147.873 48.3843 147.459 48.7881 147.12C49.1919 146.78 49.738 146.532 50.3544 146.407L99.9154 136.391C100.429 136.288 100.972 136.274 101.496 136.35L178.158 142.684C178.836 142.783 179.448 143.03 179.9 143.387C180.352 143.744 180.619 144.192 180.66 144.661C180.701 145.131 180.515 145.597 180.129 145.988C179.743 146.379 179.179 146.674 178.522 146.827L128.054 149.2C127.72 149.278 127.369 149.318 127.016 149.318Z" fill="#3F3D56"/>
<path d="M129.802 145.744C129.46 145.744 129.123 145.685 128.825 145.571L67.3008 147.52C66.9514 147.387 66.6692 147.186 66.4908 146.943C66.3124 146.7 66.2461 146.426 66.3006 146.157C66.3551 145.888 66.5278 145.636 66.7963 145.435C67.0648 145.233 67.4165 145.091 67.8058 145.027L90.0788 141.363C90.4264 141.306 90.7902 141.313 91.1323 141.384L148.328 141.337C148.735 141.422 149.091 141.592 149.345 141.824C149.599 142.056 149.737 142.337 149.738 142.625C149.74 142.914 149.605 143.195 149.354 143.428C149.102 143.661 148.747 143.833 148.341 143.92L130.397 145.682C130.204 145.723 130.004 145.744 129.802 145.744Z" fill="#2F2E41"/>
<path d="M123.326 143.521C124.391 143.987 125.593 144.288 126.849 144.404C128.104 144.521 129.382 144.449 130.592 144.194C131.802 143.94 132.915 143.508 133.852 142.931C134.79 142.353 135.529 141.643 136.018 140.851L201.139 144.318L197.991 133.383L130.823 132.949C128.805 132.481 126.603 132.53 124.636 133.089C122.668 133.647 121.071 134.675 120.146 135.978C119.222 137.281 119.036 138.769 119.622 140.159C120.208 141.549 121.526 142.746 123.326 143.521Z" fill="#A0616A"/>
<path d="M161.79 72.3086C161.79 72.3086 171.627 66.9746 183.432 76.5758C191.393 83.0507 206.75 122.193 208.023 138.414C208.104 139.44 207.871 140.467 207.338 141.429C206.806 142.391 205.986 143.269 204.93 144.007C203.874 144.744 202.605 145.326 201.202 145.716C199.798 146.105 198.292 146.294 196.776 146.271L162.065 145.861L158.184 131.073L185.588 131.293L161.79 72.3086Z" fill="#4169E2"/>
<path d="M122.802 149.324C121.612 149.323 120.433 149.162 119.336 148.848L49.1202 149.934C47.2671 149.41 45.7288 148.478 44.7541 147.289C43.7793 146.099 43.4251 144.721 43.7486 143.378L41.1396 101.583C41.4856 100.09 42.6449 98.7395 44.3886 97.7977C46.1323 96.8559 48.3336 96.3915 50.5578 96.4961L115.745 98.3286C116.996 98.3842 118.216 98.6175 119.326 99.0132C120.436 99.409 121.41 99.9585 122.187 100.626C122.963 101.293 123.523 102.064 123.832 102.888C124.14 103.712 124.19 104.57 123.978 105.408L131.615 144.284C131.256 145.693 130.175 146.971 128.563 147.892C126.951 148.814 124.911 149.321 122.802 149.324Z" fill="#3F3D56"/>
<path d="M69.4848 24.8919L40.1815 24.8359C39.396 24.8352 38.6422 25.0457 38.0853 25.4212C37.5284 25.7966 37.2139 26.3064 37.2106 26.8388L37.1044 53.1381C37.1027 53.67 37.4126 54.1805 37.966 54.5575C38.5193 54.9346 39.2709 55.1474 40.0556 55.1491L56.3107 55.1811L69.3628 55.2051C70.148 55.206 70.9017 54.9956 71.4581 54.62C72.0145 54.2444 72.328 53.7344 72.3297 53.2021L72.3376 51.6473L72.4399 26.9055C72.4415 26.373 72.1311 25.8618 71.577 25.4842C71.023 25.1067 70.2704 24.8936 69.4848 24.8919Z" fill="#E6E6E6"/>
<path d="M67.4189 26.4628L42.2355 26.4148C41.5001 26.4141 40.7944 26.6111 40.2729 26.9626C39.7514 27.314 39.4568 27.7912 39.4535 28.2897L39.3827 45.1985C39.3778 47.419 40.6725 49.5503 42.9829 51.1247C45.2932 52.6991 48.4306 53.5882 51.7068 53.5969L56.4917 53.6049L67.3088 53.6262C68.0444 53.6273 68.7505 53.4304 69.2721 53.0789C69.7937 52.7274 70.0882 52.2499 70.0908 51.7513L70.0986 50.0497L70.1852 28.3483C70.1868 27.8498 69.8964 27.3711 69.3777 27.0176C68.859 26.6641 68.1545 26.4645 67.4189 26.4628Z" fill="white"/>
<path d="M64.5897 38.0162H44.9545C44.7997 38.0162 44.6465 38.0369 44.5035 38.077C44.3605 38.1172 44.2306 38.176 44.1212 38.2502C44.0117 38.3243 43.9249 38.4124 43.8657 38.5093C43.8065 38.6062 43.776 38.7101 43.776 38.815C43.776 38.9199 43.8065 39.0238 43.8657 39.1207C43.9249 39.2176 44.0117 39.3056 44.1212 39.3798C44.2306 39.454 44.3605 39.5128 44.5035 39.553C44.6465 39.5931 44.7997 39.6138 44.9545 39.6138H64.5897C64.9023 39.6138 65.202 39.5296 65.423 39.3798C65.6441 39.23 65.7682 39.0268 65.7682 38.815C65.7682 38.6031 65.6441 38.4 65.423 38.2502C65.202 38.1004 64.9023 38.0162 64.5897 38.0162Z" fill="#4169E2"/>
<path d="M49.2711 33.637H44.9545C44.6419 33.637 44.3422 33.7212 44.1212 33.871C43.9002 34.0208 43.776 34.2239 43.776 34.4358C43.776 34.6476 43.9002 34.8508 44.1212 35.0006C44.3422 35.1504 44.6419 35.2346 44.9545 35.2346H49.2711C49.5837 35.2346 49.8834 35.1504 50.1044 35.0006C50.3255 34.8508 50.4496 34.6476 50.4496 34.4358C50.4496 34.2239 50.3255 34.0208 50.1044 33.871C49.8834 33.7212 49.5837 33.637 49.2711 33.637Z" fill="#4169E2"/>
<path d="M64.5897 45.0385H44.9545C44.6419 45.0385 44.3422 45.1226 44.1212 45.2724C43.9002 45.4222 43.776 45.6254 43.776 45.8372C43.776 46.0491 43.9002 46.2522 44.1212 46.402C44.3422 46.5518 44.6419 46.636 44.9545 46.636H64.5897C64.9023 46.636 65.202 46.5518 65.423 46.402C65.6441 46.2522 65.7682 46.0491 65.7682 45.8372C65.7682 45.6254 65.6441 45.4222 65.423 45.2724C65.202 45.1226 64.9023 45.0385 64.5897 45.0385Z" fill="#4169E2"/>
<path d="M64.5898 41.5287H44.9545C44.6425 41.5287 44.3433 41.6127 44.1226 41.7622C43.902 41.9118 43.778 42.1146 43.778 42.3261C43.778 42.5376 43.902 42.7404 44.1226 42.89C44.3433 43.0395 44.6425 43.1235 44.9545 43.1235H64.5898C64.9018 43.1235 65.2011 43.0395 65.4217 42.89C65.6423 42.7404 65.7663 42.5376 65.7663 42.3261C65.7663 42.1146 65.6423 41.9118 65.4217 41.7622C65.2011 41.6127 64.9018 41.5287 64.5898 41.5287Z" fill="#4169E2"/>
<path d="M60.7743 36.4615C59.3955 36.4615 58.0477 36.1844 56.9013 35.6652C55.7549 35.146 54.8613 34.4081 54.3337 33.5447C53.8061 32.6813 53.668 31.7313 53.937 30.8147C54.206 29.8982 54.8699 29.0563 55.8449 28.3955C56.8198 27.7347 58.062 27.2846 59.4143 27.1023C60.7666 26.92 62.1682 27.0136 63.4421 27.3712C64.7159 27.7288 65.8047 28.3344 66.5707 29.1115C67.3367 29.8885 67.7455 30.802 67.7455 31.7365C67.7434 32.9892 67.0083 34.1902 65.7014 35.076C64.3945 35.9618 62.6225 36.4601 60.7743 36.4615ZM60.7743 27.3399C59.4913 27.3399 58.2372 27.5977 57.1704 28.0808C56.1037 28.564 55.2722 29.2506 54.7813 30.054C54.2903 30.8574 54.1618 31.7414 54.4121 32.5942C54.6624 33.4471 55.2802 34.2305 56.1874 34.8454C57.0946 35.4603 58.2504 35.879 59.5087 36.0487C60.7671 36.2183 62.0713 36.1312 63.2566 35.7985C64.442 35.4657 65.4551 34.9022 66.1678 34.1791C66.8806 33.4561 67.2611 32.6061 67.2611 31.7365C67.2591 30.5709 66.5751 29.4533 65.359 28.6291C64.1429 27.8049 62.4941 27.3412 60.7743 27.3399Z" fill="#4169E2"/>
<path d="M63.702 33.5667C63.2205 31.8817 62.2176 30.285 60.7594 28.8818C60.7265 28.8454 60.6804 28.8153 60.6255 28.7945C60.5706 28.7736 60.5087 28.7627 60.4457 28.7627C60.3827 28.7627 60.3209 28.7736 60.2659 28.7945C60.211 28.8153 60.1649 28.8454 60.132 28.8818C58.862 30.3873 58.0503 32.0501 57.7447 33.7719C57.6882 34.0858 58.4154 34.0831 58.4714 33.7719C58.5735 33.2139 58.7327 32.6614 58.9478 32.1184C58.9756 32.1146 59.0028 32.109 59.0289 32.1015C59.9952 31.7727 61.0868 31.6522 62.1571 31.7563C62.1664 31.7572 62.1754 31.7558 62.1847 31.7564C62.5382 32.3865 62.8113 33.0359 63.0013 33.6976C63.0899 34.0085 63.7905 33.8769 63.702 33.5667ZM59.2093 31.5143C59.5429 30.813 59.9675 30.1331 60.4782 29.4826C61.0188 30.0424 61.4882 30.6323 61.8814 31.246C60.9723 31.1996 60.0595 31.2913 59.2093 31.5143Z" fill="#4169E2"/>
</svg>
