<svg width="266" height="169" viewBox="0 0 266 169" fill="none" xmlns="http://www.w3.org/2000/svg">
<path d="M47.1425 130.185C46.7663 129.588 45.1385 130.227 44.8393 129.686C44.5411 129.146 46.0535 128.325 46.9175 126.448C47.0733 126.109 48.0552 123.976 47.3283 123.318C45.9505 122.07 39.6455 127.219 37.4391 125.534C36.9548 125.164 36.6165 124.426 35.151 123.228C34.5679 122.751 34.2154 122.536 33.8742 122.616C33.3901 122.729 33.3517 123.338 32.8326 124.536C32.054 126.332 31.5935 126.223 31.1399 127.656C30.8032 128.72 30.8801 129.338 30.4838 129.459C29.9231 129.629 29.407 128.501 28.6963 128.602C27.9712 128.705 27.5328 130.019 27.3943 131.002C27.1344 132.848 27.8555 134.066 28.2552 135.346C28.6895 136.738 28.9473 138.854 27.9443 141.851L18.0165 168.143C20.2082 162.748 26.5544 147.958 29.2211 142.463C29.9909 140.876 30.8409 139.267 32.5861 138.632C34.2664 138.02 36.5741 138.385 39.5161 137.719C39.8597 137.641 40.8132 137.413 40.9332 136.886C41.0324 136.45 40.4716 136.207 40.5578 135.799C40.6733 135.251 41.7762 135.245 43.1315 134.613C44.0872 134.168 44.6826 133.638 45.1946 133.182C45.3489 133.045 47.6434 130.978 47.1425 130.185Z" fill="#FFB266"/>
<path d="M8.08358 144.026C7.66362 144.027 7.52739 144.962 7.15844 144.944C6.79082 144.926 6.79815 143.992 6.06736 143.051C5.93557 142.882 5.10507 141.813 4.55164 141.959C3.50265 142.234 4.37182 146.629 2.85542 147.16C2.52264 147.277 2.03959 147.22 0.990963 147.551C0.573791 147.682 0.359674 147.783 0.303041 147.963C0.222691 148.219 0.529632 148.413 1.00513 148.998C1.71824 149.875 1.52875 150.056 2.14604 150.679C2.60428 151.141 2.94938 151.284 2.89795 151.502C2.82519 151.809 2.08716 151.722 1.93487 152.079C1.77948 152.443 2.33889 153.025 2.81249 153.372C3.70124 154.025 4.54522 154.043 5.32923 154.228C6.18124 154.43 7.36076 154.921 8.63583 156.249L19.5 168.415C17.3153 165.847 11.424 158.652 9.32375 155.836C8.71745 155.023 8.12243 154.167 8.29438 153.178C8.4599 152.227 9.31637 151.268 9.81737 149.718C9.8759 149.537 10.0319 149.031 9.79132 148.824C9.59239 148.652 9.30355 148.841 9.11528 148.684C8.86275 148.472 9.17746 147.961 9.23867 147.154C9.28184 146.585 9.17704 146.157 9.08691 145.789C9.05974 145.679 8.64261 144.024 8.08358 144.026Z" fill="#FFB266"/>
<path d="M16.4616 145.794L16.2086 143.671L16.3242 143.51C16.8592 142.765 17.1318 142.039 17.1351 141.349C17.1356 141.239 17.1302 141.129 17.1247 141.018C17.1029 140.575 17.0756 140.024 17.381 139.383C17.5522 139.025 18.0332 138.196 18.7563 138.299C18.9509 138.325 19.0982 138.409 19.2099 138.507C19.2263 138.482 19.2432 138.458 19.2612 138.431C19.4864 138.108 19.6647 137.97 19.8365 137.837C19.9684 137.734 20.1048 137.629 20.3185 137.378C20.4123 137.269 20.4854 137.172 20.547 137.091C20.7341 136.846 20.9783 136.554 21.4091 136.559C21.8694 136.58 22.1104 136.938 22.2701 137.174C22.5553 137.597 22.6846 137.901 22.7702 138.103C22.8013 138.177 22.8367 138.26 22.8547 138.286C23.003 138.491 24.2087 138.299 24.6629 138.229C25.6832 138.069 26.566 137.931 26.9297 138.536C27.1904 138.968 26.9968 139.54 26.337 140.282C26.1314 140.512 25.9127 140.687 25.7186 140.825C25.8795 140.915 26.0234 141.053 26.0818 141.271C26.2192 141.785 25.7486 142.301 24.6836 142.805C24.4192 142.931 24.0631 143.1 23.5641 143.181C23.3291 143.218 23.1175 143.228 22.9365 143.233C22.9327 143.331 22.9082 143.438 22.8444 143.548C22.6573 143.87 22.268 144.024 21.6812 143.987C21.0356 143.956 20.5039 143.84 20.035 143.738C19.6255 143.65 19.2727 143.575 18.9956 143.593C18.482 143.632 18.0861 144.018 17.6215 144.519L16.4616 145.794Z" fill="#FFB266"/>
<path d="M17.6353 133.153L15.5148 133.922L15.3198 133.857C14.4182 133.56 13.6011 133.496 12.8903 133.668C12.7773 133.696 12.6658 133.728 12.5522 133.762C12.102 133.894 11.5425 134.058 10.8046 133.943C10.393 133.878 9.41864 133.651 9.34073 132.968C9.31773 132.784 9.36688 132.629 9.4398 132.503C9.41033 132.494 9.38072 132.485 9.34873 132.475C8.95931 132.352 8.77167 132.225 8.59095 132.103C8.45198 132.009 8.30875 131.912 7.99713 131.781C7.86046 131.723 7.74276 131.681 7.64379 131.646C7.34422 131.538 6.9816 131.39 6.87762 130.997C6.78198 130.573 7.08902 130.264 7.29218 130.058C7.65447 129.692 7.935 129.497 8.1211 129.368C8.18917 129.321 8.26563 129.268 8.28745 129.245C8.46081 129.058 7.95773 128.01 7.77078 127.615C7.34742 126.728 6.98108 125.961 7.51123 125.476C7.8903 125.13 8.52805 125.161 9.45813 125.573C9.74764 125.701 9.98349 125.855 10.1741 125.997C10.2261 125.828 10.332 125.662 10.5409 125.554C11.0356 125.298 11.6856 125.595 12.4748 126.436C12.6716 126.644 12.9349 126.925 13.1448 127.358C13.2435 127.562 13.3066 127.752 13.3578 127.916C13.4601 127.894 13.576 127.889 13.7051 127.92C14.0848 128.008 14.3418 128.323 14.4526 128.866C14.5837 129.461 14.5994 129.973 14.6139 130.426C14.627 130.82 14.6395 131.16 14.7277 131.408C14.8981 131.865 15.3962 132.127 16.0299 132.422L17.6353 133.153Z" fill="#FFB266"/>
<path d="M16.4616 126.899L16.2086 124.776L16.3242 124.615C16.8592 123.871 17.1318 123.144 17.1351 122.454C17.1356 122.344 17.1302 122.235 17.1247 122.123C17.1029 121.68 17.0756 121.129 17.381 120.488C17.5522 120.13 18.0332 119.302 18.7563 119.404C18.9509 119.43 19.0982 119.514 19.2099 119.612C19.2263 119.588 19.2432 119.563 19.2612 119.536C19.4864 119.214 19.6647 119.075 19.8365 118.942C19.9684 118.839 20.1048 118.734 20.3185 118.484C20.4123 118.374 20.4854 118.278 20.547 118.197C20.7341 117.952 20.9783 117.659 21.4091 117.665C21.8694 117.685 22.1104 118.043 22.2701 118.28C22.5553 118.702 22.6846 119.006 22.7702 119.208C22.8013 119.282 22.8367 119.365 22.8547 119.391C23.003 119.596 24.2087 119.404 24.6629 119.334C25.6832 119.175 26.566 119.036 26.9297 119.641C27.1904 120.074 26.9968 120.646 26.337 121.387C26.1314 121.617 25.9127 121.793 25.7186 121.93C25.8795 122.02 26.0234 122.159 26.0818 122.376C26.2192 122.891 25.7486 123.406 24.6836 123.911C24.4192 124.037 24.0631 124.205 23.5641 124.286C23.3291 124.324 23.1175 124.333 22.9365 124.338C22.9327 124.436 22.9082 124.543 22.8444 124.653C22.6573 124.976 22.268 125.129 21.6812 125.093C21.0356 125.061 20.5039 124.945 20.035 124.843C19.6255 124.755 19.2727 124.68 18.9956 124.698C18.482 124.737 18.0861 125.123 17.6215 125.625L16.4616 126.899Z" fill="#FFB266"/>
<path d="M18.7726 168.108L18.2993 167.829L17.7474 167.889C17.7387 167.841 17.7087 167.73 17.6635 167.557C17.4165 166.607 16.6634 163.719 16.0352 159.169C15.5968 155.993 15.3487 152.728 15.2974 149.463C15.2462 146.193 15.4108 143.718 15.5428 141.728C15.6426 140.227 15.7637 138.798 15.8825 137.406C16.1988 133.687 16.4971 130.174 16.2751 126.285C16.2261 125.416 16.123 123.609 14.9997 121.686C14.348 120.571 13.4505 119.581 12.3315 118.744L13.0273 117.922C14.2624 118.847 15.2554 119.943 15.979 121.182C17.2245 123.314 17.3368 125.283 17.3908 126.229C17.6166 130.187 17.315 133.734 16.9955 137.489C16.8777 138.876 16.7566 140.299 16.6574 141.794C16.5265 143.765 16.3635 146.219 16.4142 149.447C16.4644 152.673 16.7097 155.898 17.1422 159.034C17.7627 163.526 18.5049 166.372 18.7486 167.306C18.8784 167.806 18.9057 167.91 18.7726 168.108Z" fill="#FFB266"/>
<path d="M10.2834 120.412C10.2376 120.412 10.1913 120.411 10.1444 120.408C9.19338 120.36 8.31273 119.824 7.52641 118.818C7.15779 118.344 6.96912 117.804 6.59286 116.727C6.53451 116.561 6.25095 115.718 6.07864 114.559C5.96575 113.801 5.97994 113.484 6.13971 113.204C6.31693 112.893 6.60376 112.675 6.92658 112.529C6.91241 112.428 6.92385 112.325 6.97021 112.219C7.16051 111.781 7.66655 111.839 7.94029 111.867C8.07879 111.883 8.25165 111.905 8.43815 111.895C8.73152 111.882 8.88912 111.8 9.12795 111.677C9.35643 111.559 9.64053 111.412 10.062 111.331C10.8931 111.168 11.5894 111.39 11.819 111.463C13.0268 111.841 13.6223 112.724 14.3115 113.746C14.449 113.951 14.9206 114.697 15.232 115.72C15.4567 116.458 15.425 116.786 15.3574 117.03C15.22 117.531 14.8956 117.818 14.0716 118.452C13.2111 119.115 12.7793 119.447 12.4085 119.649C11.5453 120.118 11.0032 120.412 10.2834 120.412Z" fill="#FFB266"/>
<path d="M259.831 167.631C259.831 167.825 259.664 167.983 259.457 167.983H0V167.279H259.457C259.664 167.279 259.831 167.436 259.831 167.631Z" fill="#E6E6E6"/>
<path d="M184.93 56.4015C184.93 56.4015 170.963 57.9803 173.319 47.601C175.675 37.2216 189.032 18.0503 189.032 18.0503L196.612 22.0459L187.91 41.3809L191.656 44.1589L184.93 56.4015Z" fill="#A0616A"/>
<path d="M230.697 43.7654L228.729 58.9795L179.415 58.7525L189.319 42.5729L230.697 43.7654Z" fill="#4169E2"/>
<path d="M201.391 18.8587C204.409 14.897 204.651 10.2018 201.932 8.37167C199.213 6.54154 194.562 8.26953 191.544 12.2312C188.526 16.1929 188.284 20.8882 191.003 22.7183C193.722 24.5484 198.373 22.8204 201.391 18.8587Z" fill="#A0616A"/>
<path d="M225.955 101.77V167.797H228.983V101.77H225.955Z" fill="#3F3D56"/>
<path d="M211.422 101.77V167.797H214.45V101.77H211.422Z" fill="#3F3D56"/>
<path d="M129.974 60.2181V167.797H133.002V60.2181H129.974Z" fill="#E6E6E6"/>
<path d="M178.722 101.77V167.797H181.749V101.77H178.722Z" fill="#3F3D56"/>
<path d="M167.135 101.77V167.797H170.163V101.77H167.135Z" fill="#3F3D56"/>
<path d="M223.231 100.347H164.76L153.544 115.301L211.725 118.561L223.231 100.347Z" fill="#3F3D56"/>
<path d="M116.166 49.1824L116.431 38.3375L81.1425 40.8889L80.962 48.2376L116.166 49.1824Z" fill="#A0616A"/>
<path d="M92.2825 39.5932L90.5947 43.4099L88.1707 43.4827C88.1707 43.4827 91.0088 44.2996 91.7972 49.1471L89.4682 49.8033C89.4682 49.8033 87.2316 51.7647 83.0505 51.5745L71.8401 50.693L71.797 47.0196L79.545 46.178C79.545 46.178 81.2714 45.1104 72.7251 40.7212C72.7251 40.7212 69.8939 39.0939 72.4402 31.0581C72.7901 29.9537 73.8473 29.1604 75.073 29.1355C75.7494 29.1217 76.3833 29.3501 76.6364 30.1399C77.2804 32.1502 76.6287 34.1543 78.3988 35.4092C80.1689 36.6641 92.2825 39.5932 92.2825 39.5932Z" fill="#2F2E41"/>
<path d="M218.855 90.6435C218.855 90.6435 206.679 110.109 179.127 106.601C172.571 105.766 166.802 102.102 163.516 96.7044C157.164 86.2715 147.519 68.0041 150.646 57.6603L104.048 49.3008L100.376 38.6636L150.807 32.5059C155.268 31.9613 159.637 34.0003 161.873 37.6694L186.439 77.9952L193.762 78.7468L218.855 90.6435Z" fill="#2F2E41"/>
<path d="M117.086 53.622L116.422 42.7921L81.4662 48.0038L81.9153 55.3423L117.086 53.622Z" fill="#A0616A"/>
<path d="M92.4591 45.8699L91.1035 49.8019L88.6936 50.0577C88.6936 50.0577 91.5924 50.6573 92.7932 55.4295L90.5279 56.2597C90.5279 56.2597 88.4664 58.3839 84.2825 58.5105L73.0331 58.4796L72.6757 54.8214L80.3266 53.3966C80.3266 53.3966 81.956 52.2019 73.0617 48.4732C73.0617 48.4732 70.1004 47.0652 71.9506 38.863C72.2049 37.7356 73.1907 36.865 74.4103 36.7475C75.0834 36.6826 75.7348 36.8623 76.0546 37.6304C76.8687 39.5855 76.3906 41.6324 78.2623 42.7494C80.1341 43.8663 92.4591 45.8699 92.4591 45.8699Z" fill="#2F2E41"/>
<path d="M222.99 87.1832C222.99 87.1832 212.52 107.506 184.757 106.093C178.151 105.757 172.087 102.541 168.35 97.4092C161.126 87.4906 149.948 70.0117 152.179 59.4649L105.017 54.6563L100.447 44.3313L150.187 34.3799C154.587 33.4997 159.117 35.2016 161.659 38.6899L189.597 77.0272L196.961 77.2226L222.99 87.1832Z" fill="#2F2E41"/>
<path d="M191.074 1.36407L188.651 3.07167L201.368 19.5784L203.791 19.0092L191.074 1.36407Z" fill="#3F3D56"/>
<path d="M224.139 38.0193L238.067 37.4501L244.122 63.0641C244.122 63.0641 231.406 108.031 216.267 106.323C216.267 106.323 206.88 99.7774 206.88 97.5006C206.88 95.2238 194.164 89.5318 194.164 89.5318L191.136 79.8554L200.219 66.7639C200.219 66.7639 203.853 56.5183 215.964 50.8263L224.139 38.0193Z" fill="#4169E2"/>
<path d="M144.507 57.9413H20.6702V60.7873H81.2263V167.797H84.2541V60.7873H144.507V57.9413Z" fill="#E6E6E6"/>
<path d="M231.405 35.7425C240.435 35.7425 247.756 28.8619 247.756 20.3742C247.756 11.8865 240.435 5.00581 231.405 5.00581C222.376 5.00581 215.055 11.8865 215.055 20.3742C215.055 28.8619 222.376 35.7425 231.405 35.7425Z" fill="#A0616A"/>
<path d="M174.397 40.0115L162.977 44.2805L185.383 72.1713L193.255 66.4793L174.397 40.0115Z" fill="#E6E6E6"/>
<path d="M218.992 93.5162C218.992 93.5162 214.753 106.124 205.669 99.82C196.586 93.5162 183.528 74.1634 183.528 74.1634L190.53 69.3253L205.669 84.7608L209.908 82.7014L218.992 93.5162Z" fill="#A0616A"/>
<path d="M225.653 49.1187L239.581 57.0875L218.992 99.2082L205.669 82.1322L225.653 49.1187Z" fill="#4169E2"/>
<path d="M188.865 74.4044C191.761 72.8326 192.008 68.1377 189.416 63.9179C186.824 59.6981 182.375 57.5515 179.479 59.1233C176.582 60.6951 176.336 65.3901 178.927 69.6099C181.519 73.8296 185.969 75.9762 188.865 74.4044Z" fill="#A0616A"/>
<path d="M233.194 66.905C237.39 53.9745 241.893 49.8825 246.627 52.4445C250.231 54.3945 251.316 58.8333 249.204 62.2001C243.821 70.782 232.728 90.4449 235.039 103.477C235.039 103.477 238.672 121.692 209.605 121.692C180.538 121.692 152.683 115.43 152.683 115.43L167.822 113.154L202.25 115.465C210.116 115.993 216.745 109.667 215.694 102.321C215.659 102.078 215.618 101.833 215.57 101.585C213.844 92.6624 233.194 66.905 233.194 66.905Z" fill="#3F3D56"/>
<path d="M225.278 14.0033C223.942 17.5186 226.877 21.1687 230.839 20.9204L230.933 20.9145C233.597 24.044 233.671 28.471 231.112 31.6773C230.902 35.8097 231.591 39.9391 233.136 43.8128L237.478 54.6967L244.163 51.7644L247.336 59.7233L266 50.6856L254.688 26.7624L251.236 13.7834C248.78 4.54939 238.759 -1.0087 228.972 1.43483L221.464 3.30954C215.532 4.79063 212.117 10.6284 213.966 16.1298L225.278 14.0033Z" fill="#2F2E41"/>
</svg>
