<svg viewBox="0 0 32 32" xmlns="http://www.w3.org/2000/svg"><g id="Layer_7" data-name="Layer 7"><path d="m11 28h-7v-24h10v4a2 2 0 0 0 2 2h4v5a1 1 0 0 0 2 0v-6a1 1 0 0 0 -.29-.71l-6-6a1 1 0 0 0 -.71-.29h-11a2 2 0 0 0 -2 2v24a2 2 0 0 0 2 2h7a1 1 0 0 0 0-2zm5-22.59 2.59 2.59h-2.59z"/><path d="m7 14h5a1 1 0 0 0 0-2h-5a1 1 0 0 0 0 2z"/><path d="m18 17a1 1 0 0 0 -1-1h-10a1 1 0 0 0 0 2h10a1 1 0 0 0 1-1z"/><path d="m7 20a1 1 0 0 0 0 2h8a1 1 0 0 0 0-2z"/><path d="m27 14h-.17a3 3 0 0 0 -2.12.88l-9.22 9.22a1.93 1.93 0 0 0 -.49.9l-1 3.76a1 1 0 0 0 .26.95 1 1 0 0 0 1 .26l3.74-.97a1.93 1.93 0 0 0 .93-.53l9.22-9.22a3 3 0 0 0 .85-2.08v-.17a3 3 0 0 0 -3-3zm-6.5 11.09-1.59-1.59 5.59-5.59 1.59 1.59zm-2 2-2.12.53.53-2.12.6-.6 1.59 1.59zm9.5-9.92a1 1 0 0 1 -.29.71l-.21.21-1.59-1.59.21-.21a1 1 0 0 1 .71-.29h.17a1 1 0 0 1 1 1z"/></g></svg>