<?xml version="1.0" encoding="UTF-8"?>
<svg version="1.1" xmlns="http://www.w3.org/2000/svg" width="512" height="512">
<path d="M0 0 C168.96 0 337.92 0 512 0 C512 168.96 512 337.92 512 512 C343.04 512 174.08 512 0 512 C0 343.04 0 174.08 0 0 Z " fill="#ED2424" transform="translate(0,0)"/>
<path d="M0 0 C8.61329716 7.25568465 13.48299201 15.61394911 14.50390625 26.90234375 C14.95870204 41.91060492 10.39664266 53.83770955 0.23046875 64.87890625 C-9.51250772 74.60644218 -21.44907369 79.80610759 -34.046875 84.80078125 C-35.02301506 85.18800606 -35.02301506 85.18800606 -36.01887512 85.58305359 C-39.29144873 86.87660338 -42.56939604 88.15301249 -45.85864258 89.40356445 C-63.56172855 96.21099716 -72.71692237 102.16316671 -80.76953125 119.87890625 C-114.75953125 119.87890625 -148.74953125 119.87890625 -183.76953125 119.87890625 C-180.49860966 134.05289979 -177.51017098 143.45584154 -165.76953125 151.87890625 C-156.27221488 157.64094651 -145.9098483 158.25647532 -135.01953125 156.19140625 C-126.61023293 153.93639888 -119.64241205 150.23761476 -114.76953125 142.87890625 C-114.093958 141.55006352 -113.4261569 140.21721301 -112.76953125 138.87890625 C-108.01920884 138.68064253 -103.27130693 138.53576524 -98.51782227 138.43945312 C-96.90248667 138.39930045 -95.28744047 138.34476148 -93.6730957 138.27539062 C-80.20048784 137.71109291 -80.20048784 137.71109291 -76.68383789 140.58105469 C-75.38671875 142.70703125 -75.38671875 142.70703125 -74.56591797 144.82910156 C-72.62424434 149.82673852 -67.24548283 152.90832309 -62.64453125 155.25390625 C-52.68222755 158.87517308 -38.90824897 158.66532681 -29.08203125 154.81640625 C-27.27833404 153.89918522 -25.50421531 152.92077442 -23.76953125 151.87890625 C-22.90328125 151.37101563 -22.03703125 150.863125 -21.14453125 150.33984375 C-3.45948343 138.96318189 7.16242167 117.37416755 11.828125 97.30859375 C13.07959923 90.4307438 13.64328636 83.92509499 14.23046875 76.87890625 C24.46046875 76.87890625 34.69046875 76.87890625 45.23046875 76.87890625 C45.23046875 83.56510008 44.73428715 88.69263943 43.29296875 95.06640625 C43.07987061 96.01241699 42.86677246 96.95842773 42.6472168 97.93310547 C39.9391135 109.12684614 35.45347439 119.83220759 30.10473633 130.02392578 C29.09188339 131.82220712 29.09188339 131.82220712 29.25390625 133.76953125 C30.7573637 137.01699933 33.29396661 139.20588448 35.85546875 141.62890625 C36.95763757 142.69855792 38.05790559 143.7701717 39.15625 144.84375 C39.68814941 145.36308105 40.22004883 145.88241211 40.76806641 146.41748047 C43.20609167 148.85387767 45.42326967 151.46367246 47.65625 154.0859375 C49.81626898 156.546108 52.14977149 158.80855549 54.484375 161.1015625 C56.90871517 163.56929131 59.13284113 166.1937123 61.38671875 168.81640625 C64.03737684 171.7815492 66.87216553 174.54476404 69.7265625 177.3125 C71.23046875 178.87890625 71.23046875 178.87890625 71.23046875 179.87890625 C65.23497691 180.07731876 59.24141223 180.22213728 53.2434082 180.31835938 C51.20530902 180.3584839 49.16743861 180.4129997 47.13012695 180.48242188 C44.19294787 180.57996921 41.25882094 180.62493996 38.3203125 180.66015625 C36.96364723 180.72209167 36.96364723 180.72209167 35.57957458 180.78527832 C31.68866267 180.78801097 29.22356981 180.69996859 26.15675354 178.16442871 C24.37940305 176.14135291 22.80198051 174.06370989 21.23046875 171.87890625 C20.216098 170.72955178 19.18868951 169.59137181 18.140625 168.47265625 C17.66689453 167.95703125 17.19316406 167.44140625 16.70507812 166.91015625 C16.00608398 166.1521875 16.00608398 166.1521875 15.29296875 165.37890625 C14.55336914 164.57453125 14.55336914 164.57453125 13.79882812 163.75390625 C12.61023136 162.46145151 11.42048052 161.17005826 10.23046875 159.87890625 C6.66798311 161.45944565 3.89674254 163.6458856 0.85546875 166.06640625 C-14.4105577 177.85246607 -31.4791849 183.24744527 -50.64453125 183.19140625 C-52.28615234 183.21557617 -52.28615234 183.21557617 -53.9609375 183.24023438 C-64.84937502 183.24667724 -74.50279675 181.06923939 -84.14453125 176.00390625 C-84.80324219 175.67777344 -85.46195313 175.35164062 -86.140625 175.015625 C-90.53024637 172.77281647 -94.08525196 170.15255379 -97.76953125 166.87890625 C-100.29101657 168.36213291 -102.75916946 169.87179621 -105.171875 171.52734375 C-122.26444206 183.16819836 -141.4037176 184.73710801 -161.51953125 182.453125 C-178.17702953 178.76403231 -193.44843721 168.07685962 -202.76953125 153.87890625 C-214.03942337 134.12029459 -218.78077731 111.02051669 -212.74462891 88.68676758 C-207.075684 70.10156688 -196.11974603 54.91824226 -178.98046875 45.31640625 C-176.28077828 44.0093515 -173.58717515 42.90533367 -170.76953125 41.87890625 C-169.9290625 41.56050781 -169.08859375 41.24210937 -168.22265625 40.9140625 C-151.67653845 35.72546776 -132.10467578 37.67590496 -116.64453125 45.00390625 C-110.06606769 48.44907735 -104.9273986 52.57261107 -99.76953125 57.87890625 C-99.1353125 58.4925 -98.50109375 59.10609375 -97.84765625 59.73828125 C-92.24380102 65.54050303 -89.11529324 72.63822985 -85.76953125 79.87890625 C-81.27365231 78.95203073 -77.35625432 76.88978191 -73.23046875 74.9375 C-70.76953125 73.87890625 -70.76953125 73.87890625 -68.76953125 73.87890625 C-69.62224609 72.59886719 -69.62224609 72.59886719 -70.4921875 71.29296875 C-70.85844238 70.74286133 -71.22469727 70.19275391 -71.60205078 69.62597656 C-72.71276004 67.96386124 -73.8327008 66.30792584 -74.953125 64.65234375 C-83.51818718 51.82725064 -89.15573224 39.67378796 -87.76953125 23.87890625 C-85.08185212 12.31420691 -78.62972582 4.25994989 -68.76953125 -2.12109375 C-48.40214592 -13.71918817 -19.4455493 -13.9585881 0 0 Z " fill="#FEFCFC" transform="translate(327.76953125,121.12109375)"/>
<path d="M0 0 C1.65322266 0.01740234 1.65322266 0.01740234 3.33984375 0.03515625 C4.44457031 0.04417969 5.54929687 0.05320312 6.6875 0.0625 C7.54214844 0.07410156 8.39679688 0.08570313 9.27734375 0.09765625 C6.49644437 3.80335121 3.59020315 6.65845664 -0.03515625 9.53515625 C-3.34731851 12.18311485 -6.6121266 14.84709215 -9.78515625 17.66015625 C-12.72265625 20.09765625 -12.72265625 20.09765625 -14.72265625 20.09765625 C-14.72265625 20.75765625 -14.72265625 21.41765625 -14.72265625 22.09765625 C-14.16578125 22.2678125 -13.60890625 22.43796875 -13.03515625 22.61328125 C-4.65316536 25.27512971 3.33446451 28.33900889 9.08984375 35.28515625 C10.78462962 39.29912278 10.94472193 42.80520112 10.27734375 47.09765625 C7.8528746 52.23753085 4.41561527 54.87610818 -0.72265625 57.09765625 C-4.22218418 57.60102081 -4.22218418 57.60102081 -7.97792053 57.60559082 C-8.67387201 57.61183078 -9.36982349 57.61807075 -10.08686441 57.6244998 C-12.40079156 57.64035586 -14.71365439 57.62785576 -17.02758789 57.61523438 C-18.69374706 57.62065877 -20.35990143 57.62778321 -22.02604675 57.63647461 C-26.53840808 57.65467183 -31.05040259 57.64765576 -35.56277013 57.63495827 C-40.28985772 57.62481359 -45.01691444 57.63422786 -49.7440033 57.64050293 C-57.68038559 57.64777435 -65.61661886 57.63820416 -73.55297852 57.61914062 C-82.7240877 57.59736535 -91.89484127 57.60443002 -101.06594187 57.62644625 C-108.94639726 57.64460571 -116.82674569 57.64715612 -124.70721525 57.63669157 C-129.41117808 57.63046061 -134.11497381 57.62961023 -138.81892586 57.64283752 C-143.24072588 57.65440363 -147.66206783 57.64635655 -152.08381844 57.6232605 C-153.7051416 57.61797777 -155.32650341 57.61947975 -156.94781113 57.62831116 C-159.16385056 57.63926805 -161.37842889 57.62550383 -163.59437561 57.60559082 C-165.45289957 57.60332867 -165.45289957 57.60332867 -167.34896946 57.60102081 C-172.23496985 56.87201436 -175.36626151 54.65487946 -178.5793457 50.96606445 C-180.27527907 46.71120194 -180.09242564 42.74040689 -180.015625 38.203125 C-180.01138016 37.25576981 -180.00713531 36.30841461 -180.00276184 35.33235168 C-179.98601314 32.31632678 -179.94836771 29.30097809 -179.91015625 26.28515625 C-179.8951045 24.2363378 -179.88141695 22.18750884 -179.86914062 20.13867188 C-179.83612204 15.12474075 -179.78436572 10.11131303 -179.72265625 5.09765625 C-177.08265625 5.09765625 -174.44265625 5.09765625 -171.72265625 5.09765625 C-171.70283691 6.32919434 -171.68301758 7.56073242 -171.66259766 8.82958984 C-171.58666443 13.38823286 -171.49792862 17.94655152 -171.40527344 22.50488281 C-171.36693276 24.47975269 -171.33208895 26.45469361 -171.30078125 28.4296875 C-171.25524078 31.2645817 -171.1972291 34.09898455 -171.13671875 36.93359375 C-171.12516754 37.82009613 -171.11361633 38.70659851 -171.10171509 39.6199646 C-171.0818454 40.44066437 -171.06197571 41.26136414 -171.04150391 42.10693359 C-171.02818024 42.83085297 -171.01485657 43.55477234 -171.00112915 44.30062866 C-170.86477704 46.3491912 -170.86477704 46.3491912 -168.72265625 48.09765625 C-165.75616447 48.40643595 -165.75616447 48.40643595 -162.20706177 48.35835266 C-161.53030549 48.36217821 -160.85354921 48.36600376 -160.15628517 48.36994523 C-157.87771244 48.38030347 -155.59939039 48.37627781 -153.32080078 48.37231445 C-151.69154628 48.37665942 -150.06229383 48.38184185 -148.43304443 48.38780212 C-143.9991285 48.40122777 -139.56529761 48.40176676 -135.1313653 48.39923882 C-131.43346652 48.39817134 -127.73558511 48.40304684 -124.03769004 48.40784425 C-115.31466435 48.41895214 -106.5916817 48.41936989 -97.86865234 48.41333008 C-88.86296696 48.40729049 -79.85743782 48.41959797 -70.8517791 48.44090015 C-63.12688929 48.45850243 -55.40204926 48.46451961 -47.67714012 48.4612624 C-43.06037329 48.45944692 -38.44371786 48.46211185 -33.82696915 48.47597694 C-29.48494348 48.48852809 -25.14316164 48.48663703 -20.80113983 48.47356606 C-19.20638574 48.47119464 -17.61161463 48.47395513 -16.01688004 48.48218918 C-13.84170766 48.49261123 -11.66736032 48.48459345 -9.49221802 48.47187805 C-8.27436174 48.47204579 -7.05650547 48.47221354 -5.80174446 48.47238636 C-2.46457527 48.06624737 -1.06820075 47.46778478 1.27734375 45.09765625 C2.02755619 42.64133293 2.02755619 42.64133293 1.27734375 40.09765625 C-3.25284122 35.5577914 -9.25756724 33.39083043 -15.03515625 30.84765625 C-16.06189453 30.38875 -17.08863281 29.92984375 -18.14648438 29.45703125 C-20.66904327 28.33067937 -23.19439971 27.21114535 -25.72265625 26.09765625 C-26.0234375 23.3984375 -26.0234375 23.3984375 -25.72265625 20.09765625 C-23.703125 17.640625 -23.703125 17.640625 -20.91015625 15.28515625 C-19.41935547 14.00898438 -19.41935547 14.00898438 -17.8984375 12.70703125 C-16.84144307 11.83529674 -15.78283392 10.96551659 -14.72265625 10.09765625 C-13.67436085 9.22800718 -12.62618192 8.3582177 -11.578125 7.48828125 C-9.67306261 5.92028757 -7.76094092 4.36080636 -5.83984375 2.8125 C-2.4771607 0.08885081 -2.4771607 0.08885081 0 0 Z " fill="#FEF9F8" transform="translate(390.72265625,342.90234375)"/>
<path d="M0 0 C9.527489 6.84446049 14.77169297 14.40469548 16.73828125 25.93359375 C17 28 17 28 17 30 C-6.76 30 -30.52 30 -55 30 C-53.84488429 19.60395864 -50.99720798 11.09513679 -43 4 C-30.42052071 -4.88566808 -13.92679972 -7.99501466 0 0 Z " fill="#EE2625" transform="translate(199,188)"/>
<path d="M0 0 C2.64 0 5.28 0 8 0 C10.30912829 10.10243627 12.65451664 21.74354301 7 31 C1.91647767 35.02445518 -2.04967642 35.42645436 -8.44921875 35.3359375 C-11.06213839 34.99181638 -12.69108357 34.20872762 -15 33 C-17.85418219 33.348071 -20.26879341 34.0895978 -23 35 C-24.66538961 35.06847819 -26.3333526 35.08482117 -28 35.0625 C-29.299375 35.04896484 -29.299375 35.04896484 -30.625 35.03515625 C-31.40875 35.02355469 -32.1925 35.01195312 -33 35 C-33.99 35 -34.98 35 -36 35 C-36.268125 35.66386719 -36.53625 36.32773437 -36.8125 37.01171875 C-39.69693749 43.51119138 -42.47055285 47.06311477 -49 50 C-54.52631232 51.84210411 -60.8797929 52.07524045 -66.42578125 50.1640625 C-70.5445933 47.85256346 -73.50540896 45.00379202 -75.37890625 40.640625 C-76.21656028 37.07927831 -76.39075301 33.57917394 -76.4375 29.9375 C-76.4478125 29.26485107 -76.458125 28.59220215 -76.46875 27.89916992 C-76.38033368 22.87724555 -75.16832004 19.42291276 -73 15 C-70.69 15 -68.38 15 -66 15 C-66.15855469 15.66 -66.31710938 16.32 -66.48046875 17 C-67.11647854 20.67259787 -67.26107489 24.28367854 -67.3125 28 C-67.34150391 28.69867188 -67.37050781 29.39734375 -67.40039062 30.1171875 C-67.44373298 33.65125631 -67.07485899 35.86468482 -65.35546875 38.97265625 C-62.37608107 41.53700485 -60.88416114 41.58801124 -57 41.4375 C-55.96875 41.41558594 -54.9375 41.39367187 -53.875 41.37109375 C-51.00617278 41.00079676 -49.32441675 40.70699355 -47 39 C-44.49001986 34.75599573 -44.73181879 30.2874212 -44.8125 25.5 C-44.81894531 24.71061035 -44.82539063 23.9212207 -44.83203125 23.10791016 C-44.91922111 16.37658063 -45.33708305 9.70019628 -46 3 C-43.36 3 -40.72 3 -38 3 C-37.87939209 3.99181274 -37.87939209 3.99181274 -37.75634766 5.00366211 C-37.38870004 7.9828665 -37.00704642 10.96010937 -36.625 13.9375 C-36.49867188 14.97841797 -36.37234375 16.01933594 -36.2421875 17.09179688 C-36.11328125 18.08115234 -35.984375 19.07050781 -35.8515625 20.08984375 C-35.67874756 21.46450806 -35.67874756 21.46450806 -35.50244141 22.86694336 C-35.33663574 23.57085205 -35.17083008 24.27476074 -35 25 C-32.68566978 26.15716511 -31.13939188 26.23210436 -28.5625 26.3125 C-27.78003906 26.34988281 -26.99757812 26.38726562 -26.19140625 26.42578125 C-23.89337327 26.1742866 -23.89337327 26.1742866 -22.2578125 24.43359375 C-20.56883672 21.16579278 -20.48200287 18.4112619 -20.3125 14.75 C-20.24675781 13.48671875 -20.18101562 12.2234375 -20.11328125 10.921875 C-20.07589844 9.95765625 -20.03851563 8.9934375 -20 8 C-17.36 8 -14.72 8 -12 8 C-11.97278824 9.89575251 -11.95350864 11.79161979 -11.9375 13.6875 C-11.92589844 14.74324219 -11.91429687 15.79898437 -11.90234375 16.88671875 C-11.99134575 19.72410262 -12.35060162 22.2438919 -13 25 C-10.6603331 26.16983345 -9.16608473 26.1661241 -6.5625 26.1875 C-5.78003906 26.20167969 -4.99757813 26.21585937 -4.19140625 26.23046875 C-1.70794013 26.14086064 -1.70794013 26.14086064 1 24 C1.40598715 22.04136457 1.40598715 22.04136457 1.25 19.75 C1.22421875 18.87085938 1.1984375 17.99171875 1.171875 17.0859375 C0.85433331 11.38462086 0.45926474 5.69160233 0 0 Z " fill="#FEF4F3" transform="translate(188,365)"/>
<path d="M0 0 C3.93895648 2.47349525 6.8418968 4.98737731 8.4375 9.4375 C9.9572439 20.39958715 7.9808712 28.14667834 1.609375 36.96875 C-0.7440806 39.64390097 -3.06608712 41.39446648 -6.0625 43.3125 C-7.47015625 44.23675781 -7.47015625 44.23675781 -8.90625 45.1796875 C-11.5625 46.4375 -11.5625 46.4375 -13.6015625 46.46484375 C-21.73307062 42.20471101 -28.79707851 29.79857905 -31.5625 21.4375 C-32.45045295 15.73517714 -32.3819817 11.2025375 -29.9375 5.9375 C-22.30159765 -2.10029195 -10.36421381 -4.64602688 0 0 Z " fill="#EE2626" transform="translate(303.5625,136.5625)"/>
<path d="M0 0 C2.34115276 1.1178045 3.97302703 2.33684269 6 4 C6.33 3.01 6.66 2.02 7 1 C8.98 1 10.96 1 13 1 C13.07461471 5.98043609 13.12881987 10.96054089 13.16479492 15.94140625 C13.17980505 17.63287022 13.20021963 19.32429578 13.22631836 21.015625 C13.26304686 23.45843024 13.27980411 25.9007173 13.29296875 28.34375 C13.30845261 29.08991577 13.32393646 29.83608154 13.33988953 30.6048584 C13.34168399 36.30789166 12.54212964 42.18751259 8.58317566 46.56750488 C3.80451451 50.70270138 0.15016075 51.15546791 -6 51.1875 C-7.2375 51.20167969 -8.475 51.21585938 -9.75 51.23046875 C-13 51 -13 51 -16 49 C-16.1875 46.375 -16.1875 46.375 -16 44 C-14.93265625 44.23589844 -14.93265625 44.23589844 -13.84375 44.4765625 C-7.80619528 45.58787065 -2.10441435 46.36167987 3.1875 42.9375 C5.39370285 39.36192987 5.40488369 37.12981363 5 33 C4.195625 33.495 3.39125 33.99 2.5625 34.5 C-1.83393695 36.35113135 -5.30266467 36.99665202 -10 36 C-14.16936216 33.73456622 -16.53014784 30.7881391 -18.9375 26.75 C-20.70450609 20.51350792 -21.08185857 14.72849155 -18.4375 8.6875 C-14.27815924 1.51772729 -8.25243167 -1.68935648 0 0 Z " fill="#FDF1EF" transform="translate(417,74)"/>
<path d="M0 0 C5.20588572 1.76803666 7.36844831 4.22422101 10 9 C11.47333717 12.80612102 11 15.60053092 11 20 C2.75 20 -5.5 20 -14 20 C-11.86618518 27.47943242 -11.86618518 27.47943242 -8.875 30 C-3.38912708 31.90812971 2.41659028 31.44087993 8 30 C8 31.65 8 33.3 8 35 C2.29350033 37.4027367 -4.10438612 38.36753049 -10.05859375 36.27734375 C-14.99015902 33.65778112 -18.23966859 30.28099423 -20 25 C-20.95315682 11.27087576 -20.95315682 11.27087576 -17 6 C-11.47542322 0.62274527 -7.56445184 -0.6888371 0 0 Z " fill="#FDF0EE" transform="translate(381,74)"/>
<path d="M0 0 C3.34265205 1.20706879 3.94704566 1.92056849 6 5 C6.24790112 7.69520404 6.37017523 10.24286697 6.375 12.9375 C6.39949219 13.65357422 6.42398437 14.36964844 6.44921875 15.10742188 C6.46896053 18.6576512 6.31011305 20.60119206 4.1015625 23.44140625 C0.30093424 26.26008781 -2.25564897 26.48247638 -7 26 C-10.89270017 22.86891508 -12.72210172 20.52887431 -13.2734375 15.51171875 C-13.58137334 6.94873366 -13.58137334 6.94873366 -10.625 3.375 C-6.87466315 -0.01816191 -5.0128971 -0.30077383 0 0 Z " fill="#EE2927" transform="translate(417,79)"/>
<path d="M0 0 C1.37310707 1.29233607 2.71034824 2.62437146 4 4 C6.49361571 2.79618552 8.68143083 1.54571278 11 0 C12.98 2.31 14.96 4.62 17 7 C14.75 9.5625 14.75 9.5625 12 12 C8.6271792 12 6.54035223 10.0867179 4 8 C2.68 9.32 1.36 10.64 0 12 C-2.88437779 10.70700306 -4.87219421 9.34058637 -7 7 C-3.86206897 0 -3.86206897 0 0 0 Z " fill="#FDF4F2" transform="translate(167,354)"/>
<path d="M0 0 C2.5625 1.625 2.5625 1.625 4 4 C4 5.98 4 7.96 4 10 C-1.94 10 -7.88 10 -14 10 C-13 4 -13 4 -11.5 1.625 C-7.76298466 -0.80405997 -4.33112016 -0.77880693 0 0 Z " fill="#EE2B29" transform="translate(381,79)"/>
<path d="M0 0 C1.65 1.32 3.3 2.64 5 4 C3.63016497 7.16115776 3.0109362 7.9927092 0 10 C-1.32 8.68 -2.64 7.36 -4 6 C-2.84826645 3.53199953 -1.95216435 1.95216435 0 0 Z " fill="#FDF5F3" transform="translate(171,346)"/>
</svg>
