<svg enable-background="new 0 0 32 32" viewBox="0 0 32 32" xmlns="http://www.w3.org/2000/svg"><g id="Grid" display="none"/><g id="Webinar"/><g id="Assignment"><path d="m20.38 16.85c0-.497-.403-.9-.9-.9h-8.42c-.497 0-.9.403-.9.9s.403.9.9.9h8.42c.497 0 .9-.403.9-.9z"/><path d="m11.055 20.125c-.497 0-.9.403-.9.9s.403.9.9.9h4.82c.497 0 .9-.403.9-.9s-.403-.9-.9-.9z"/><path d="m16.03 27.39h-8.27c-.563 0-1.02-.458-1.02-1.02v-13.904h3.232c1.551 0 2.813-1.262 2.813-2.813v-3.233h11.505c.563 0 1.02.458 1.02 1.02v8.3c0 .497.403.9.9.9s.9-.403.9-.9v-8.3c0-1.555-1.265-2.82-2.82-2.82h-.705v-.704c0-1.553-1.263-2.815-2.815-2.815h-16.535c-1.552-.001-2.815 1.262-2.815 2.815v18.938c0 1.552 1.263 2.815 2.815 2.815h.705v.701c0 1.555 1.265 2.82 2.82 2.82h8.27c.497 0 .9-.403.9-.9s-.403-.9-.9-.9zm-5.046-17.736c0 .558-.455 1.013-1.013 1.013h-3.231v-.497c0-.134.058-.271.147-.365l3.219-3.229c.102-.1.234-.156.374-.156h.504zm-6.749 14.215c-.56 0-1.016-.456-1.016-1.016v-18.937c0-.55.465-1.016 1.016-1.016h16.535c.56 0 1.015.456 1.015 1.016v.704h-11.305c-.621 0-1.206.243-1.647.685l-3.231 3.241c-.427.443-.662 1.02-.662 1.624v13.699z"/><path d="m24.187 18.114c-3.525 0-6.393 2.868-6.393 6.393s2.868 6.393 6.393 6.393 6.393-2.868 6.393-6.393-2.868-6.393-6.393-6.393zm0 10.986c-2.533 0-4.593-2.061-4.593-4.593s2.061-4.593 4.593-4.593 4.593 2.061 4.593 4.593c0 2.533-2.06 4.593-4.593 4.593z"/><path d="m25.49 22.871-1.972 1.588-.491-.626c-.307-.391-.873-.459-1.264-.153-.391.307-.46.873-.153 1.264l1.054 1.344c.149.189.367.312.606.339.034.004.068.006.102.006.205 0 .404-.069.564-.199l2.682-2.161c.387-.312.448-.878.136-1.265-.31-.387-.877-.448-1.264-.137z"/></g><g id="Article"/><g id="Audi"/><g id="Video_Tutorial"/><g id="Discussion_1_"/><g id="Resume"/><g id="Trophy"/><g id="Encyclopedia"/><g id="Smartphone"/><g id="Online_Lesson"/><g id="Webpage"/><g id="Search"/><g id="Registration"/><g id="Certificate_1_"/><g id="Review"/><g id="Ebook"/><g id="Online_Class_1_"/><g id="Schedule"/><g id="Idea"/><g id="Login"/><g id="Science"/><g id="Time"/><g id="Business"/><g id="Projector"/></svg>