<?xml version="1.0" encoding="UTF-8"?>
<svg version="1.1" xmlns="http://www.w3.org/2000/svg" width="500" height="336">
<path d="M0 0 C165 0 330 0 500 0 C500 110.88 500 221.76 500 336 C335 336 170 336 0 336 C0 225.12 0 114.24 0 0 Z " fill="#FDFDFD" transform="translate(0,0)"/>
<path d="M0 0 C3.75845914 2.10840391 5.43672321 5.01329462 6.76171875 8.98828125 C7.92803597 21.46787548 7.92803597 21.46787548 4.38671875 25.80078125 C1.76171875 27.98828125 1.76171875 27.98828125 -0.23828125 27.98828125 C-0.44654037 28.52218475 -0.6547995 29.05608826 -0.86936951 29.60617065 C-2.78333931 32.93676356 -5.4251925 35.42804545 -8.14086914 38.10205078 C-8.74427628 38.70414368 -9.34768341 39.30623657 -9.96937561 39.92657471 C-11.96200434 41.91271989 -13.96150811 43.89179695 -15.9609375 45.87109375 C-17.34624595 47.25013153 -18.73104032 48.6296859 -20.11534119 50.00973511 C-23.75872818 53.63982248 -27.40764098 57.26429999 -31.0581665 60.88720703 C-36.90632343 66.69223055 -42.747756 72.50400171 -48.58599663 78.31899643 C-50.62943947 80.35219099 -52.6762474 82.381953 -54.72340393 84.41140747 C-55.97074592 85.65192395 -57.21797986 86.8925491 -58.46508789 88.13330078 C-59.32460052 88.98270737 -59.32460052 88.98270737 -60.20147705 89.84927368 C-63.07715012 92.64718121 -63.07715012 92.64718121 -65.23828125 95.98828125 C-64.66944717 95.97495758 -64.1006131 95.96163391 -63.51454163 95.94790649 C-57.56062578 95.81452096 -51.60713848 95.72440581 -45.65209961 95.65869141 C-43.4338251 95.62863392 -41.21566829 95.5877756 -38.99780273 95.53564453 C-35.797718 95.46234369 -32.5992125 95.42871358 -29.3984375 95.40234375 C-28.41682144 95.37137604 -27.43520538 95.34040833 -26.42384338 95.3085022 C-19.34497678 95.30509046 -14.44813976 97.07555786 -9.23828125 101.98828125 C-6.40513151 106.64348504 -5.38652455 111.59382216 -6.23828125 116.98828125 C-9.14917157 122.96010778 -11.99280772 126.46231776 -18.23828125 128.98828125 C-21.31389368 129.40845664 -24.3525735 129.39866924 -27.453125 129.37646484 C-28.36119904 129.3817218 -29.26927307 129.38697876 -30.2048645 129.39239502 C-33.19534699 129.40555838 -36.18529369 129.39686983 -39.17578125 129.38671875 C-41.26033632 129.38874053 -43.3448907 129.39165285 -45.42944336 129.39541626 C-49.79385119 129.39983465 -54.15807458 129.39342405 -58.52246094 129.37939453 C-64.11116723 129.36230306 -69.69944127 129.37214682 -75.28813171 129.39011192 C-79.59130091 129.40096277 -83.89436797 129.39749742 -88.19754028 129.38972855 C-90.25798596 129.38773014 -92.31844096 129.39017315 -94.37887573 129.39716721 C-97.2606455 129.40480297 -100.14171943 129.39314748 -103.0234375 129.37646484 C-103.871409 129.38253754 -104.71938049 129.38861023 -105.5930481 129.39486694 C-110.54759623 129.34184675 -113.93319182 128.7088586 -118.23828125 125.98828125 C-119.8828125 124.05078125 -119.8828125 124.05078125 -121.05078125 121.98828125 C-121.44910156 121.30765625 -121.84742188 120.62703125 -122.2578125 119.92578125 C-124.50292171 115.48923077 -124.39937119 111.34826733 -124.4152832 106.49707031 C-124.4218544 105.63005493 -124.4284256 104.76303955 -124.43519592 103.86975098 C-124.45492111 100.99780185 -124.4665901 98.12590502 -124.4765625 95.25390625 C-124.48063803 94.27246391 -124.48471355 93.29102158 -124.48891258 92.27983856 C-124.50977049 87.08467316 -124.52407315 81.88953415 -124.53344727 76.69433594 C-124.54450813 71.33316753 -124.57890524 65.97241459 -124.61861897 60.61139297 C-124.64478699 56.48491656 -124.6531393 52.35853909 -124.65672874 48.231987 C-124.66159459 46.25607245 -124.6732085 44.28016231 -124.69176674 42.30432892 C-124.7161609 39.5349096 -124.7151926 36.76656458 -124.70825195 33.99707031 C-124.72106201 33.18538391 -124.73387207 32.37369751 -124.74707031 31.53741455 C-124.68958682 25.22465174 -123.01264212 20.94848448 -118.60546875 16.24609375 C-113.74260196 12.5543886 -111.04254499 11.51662568 -104.98046875 11.578125 C-100.2545945 12.28498653 -96.59799488 14.64917936 -93.23828125 17.98828125 C-89.71538671 23.4324591 -89.76765996 28.36444891 -89.7265625 34.63671875 C-89.7086113 35.64924713 -89.6906601 36.66177551 -89.67216492 37.70498657 C-89.61818167 40.92437636 -89.58420418 44.14361888 -89.55078125 47.36328125 C-89.51759765 49.55210377 -89.48310703 51.74090689 -89.44726562 53.9296875 C-89.36246223 59.28242 -89.29406176 64.63517185 -89.23828125 69.98828125 C-88.07425781 68.80492188 -88.07425781 68.80492188 -86.88671875 67.59765625 C-84.23828125 64.98828125 -84.23828125 64.98828125 -81.86328125 63.23828125 C-79.43409544 61.15612199 -77.82650207 59.22300575 -75.92578125 56.67578125 C-72.54425146 52.1967374 -68.8193673 48.2634945 -64.23828125 44.98828125 C-63.57828125 44.98828125 -62.91828125 44.98828125 -62.23828125 44.98828125 C-61.99078125 44.43140625 -61.74328125 43.87453125 -61.48828125 43.30078125 C-58.68554783 38.11572442 -54.74188645 34.59359424 -50.32421875 30.81640625 C-47.14031724 28.02602066 -44.19395376 25.01657471 -41.23828125 21.98828125 C-38.85197972 19.54516302 -36.5779277 17.24748512 -33.86328125 15.17578125 C-31.53895542 13.23884306 -29.75358909 11.34264804 -27.80078125 9.05078125 C-19.85331056 -0.22702692 -12.06392465 -5.00095894 0 0 Z " fill="#FD7801" transform="translate(382.23828125,2.01171875)"/>
<path d="M0 0 C0.8863765 -0.0049649 1.77275299 -0.00992981 2.68598938 -0.01504517 C5.62831389 -0.0296896 8.57058443 -0.03647371 11.51293945 -0.04199219 C13.55597434 -0.04774317 15.59900921 -0.05350091 17.64204407 -0.05926514 C21.93193819 -0.06978258 26.22181354 -0.07561991 30.51171875 -0.07910156 C36.00175282 -0.08457811 41.49153785 -0.1085851 46.98149395 -0.13707352 C51.20490739 -0.15572565 55.42826127 -0.16090694 59.65171242 -0.16243744 C61.67506072 -0.16546029 63.69840807 -0.17347639 65.72171593 -0.18662262 C68.55815739 -0.20373158 71.39399622 -0.20179061 74.23046875 -0.1953125 C75.47840714 -0.20913467 75.47840714 -0.20913467 76.7515564 -0.22323608 C82.61120589 -0.18144325 87.62158269 0.6787668 92.1809082 4.69628906 C96.20876762 10.12695469 96.5951881 13.35666867 96.61572266 20.01367188 C96.62229385 20.93091537 96.62886505 21.84815887 96.63563538 22.79319763 C96.65539375 25.83771847 96.66703707 28.88218991 96.67700195 31.92675781 C96.68107748 32.96552818 96.68515301 34.00429855 96.68935204 35.07454681 C96.71022432 40.57329613 96.72452062 46.0720204 96.73388672 51.57080078 C96.74494927 57.25157172 96.7793443 62.93195075 96.81905842 68.61258316 C96.84520205 72.97921478 96.8535766 77.34575275 96.8571682 81.71245575 C96.86204053 83.80642084 96.87367285 85.90038158 96.89220619 87.99427032 C96.91654771 90.92683452 96.9156415 93.85838138 96.90869141 96.79101562 C96.92790649 98.08642525 96.92790649 98.08642525 96.94750977 99.40800476 C96.90084332 104.8160676 96.01841001 107.86221417 92.4387207 112.16113281 C87.35808295 116.74609859 83.53088455 117.46871139 76.87231445 117.37207031 C72.08582723 116.9571902 69.68710963 114.57268684 66.6887207 111.09863281 C63.95012519 107.52324423 63.3154653 106.00434398 63.23339844 101.61962891 C63.20348061 100.20839249 63.20348061 100.20839249 63.17295837 98.76864624 C63.15624588 97.75090118 63.13953339 96.73315613 63.12231445 95.68457031 C63.10153336 94.6441861 63.08075226 93.60380188 63.05934143 92.53189087 C62.99382198 89.20004032 62.93494979 85.86810931 62.8762207 82.53613281 C62.83303777 80.28091607 62.78942355 78.02570754 62.74536133 75.77050781 C62.63813818 70.23413517 62.53637624 64.69768203 62.4387207 59.16113281 C61.16205032 60.44779594 61.16205032 60.44779594 59.85958862 61.76045227 C51.83432899 69.84654947 43.80114253 77.92469651 35.76014519 85.99514484 C31.62652978 90.14441031 27.49574912 94.29641773 23.37133789 98.45483398 C19.39032403 102.46846402 15.40200841 106.47470309 11.40854263 110.47594261 C9.88690447 112.00312016 8.36790753 113.53293409 6.85161972 115.06542397 C4.72598284 117.21286431 2.59111412 119.35070498 0.45385742 121.48657227 C-0.16977188 122.1209874 -0.79340118 122.75540253 -1.43592834 123.40904236 C-6.10855171 128.04893974 -10.62790536 131.58749687 -17.4987793 131.59863281 C-22.39887008 131.41469547 -25.88608161 130.4725419 -29.5612793 127.16113281 C-32.90704969 123.39926407 -34.8623876 119.72960021 -35.1862793 114.66113281 C-34.53429816 106.45940102 -28.44751002 100.60745432 -22.84326172 95.10253906 C-22.18904236 94.44788162 -21.534823 93.79322418 -20.86077881 93.11872864 C-18.71980962 90.97983146 -16.56844979 88.85172809 -14.41674805 86.72363281 C-12.92108183 85.23356818 -11.42608129 83.74283508 -9.93171692 82.25146484 C-6.01418899 78.3453413 -2.08773334 74.44831496 1.84069824 70.55316162 C5.854752 66.56990389 9.8602304 62.57804319 13.86645508 58.58691406 C21.71554311 50.76991238 29.57409678 42.96250162 37.4387207 35.16113281 C36.87575287 35.15748718 36.31278503 35.15384155 35.73275757 35.15008545 C29.85975237 35.10819198 23.98752368 35.03879883 18.11499023 34.95361328 C15.92496517 34.92543222 13.73483893 34.90420347 11.54467773 34.89013672 C8.39164544 34.86866805 5.23982586 34.82199606 2.0871582 34.77050781 C1.11193207 34.76927917 0.13670593 34.76805054 -0.86807251 34.76678467 C-8.19074235 34.60992124 -11.2925267 32.97589199 -16.8112793 28.22363281 C-20.23869919 24.18417365 -20.98236681 20.43902969 -20.8034668 15.14160156 C-20.0758179 9.19131138 -16.57710193 5.96119394 -12.18237305 2.36035156 C-8.36079838 -0.46669283 -4.57172602 0.00606895 0 0 Z " fill="#010101" transform="translate(144.561279296875,13.8388671875)"/>
<path d="M0 0 C7.59632584 4.23883376 12.26165203 10.7849561 15 19 C15.87295306 28.57719813 16.41406159 38.70853505 11 47 C10.46375 48.051875 9.9275 49.10375 9.375 50.1875 C5.33697277 54.96937435 -0.71653003 58.98289155 -7 60 C-24.19069767 61.13488372 -24.19069767 61.13488372 -31 56 C-31.62261719 55.56429687 -32.24523437 55.12859375 -32.88671875 54.6796875 C-37.48017419 51.15514936 -39.90417418 47.35014832 -42 42 C-42.4125 40.948125 -42.825 39.89625 -43.25 38.8125 C-45.16015976 29.10252121 -44.7596897 19.81077392 -40 11 C-30.74022302 -2.3365372 -14.95865487 -7.35350697 0 0 Z " fill="#070707" transform="translate(154,182)"/>
<path d="M0 0 C6.27 0 12.54 0 19 0 C22.46803958 9.05073743 25.78510261 18.12543814 28.875 27.3125 C29.1851001 28.22539795 29.4952002 29.1382959 29.81469727 30.07885742 C30.24286743 31.36433472 30.24286743 31.36433472 30.6796875 32.67578125 C31.06229736 33.8191394 31.06229736 33.8191394 31.45263672 34.9855957 C32 37 32 37 32 40 C32.66 40 33.32 40 34 40 C34.22429687 38.84628906 34.44859375 37.69257813 34.6796875 36.50390625 C36.30979759 29.16841084 38.78525396 22.06989911 41.125 14.9375 C41.5980389 13.48515062 42.07069826 12.03267756 42.54296875 10.58007812 C43.69024681 7.0516949 44.84526662 3.52598475 46 0 C52.27 0 58.54 0 65 0 C65 19.8 65 39.6 65 60 C61.04 60 57.08 60 53 60 C52.67 46.8 52.34 33.6 52 20 C47.38 33.53 42.76 47.06 38 61 C34.37 61 30.74 61 27 61 C26.74831055 60.23969482 26.49662109 59.47938965 26.23730469 58.69604492 C25.076511 55.19265041 23.91326996 51.69007303 22.75 48.1875 C22.35425781 46.99189453 21.95851562 45.79628906 21.55078125 44.56445312 C21.15761719 43.38173828 20.76445312 42.19902344 20.359375 40.98046875 C20.00327148 39.90692139 19.64716797 38.83337402 19.28027344 37.72729492 C17.58611786 32.79505366 15.78222094 27.90110758 14 23 C13.67 35.54 13.34 48.08 13 61 C8.71 61 4.42 61 0 61 C0 40.87 0 20.74 0 0 Z " fill="#070707" transform="translate(110,260)"/>
<path d="M0 0 C3.41283481 1.36943582 4.84937371 2.32484182 6.921875 5.43359375 C7.251875 3.78359375 7.581875 2.13359375 7.921875 0.43359375 C11.551875 0.43359375 15.181875 0.43359375 18.921875 0.43359375 C18.99616088 7.01722763 19.05054199 13.60061624 19.08666992 20.18457031 C19.10173464 22.42322033 19.12219033 24.66184094 19.14819336 26.90039062 C19.18467783 30.12246977 19.20162483 33.34415786 19.21484375 36.56640625 C19.23032761 37.56350616 19.24581146 38.56060608 19.26176453 39.58792114 C19.26328361 45.89320721 18.65474353 50.47091582 14.203125 55.296875 C13.6153125 55.77511719 13.0275 56.25335938 12.421875 56.74609375 C11.54015625 57.48279297 11.54015625 57.48279297 10.640625 58.234375 C4.82013178 62.29549186 -5.22948624 61.17815054 -12.078125 60.43359375 C-17.02316166 58.86631437 -19.31449145 56.62677117 -22.078125 52.30859375 C-23.078125 49.43359375 -23.078125 49.43359375 -23.078125 46.43359375 C-19.118125 46.43359375 -15.158125 46.43359375 -11.078125 46.43359375 C-10.418125 47.75359375 -9.758125 49.07359375 -9.078125 50.43359375 C-6.62430366 51.66050442 -4.87828397 51.63535306 -2.140625 51.68359375 C-0.82771484 51.72226563 -0.82771484 51.72226563 0.51171875 51.76171875 C2.96200175 51.62886411 2.96200175 51.62886411 4.67578125 50.10546875 C6.81128318 47.24028121 7.04088648 44.69329422 6.984375 41.24609375 C6.96375 39.98796875 6.943125 38.72984375 6.921875 37.43359375 C6.365 38.05234375 5.808125 38.67109375 5.234375 39.30859375 C1.2310122 42.98735957 -2.5019555 43.92368064 -7.9609375 43.73828125 C-12.73635096 43.05104463 -16.58767226 41.26714576 -19.65625 37.4921875 C-24.45336038 30.00704112 -24.76134575 23.22762077 -24.078125 14.43359375 C-22.42798094 8.10141442 -18.29729646 4.14871826 -13.078125 0.43359375 C-9.1487366 -1.53110045 -4.17185884 -1.13706679 0 0 Z " fill="#080808" transform="translate(322.078125,196.56640625)"/>
<path d="M0 0 C4.78618187 2.86141626 8.03839768 7.57679537 10.5 12.5 C11.73371889 30.17656251 11.73371889 30.17656251 6.5 36.5 C1.10407665 42.30094423 -3.94477012 44.52545819 -11.875 44.875 C-19.71249195 44.70485092 -24.7726936 41.63563475 -30.2734375 36.2578125 C-34.99522988 29.49091259 -34.26185307 20.34867383 -33.5 12.5 C-31.4246287 6.22756084 -26.98350016 2.85102788 -21.5 -0.5 C-15.00873511 -2.66375496 -6.33310407 -2.79148471 0 0 Z " fill="#080808" transform="translate(214.5,277.5)"/>
<path d="M0 0 C4.51117791 3.12312317 4.51117791 3.12312317 6.25 6.25 C6.57506907 9.14496855 6.73824309 11.83686052 6.76171875 14.734375 C6.77966995 15.54996887 6.79762115 16.36556274 6.81611633 17.20587158 C6.8701802 19.80386223 6.90410182 22.40166958 6.9375 25 C6.97067661 26.7643484 7.00516659 28.52867263 7.04101562 30.29296875 C7.1259042 34.61184683 7.19273377 38.93067092 7.25 43.25 C3.29 43.25 -0.67 43.25 -4.75 43.25 C-4.75 41.93 -4.75 40.61 -4.75 39.25 C-6.1421875 40.2090625 -6.1421875 40.2090625 -7.5625 41.1875 C-13.37061805 44.94569403 -18.99646388 44.90212716 -25.75 44.25 C-29.84109867 42.2403375 -32.31905045 40.06514462 -34.75 36.25 C-35.54828193 32.21867625 -35.65440654 28.07370044 -33.80078125 24.3359375 C-29.18723814 18.42710941 -22.9327459 17.79229678 -16 16.6875 C-10.97061549 16.2924688 -10.97061549 16.2924688 -6.75 14.25 C-6.41656449 11.79207971 -6.41656449 11.79207971 -6.75 9.25 C-9.9579364 7.11137573 -12.02818231 6.72608191 -15.85546875 6.78125 C-16.79326172 7.01328125 -16.79326172 7.01328125 -17.75 7.25 C-18.3275 8.24 -18.905 9.23 -19.5 10.25 C-20.2425 11.24 -20.985 12.23 -21.75 13.25 C-25.79005094 13.80387795 -29.69602128 13.59420574 -33.75 13.25 C-33.29451813 8.35356985 -32.34042714 5.66090579 -28.75 2.25 C-20.77965488 -3.24864259 -8.76670043 -4.08356471 0 0 Z " fill="#080808" transform="translate(238.75,197.75)"/>
<path d="M0 0 C6.04453939 3.63812843 9.39952909 8.2352697 11.9921875 14.703125 C12.5078125 17.05859375 12.5078125 17.05859375 12.5078125 25.05859375 C1.9478125 25.05859375 -8.6121875 25.05859375 -19.4921875 25.05859375 C-17.27254893 31.64321933 -17.27254893 31.64321933 -12.4921875 35.05859375 C-9.36341254 35.19136464 -6.50741972 34.9168621 -3.4921875 34.05859375 C-2.8734375 33.37796875 -2.2546875 32.69734375 -1.6171875 31.99609375 C1.64939396 29.01774007 4.97870691 29.76171553 9.2421875 29.91796875 C9.98984375 29.964375 10.7375 30.01078125 11.5078125 30.05859375 C10.29193072 36.28998789 6.52540756 39.55079757 1.5078125 43.05859375 C-4.53563903 45.97378431 -10.86185671 46.20879756 -17.25390625 44.18359375 C-24.25126185 41.00392842 -27.55984799 37.10730511 -30.8046875 30.30859375 C-32.50768491 22.25806055 -32.1766187 15.5627303 -28.125 8.29296875 C-21.64502223 -0.57436925 -10.4126224 -3.93329467 0 0 Z " fill="#0A0A0A" transform="translate(307.4921875,276.94140625)"/>
<path d="M0 0 C6.60610038 3.62687864 9.52103702 6.73818995 12.1875 13.75 C12.1875 17.38 12.1875 21.01 12.1875 24.75 C1.9575 24.75 -8.2725 24.75 -18.8125 24.75 C-16.12932217 33.35646694 -16.12932217 33.35646694 -12.8125 34.75 C-7.46540626 35.1006291 -4.18377693 35.19403637 0.1875 31.75 C0.5175 31.09 0.8475 30.43 1.1875 29.75 C4.8175 29.75 8.4475 29.75 12.1875 29.75 C10.90942959 35.57232074 7.79898072 39.1643196 3.1875 42.75 C-3.27652757 45.98201378 -11.34497042 45.82331848 -18.1875 43.6875 C-23.74775259 41.22526756 -26.69327808 36.65267726 -29.6875 31.5625 C-31.66481388 24.86160296 -32.13644698 17.77609351 -29.125 11.3125 C-22.89954523 0.83551514 -11.80603571 -4.6454184 0 0 Z " fill="#090909" transform="translate(376.8125,197.25)"/>
<path d="M0 0 C4.74424762 1.63892191 7.24659664 3.818906 10 8 C11.34217893 11.77231554 11.12673861 15.65837283 11.09765625 19.609375 C11.0962413 20.33618469 11.09482635 21.06299438 11.09336853 21.81182861 C11.08778792 24.12459494 11.07523904 26.43726312 11.0625 28.75 C11.05748249 30.32161318 11.05292002 31.89322789 11.04882812 33.46484375 C11.03782485 37.30993343 11.02057361 41.1549501 11 45 C6.71 45 2.42 45 -2 45 C-2.01401855 43.56950317 -2.01401855 43.56950317 -2.02832031 42.11010742 C-2.06820433 38.57057038 -2.13395659 35.03190407 -2.20751953 31.49291992 C-2.23573878 29.96145822 -2.25694869 28.42985061 -2.27099609 26.89819336 C-2.29241426 24.69569151 -2.33905138 22.49494541 -2.390625 20.29296875 C-2.39185364 19.60849167 -2.39308228 18.92401459 -2.39434814 18.21879578 C-2.49199916 15.04720737 -2.61803878 13.40130167 -4.84667969 11.05981445 C-8.69975286 9.16342096 -12.02808322 9.67602774 -16 11 C-17.41560639 14.45128462 -17.2072395 18.27264604 -17.31640625 21.953125 C-17.33718735 22.61334656 -17.35796844 23.27356812 -17.37937927 23.95379639 C-17.44450147 26.05243015 -17.50358502 28.15118372 -17.5625 30.25 C-17.60572079 31.67709547 -17.6493362 33.10417905 -17.69335938 34.53125 C-17.80014411 38.02070722 -17.90151566 41.51029753 -18 45 C-21.96 45 -25.92 45 -30 45 C-30 30.48 -30 15.96 -30 1 C-26.37 1 -22.74 1 -19 1 C-18.67 2.32 -18.34 3.64 -18 5 C-17.071875 4.175 -16.14375 3.35 -15.1875 2.5 C-10.39162083 -0.93119811 -5.6882818 -0.78192393 0 0 Z " fill="#0C0C0C" transform="translate(261,276)"/>
<path d="M0 0 C4.29 0 8.58 0 13 0 C15.97 8.91 18.94 17.82 22 27 C24.40170621 20.99573448 26.71391406 15.13017368 28.6875 9 C30.8823736 2.23525281 30.8823736 2.23525281 32 0 C35.96 0 39.92 0 44 0 C41.22881138 9.45167633 37.99662067 18.68503546 34.63964844 27.94189453 C33.96133797 29.81916281 33.28851097 31.69842118 32.62109375 33.57958984 C31.64753451 36.32321341 30.65768573 39.06046342 29.6640625 41.796875 C29.22472885 43.04860504 29.22472885 43.04860504 28.77651978 44.32562256 C26.66109794 50.06965232 24.19655534 54.68844138 19.109375 58.3671875 C16.11136253 59.26659124 13.37107634 59.18742153 10.25 59.125 C9.07953125 59.10695313 7.9090625 59.08890625 6.703125 59.0703125 C5.81109375 59.04710937 4.9190625 59.02390625 4 59 C4 55.7 4 52.4 4 49 C5.464375 48.855625 6.92875 48.71125 8.4375 48.5625 C11.51846698 48.46504174 11.51846698 48.46504174 14 47 C14.34327452 41.78913341 13.55330259 37.95963134 11.69921875 33.10546875 C11.46217728 32.47320877 11.2251358 31.84094879 10.98091125 31.18952942 C10.22716026 29.18459843 9.45819092 27.18597293 8.6875 25.1875 C7.68642115 22.55786262 6.69171228 19.92585711 5.69921875 17.29296875 C5.46081268 16.66333221 5.22240662 16.03369568 4.97677612 15.38497925 C3.07414729 10.31449129 1.47205263 5.20996102 0 0 Z " fill="#060606" transform="translate(319,277)"/>
<path d="M0 0 C4.73829769 1.66717882 7.2011938 3.85362045 10 8 C11.21077701 11.63233102 11.12444164 14.95121987 11.09765625 18.73046875 C11.0962413 19.48088943 11.09482635 20.23131012 11.09336853 21.00447083 C11.0877756 23.3988546 11.07522444 25.79314453 11.0625 28.1875 C11.05748408 29.81184761 11.05292134 31.43619668 11.04882812 33.06054688 C11.03780848 37.04040069 11.02054873 41.02018444 11 45 C7.04 45 3.08 45 -1 45 C-1.01458252 44.1121582 -1.02916504 43.22431641 -1.04418945 42.30957031 C-1.10534534 39.00672038 -1.17951378 35.70469085 -1.26245117 32.40234375 C-1.29564794 30.97472086 -1.32369631 29.54696837 -1.34643555 28.11914062 C-1.38008013 26.06324185 -1.43239562 24.00852488 -1.48828125 21.953125 C-1.51446533 20.71723633 -1.54064941 19.48134766 -1.56762695 18.20800781 C-2.02337028 14.82660336 -2.61529555 13.39239822 -5 11 C-6.94056541 10.44561629 -6.94056541 10.44561629 -9 10.625 C-9.680625 10.63789063 -10.36125 10.65078125 -11.0625 10.6640625 C-13.31939935 10.92086647 -13.31939935 10.92086647 -16 13 C-17.12183708 16.36551123 -17.20800968 19.09060232 -17.31640625 22.63671875 C-17.35830078 23.93544922 -17.40019531 25.23417969 -17.44335938 26.57226562 C-17.48316987 27.94400761 -17.52288216 29.31575244 -17.5625 30.6875 C-17.60570835 32.07097645 -17.64932339 33.45444027 -17.69335938 34.83789062 C-17.79958028 38.22515719 -17.90162358 41.61249799 -18 45 C-21.96 45 -25.92 45 -30 45 C-30 30.48 -30 15.96 -30 1 C-26.04 1 -22.08 1 -18 1 C-17.67 2.32 -17.34 3.64 -17 5 C-16.21625 4.360625 -15.4325 3.72125 -14.625 3.0625 C-9.87999209 -0.6657205 -5.88932601 -0.49832759 0 0 Z " fill="#060606" transform="translate(282,196)"/>
<path d="M0 0 C4.73355849 1.99307726 7.24446217 4.84902845 9.30859375 9.4609375 C11.24421019 16.56913347 11.26773508 25.5402336 8.0859375 32.3125 C5.87506851 35.74809498 3.72603275 38.20888952 0 40 C-5.57520725 40.97155086 -10.28902757 40.7332739 -15.5 38.5 C-21.36665383 32.63334617 -22.423464 27.4756885 -22.5625 19.5 C-22.52379964 13.70430862 -22.07695895 9.21324799 -18.484375 4.4453125 C-12.82836302 -1.06185706 -7.68550049 -0.83267564 0 0 Z " fill="#FAFAFA" transform="translate(146,191)"/>
<path d="M0 0 C0 3.63 0 7.26 0 11 C-1.5675 11.2475 -3.135 11.495 -4.75 11.75 C-8.96527266 12.59066965 -11.4474753 13.33768195 -14 17 C-15.03714522 20.11143567 -15.20031861 22.49468096 -15.31640625 25.76171875 C-15.35830078 26.87998047 -15.40019531 27.99824219 -15.44335938 29.15039062 C-15.48267578 30.31763672 -15.52199219 31.48488281 -15.5625 32.6875 C-15.60568359 33.86634766 -15.64886719 35.04519531 -15.69335938 36.25976562 C-15.79951094 39.17303626 -15.90026629 42.0865026 -16 45 C-19.96 45 -23.92 45 -28 45 C-28 30.48 -28 15.96 -28 1 C-24.04 1 -20.08 1 -16 1 C-15.67 2.65 -15.34 4.3 -15 6 C-14.05125 5.195625 -13.1025 4.39125 -12.125 3.5625 C-7.9899898 0.05673048 -5.491217 -0.1016892 0 0 Z " fill="#060606" transform="translate(203,196)"/>
<path d="M0 0 C3.5386994 1.65139305 4.81070153 2.71605229 7 6 C7.60756055 11.50641716 8.31685708 18.136203 5.94921875 23.28515625 C4.21856789 25.36295832 2.41695161 26.79152419 0 28 C-4.63554388 28.41204834 -7.30416098 27.87454146 -11 25 C-13.46113472 21.37714085 -13.33249954 17.85079606 -13.375 13.5625 C-13.40335938 12.26441406 -13.43171875 10.96632813 -13.4609375 9.62890625 C-12.93563878 5.49329175 -11.92094847 3.90466066 -9 1 C-5.93570224 -0.53214888 -3.3834358 -0.22938548 0 0 Z " fill="#F8F8F8" transform="translate(206,285)"/>
<path d="M0 0 C3.94237155 2.36542293 5.85997429 4.54353587 7 9 C7.66585663 14.88173353 6.23906013 19.15323119 3 24 C-0.46312775 25.73156388 -4.22214254 25.61171713 -8 25 C-11.26842559 21.97670633 -12.80872651 19.17021847 -13.203125 14.6953125 C-13.36198347 5.984573 -13.36198347 5.984573 -10 2 C-6.2626144 -0.4915904 -4.42668417 -0.45793285 0 0 Z " fill="#F7F7F7" transform="translate(323,205)"/>
<path d="M0 0 C0.99 0.495 0.99 0.495 2 1 C-1.75196463 4.82866729 -4.41035117 5.46555148 -9.53192139 5.51989746 C-10.3850592 5.50865845 -11.23819702 5.49741943 -12.1171875 5.48583984 C-13.0267218 5.48963654 -13.9362561 5.49343323 -14.87335205 5.49734497 C-17.87425426 5.50474305 -20.8741841 5.48337814 -23.875 5.4609375 C-25.96337775 5.45855251 -28.05175767 5.45764787 -30.14013672 5.4581604 C-34.51478528 5.45503365 -38.88910582 5.4384778 -43.26367188 5.41162109 C-48.86926095 5.37764166 -54.47448967 5.36999264 -60.08016968 5.37151146 C-64.39188065 5.37096741 -68.70351296 5.35999463 -73.01519775 5.34550858 C-75.08204554 5.33914741 -77.14890223 5.33520327 -79.21575928 5.33372116 C-82.10493119 5.32938097 -84.9937225 5.31186427 -87.8828125 5.29052734 C-89.16251923 5.2918869 -89.16251923 5.2918869 -90.46807861 5.29327393 C-94.7602265 5.24696365 -98.08722545 4.99035061 -102 3 C-101.67 2.34 -101.34 1.68 -101 1 C-100.01 1.33 -99.02 1.66 -98 2 C-95.02364336 2.10198128 -92.07060964 2.14682877 -89.09399414 2.14526367 C-88.1831456 2.14862228 -87.27229706 2.1519809 -86.33384705 2.15544128 C-83.31760298 2.16495395 -80.30141439 2.1668945 -77.28515625 2.16796875 C-75.191523 2.1711809 -73.09788998 2.17454494 -71.0042572 2.17805481 C-66.6135913 2.18404672 -62.22294509 2.18589462 -57.83227539 2.18530273 C-52.20190608 2.18520106 -46.57166272 2.19885839 -40.94132328 2.21607494 C-36.61681028 2.22718428 -32.29232785 2.22922228 -27.96780205 2.22869301 C-25.89174401 2.22987454 -23.81568521 2.23430596 -21.73964119 2.24202538 C-18.83813736 2.25180451 -15.93690849 2.24895549 -13.03540039 2.24291992 C-12.17552521 2.24853943 -11.31565002 2.25415894 -10.42971802 2.25994873 C-9.63762436 2.25575424 -8.8455307 2.25155975 -8.0294342 2.24723816 C-7.34382951 2.24778293 -6.65822481 2.24832769 -5.95184422 2.24888897 C-3.89830564 2.09798906 -3.89830564 2.09798906 -1.87316036 0.92204762 C-1.25501744 0.6177719 -0.63687452 0.31349619 0 0 Z " fill="#FFE1BD" transform="translate(368,128)"/>
<path d="M0 0 C1.125 3.75 1.125 3.75 0 6 C-0.09347492 8.99036723 -0.12572733 11.95730478 -0.11352539 14.94775391 C-0.11367142 15.87463516 -0.11381744 16.80151642 -0.1139679 17.75648499 C-0.11326946 20.8298677 -0.10548027 23.90319033 -0.09765625 26.9765625 C-0.09579182 29.10362719 -0.09436804 31.2306923 -0.09336853 33.35775757 C-0.08954528 38.96375712 -0.07971662 44.56973088 -0.06866455 50.17572021 C-0.0584463 55.89318493 -0.05387002 61.61065379 -0.04882812 67.328125 C-0.0380942 78.55209468 -0.02102007 89.7760452 0 101 C-3.84412057 97.15587943 -3.15419721 92.58890101 -3.16113281 87.49291992 C-3.16858017 86.18998741 -3.16858017 86.18998741 -3.17617798 84.86073303 C-3.19079597 81.98397024 -3.19760116 79.1072626 -3.203125 76.23046875 C-3.20887695 74.23130797 -3.21463467 72.2321472 -3.22039795 70.23298645 C-3.23090704 66.03902937 -3.23675025 61.84509145 -3.24023438 57.65112305 C-3.24571755 52.28096438 -3.26974226 46.91105946 -3.29820633 41.54098034 C-3.3168441 37.41025557 -3.32203893 33.27959177 -3.32357025 29.14882851 C-3.32659495 27.16931077 -3.33461731 25.18979406 -3.34775543 23.21031761 C-3.3648389 20.4384375 -3.36292999 17.66717529 -3.35644531 14.89526367 C-3.3656601 14.07998199 -3.37487488 13.26470032 -3.3843689 12.42471313 C-3.34857937 7.53303562 -2.59725126 4.2956665 0 0 Z " fill="#F2913C" transform="translate(261,21)"/>
<path d="M0 0 C0.17558828 4.47750118 0.25891958 8.04689074 -2 12 C-5.52894069 14.85029825 -9.69716391 14.34149493 -14 14 C-16.0625 12.9375 -16.0625 12.9375 -17 11 C-16.9375 7.4375 -16.9375 7.4375 -16 4 C-13.1437041 2.11933776 -10.20622014 1.50146826 -6.875 0.875 C-6.00617188 0.70742187 -5.13734375 0.53984375 -4.2421875 0.3671875 C-2 0 -2 0 0 0 Z " fill="#F4F4F4" transform="translate(233,220)"/>
<path d="M0 0 C0.33 0 0.66 0 1 0 C1.55789474 9.48421053 1.55789474 9.48421053 -2 14 C-4 16 -4 16 -6.27734375 16.265625 C-7.15519531 16.26046875 -8.03304688 16.2553125 -8.9375 16.25 C-9.81277344 16.25515625 -10.68804687 16.2603125 -11.58984375 16.265625 C-14 16 -14 16 -17 14 C-18.1875 10.875 -18.1875 10.875 -19 8 C-18.34 7.34 -17.68 6.68 -17 6 C-15.03365778 6.03277237 -13.06723905 6.06814897 -11.1015625 6.12890625 C-7.97247972 5.93697366 -5.68328797 4.53330741 -3 3 C-2.34 3 -1.68 3 -1 3 C-0.67 2.01 -0.34 1.02 0 0 Z " fill="#F1F1F1" transform="translate(329,233)"/>
<path d="M0 0 C3 2.25 3 2.25 5 5 C5 6.32 5 7.64 5 9 C-1.27 9 -7.54 9 -14 9 C-12 3 -12 3 -10.375 1.125 C-6.9142439 -0.51430552 -3.70215634 -0.79174829 0 0 Z " fill="#F7F7F7" transform="translate(302,285)"/>
<path d="M0 0 C2.572992 1.41880521 3.94002489 2.789295 6 5 C6 6.32 6 7.64 6 9 C-0.27 9 -6.54 9 -13 9 C-11 3 -11 3 -9.3125 1.125 C-5.93610951 -0.51756835 -3.71349299 -0.51220593 0 0 Z " fill="#F3F3F3" transform="translate(371,205)"/>
<path d="M0 0 C0.66 0 1.32 0 2 0 C1.99111755 1.13481812 1.98223511 2.26963623 1.9730835 3.43884277 C1.89188745 14.14964799 1.83198163 24.8603905 1.79275131 35.57143402 C1.77190433 41.0777014 1.74363918 46.5837197 1.69824219 52.08984375 C1.65468182 57.40666645 1.63084117 62.72325001 1.62049103 68.04023743 C1.61311798 70.06557477 1.59872011 72.09089949 1.57707977 74.11613464 C1.54791051 76.95986902 1.54404966 79.80262372 1.54589844 82.64648438 C1.53151733 83.47799011 1.51713623 84.30949585 1.50231934 85.16619873 C1.53820847 90.29045727 2.49821298 93.8242153 5.04330826 98.28586578 C6 100 6 100 7 103 C7.66 103.33 8.32 103.66 9 104 C8.01 104 7.02 104 6 104 C6 103.34 6 102.68 6 102 C3.525 102.495 3.525 102.495 1 103 C1.33 100.69 1.66 98.38 2 96 C1.34 96 0.68 96 0 96 C0 64.32 0 32.64 0 0 Z " fill="#FFF8E0" transform="translate(257,25)"/>
<path d="M0 0 C2.475 0.495 2.475 0.495 5 1 C4.67 1.99 4.34 2.98 4 4 C5.65 4 7.3 4 9 4 C9 4.66 9 5.32 9 6 C21.03933651 6.02316681 33.07866771 6.04093727 45.11802197 6.05181217 C50.70832799 6.05703148 56.29861877 6.06411191 61.88891602 6.07543945 C67.28350792 6.08630208 72.67808515 6.09228402 78.07268715 6.09487724 C80.13117008 6.09672539 82.1896522 6.10033432 84.24812889 6.10573006 C87.13052483 6.11298522 90.01286008 6.11398904 92.89526367 6.11352539 C93.74690598 6.11712067 94.59854828 6.12071594 95.47599792 6.12442017 C99.45318365 6.11749419 103.11773095 5.9910068 107 5 C104.47970216 7.58596708 102.48370624 8.22594606 98.99075317 8.38095093 C97.33133172 8.3987709 95.67168232 8.39996789 94.01220703 8.38818359 C93.10442505 8.39344055 92.19664307 8.39869751 91.26135254 8.40411377 C88.25999754 8.41731886 85.25917292 8.40857232 82.2578125 8.3984375 C80.17039895 8.40045844 78.08298609 8.40337004 75.99557495 8.40713501 C71.61921471 8.41155935 67.24303812 8.40512497 62.86669922 8.39111328 C57.26224157 8.37404263 51.6582156 8.38384859 46.05377388 8.40183067 C41.74202233 8.41268354 37.43037268 8.40921487 33.11861801 8.4014473 C31.05259017 8.39944835 28.98655302 8.40189381 26.92053604 8.40888596 C24.02896976 8.41652267 21.13809682 8.40486393 18.24658203 8.38818359 C16.96991165 8.39729263 16.96991165 8.39729263 15.66744995 8.40658569 C10.71677183 8.35379991 7.27685821 7.76846732 3 5 C1.125 2.3125 1.125 2.3125 0 0 Z " fill="#E17D24" transform="translate(261,123)"/>
<path d="M0 0 C0.33 1.32 0.66 2.64 1 4 C0.01 4.33 -0.98 4.66 -2 5 C-2.68550265 6.32374784 -3.34902524 7.65893547 -4 9 C-5.31618561 10.45413248 -6.6887883 11.85812815 -8.09765625 13.22265625 C-8.89880859 14.00833984 -9.69996094 14.79402344 -10.52539062 15.60351562 C-11.36263672 16.41498047 -12.19988281 17.22644531 -13.0625 18.0625 C-14.72462631 19.67367991 -16.38240142 21.28936445 -18.03515625 22.91015625 C-18.7712915 23.62308838 -19.50742676 24.33602051 -20.26586914 25.07055664 C-22.21558224 26.98180784 -22.21558224 26.98180784 -23 30 C-24.32 29.67 -25.64 29.34 -27 29 C-27 29.99 -27 30.98 -27 32 C-28.32 31.67 -29.64 31.34 -31 31 C-20.77 20.77 -10.54 10.54 0 0 Z " fill="#FEEED2" transform="translate(374,39)"/>
<path d="M0 0 C4.50593653 3.90514499 5.6251769 7.51679698 6.5 13.3125 C5.80632713 18.42833738 3.38291246 22.13506633 0 26 C-0.66 26 -1.32 26 -2 26 C-2 22.04 -2 18.08 -2 14 C-1.34 14 -0.68 14 0 14 C0 14.66 0 15.32 0 16 C0.66 16 1.32 16 2 16 C2.2396943 10.36718401 1.38529821 5.45461169 0 0 Z " fill="#F0841F" transform="translate(370,102)"/>
<path d="M0 0 C0.57641602 1.89086914 0.57641602 1.89086914 1 4 C-0.22265625 5.74609375 -0.22265625 5.74609375 -2.0625 7.4375 C-2.65160156 7.99308594 -3.24070312 8.54867187 -3.84765625 9.12109375 C-6.52621981 11.45936793 -9.26851917 13.72376597 -12 16 C7.8 16.495 7.8 16.495 28 17 C28 17.33 28 17.66 28 18 C13.48 18 -1.04 18 -16 18 C-14.31353217 14.62706435 -13.30850283 13.06653006 -10.7421875 10.546875 C-10.11699219 9.928125 -9.49179687 9.309375 -8.84765625 8.671875 C-8.19667969 8.03765625 -7.54570312 7.4034375 -6.875 6.75 C-6.21628906 6.1003125 -5.55757813 5.450625 -4.87890625 4.78125 C-3.25703357 3.18288273 -1.6306719 1.58938103 0 0 Z " fill="#F9D4A8" transform="translate(333,80)"/>
<path d="M0 0 C1.65 0 3.3 0 5 0 C2.525 3.465 2.525 3.465 0 7 C2.09637817 6.97643433 2.09637817 6.97643433 4.23510742 6.95239258 C9.42531562 6.89805091 14.6154987 6.86363425 19.8059082 6.83520508 C22.05139394 6.82012818 24.29685029 6.79966347 26.54223633 6.77368164 C29.77172099 6.73725082 33.00081594 6.72026245 36.23046875 6.70703125 C37.23272995 6.69154739 38.23499115 6.67606354 39.2676239 6.66011047 C44.330551 6.6588908 47.88716578 6.6643337 52 10 C51.34 10.33 50.68 10.66 50 11 C48.33077132 10.33977441 46.66443542 9.67221794 45 9 C42.60133665 8.67975094 42.60133665 8.67975094 40.11791992 8.68115234 C39.17732224 8.66128265 38.23672455 8.64141296 37.2676239 8.62094116 C35.7642321 8.60361435 35.7642321 8.60361435 34.23046875 8.5859375 C32.67625969 8.55688828 32.67625969 8.55688828 31.09065247 8.5272522 C27.78968471 8.46759643 24.48868181 8.42112669 21.1875 8.375 C18.94594855 8.33680737 16.70441158 8.29775489 14.46289062 8.2578125 C8.97538914 8.16190642 3.48780009 8.07681801 -2 8 C-2 4.23312136 -1.76462683 3.08809695 0 0 Z " fill="#EB801F" transform="translate(317,91)"/>
<path d="M0 0 C1.32 0.33 2.64 0.66 4 1 C-2.6 7.6 -9.2 14.2 -16 21 C-18 18 -18 18 -18 15 C-15.525 15.495 -15.525 15.495 -13 16 C-13 15.01 -13 14.02 -13 13 C-12.01 13 -11.02 13 -10 13 C-9.9175 12.236875 -9.835 11.47375 -9.75 10.6875 C-8.83456067 7.40717573 -7.91528755 6.6658786 -5 5 C-2.75 4.3125 -2.75 4.3125 -1 4 C-0.67 2.68 -0.34 1.36 0 0 Z " fill="#EA811C" transform="translate(357,52)"/>
<path d="M0 0 C0.33 0 0.66 0 1 0 C1 13.86 1 27.72 1 42 C4.96 42 8.92 42 13 42 C13 42.33 13 42.66 13 43 C8.71 43 4.42 43 0 43 C-0.33 31.78 -0.66 20.56 -1 9 C-1.99 9.495 -1.99 9.495 -3 10 C-2.01 6.7 -1.02 3.4 0 0 Z " fill="#A5A5A5" transform="translate(162,278)"/>
<path d="M0 0 C5.95903843 -0.07456924 11.91780075 -0.12879953 17.87719727 -0.16479492 C19.90133399 -0.17981245 21.92543855 -0.20023261 23.94946289 -0.22631836 C26.87133761 -0.26301267 29.79277935 -0.27979708 32.71484375 -0.29296875 C33.60896469 -0.30845261 34.50308563 -0.32393646 35.42430115 -0.33988953 C41.46227106 -0.34148002 46.39972015 0.749137 52 3 C52 3.99 52 4.98 52 6 C47 4 47 4 44.92895508 2.95556641 C40.7335361 1.5868184 36.71243452 1.64270716 32.32421875 1.5859375 C31.3990596 1.56657135 30.47390045 1.5472052 29.52070618 1.5272522 C26.57639683 1.46764746 23.63204798 1.42114752 20.6875 1.375 C18.68683225 1.33680264 16.68618064 1.29774988 14.68554688 1.2578125 C9.7904962 1.16196159 4.89536855 1.07786 0 1 C0 0.67 0 0.34 0 0 Z " fill="#FFF1D3" transform="translate(319,96)"/>
<path d="M0 0 C9.1190551 2.14054156 9.1190551 2.14054156 12.5625 5.5 C14.91998948 9.59998171 15.18692873 12.83272597 15.25 17.5 C15.28867187 19.21703125 15.28867187 19.21703125 15.328125 20.96875 C15 24 15 24 13.484375 25.90625 C12.99453125 26.2671875 12.5046875 26.628125 12 27 C12.165 26.195625 12.33 25.39125 12.5 24.5625 C12.665 23.386875 12.83 22.21125 13 21 C13.1546875 19.95005859 13.1546875 19.95005859 13.3125 18.87890625 C13.71651993 14.02225005 13.02939191 11.40471189 9.875 7.625 C6.89928927 4.58262365 4.0030073 2.56214919 0 1 C0 0.67 0 0.34 0 0 Z " fill="#E38B3B" transform="translate(374,0)"/>
<path d="M0 0 C0 3 0 3 -1.8125 4.875 C-2.534375 5.57625 -3.25625 6.2775 -4 7 C-4.45375 7.804375 -4.9075 8.60875 -5.375 9.4375 C-6.85722676 11.77485758 -7.95811368 12.92824299 -10.0625 14.625 C-13.11806718 16.85396953 -13.11806718 16.85396953 -15 20 C-16.32 19.67 -17.64 19.34 -19 19 C-18.49210937 18.57589844 -17.98421875 18.15179687 -17.4609375 17.71484375 C-13.40627238 14.26002609 -9.77318271 10.75467792 -6.38671875 6.64453125 C-4.39338819 4.28060965 -2.21788494 2.15265303 0 0 Z " fill="#E8862F" transform="translate(354,11)"/>
<path d="M0 0 C0.33 0 0.66 0 1 0 C1 13.53 1 27.06 1 41 C1.99 41 2.98 41 4 41 C3.67 41.99 3.34 42.98 3 44 C1.515 44.495 1.515 44.495 0 45 C0 30.15 0 15.3 0 0 Z " fill="#FED8AC" transform="translate(292,28)"/>
<path d="M0 0 C3.28925574 1.66642706 6.14110988 3.67974135 9 6 C8.01 6.495 8.01 6.495 7 7 C4.875 6.0625 4.875 6.0625 3 5 C3 4.34 3 3.68 3 3 C2.195625 3.020625 1.39125 3.04125 0.5625 3.0625 C-2 3 -2 3 -3 2 C-6.48880949 1.80617725 -9.60169639 2.22324489 -13 3 C-13 3.99 -13 4.98 -13 6 C-14.65 6.33 -16.3 6.66 -18 7 C-13.05784663 0.29279185 -8.23102696 -1.43773397 0 0 Z " fill="#E6852D" transform="translate(280,14)"/>
<path d="M0 0 C0.78375 0.04125 1.5675 0.0825 2.375 0.125 C-2.03343437 5.41512124 -6.70059794 10.31308428 -11.625 15.125 C-11.955 13.805 -12.285 12.485 -12.625 11.125 C-11.305 10.795 -9.985 10.465 -8.625 10.125 C-8.625 9.135 -8.625 8.145 -8.625 7.125 C-7.635 7.125 -6.645 7.125 -5.625 7.125 C-5.439375 5.949375 -5.439375 5.949375 -5.25 4.75 C-4.40872422 1.21664174 -3.69833563 0.17611122 0 0 Z " fill="#EA811E" transform="translate(336.625,73.875)"/>
<path d="M0 0 C0.66 0.33 1.32 0.66 2 1 C1.95875 1.886875 1.9175 2.77375 1.875 3.6875 C1.77972741 6.91483806 1.77972741 6.91483806 3.0625 9.25 C4.51931914 13.52333613 3.63305293 17.59429378 3 22 C2.34 22 1.68 22 1 22 C1.05220703 21.1646875 1.05220703 21.1646875 1.10546875 20.3125 C1.34136322 13.66252249 -0.01278512 8.97442976 -3 3 C-2.01 3 -1.02 3 0 3 C0 2.01 0 1.02 0 0 Z " fill="#FEF6DE" transform="translate(374,99)"/>
<path d="M0 0 C0.33 0.66 0.66 1.32 1 2 C-2.70927876 8.13457641 -7.2130719 11.77109101 -13 16 C-13.66 15.67 -14.32 15.34 -15 15 C-13.625 13.5 -13.625 13.5 -12 12 C-11.34 12 -10.68 12 -10 12 C-9.7525 11.443125 -9.505 10.88625 -9.25 10.3125 C-6.91513284 5.99299576 -4.05926394 2.75450053 0 0 Z " fill="#E88932" transform="translate(330,35)"/>
<path d="M0 0 C-3.06093224 3.93548431 -5.49115974 6.68116787 -10 9 C-10.4375 6.8125 -10.4375 6.8125 -10 4 C-6.84483974 0.78546844 -4.45282842 -1.48427614 0 0 Z " fill="#FEF4DB" transform="translate(325,41)"/>
<path d="M0 0 C0.99 0 1.98 0 3 0 C3.33 0.99 3.66 1.98 4 3 C3.2884375 3.928125 3.2884375 3.928125 2.5625 4.875 C0.6671046 7.45273775 0.73956012 8.87472142 1 12 C-1.6465335 9.3534665 -2.59941997 6.43778736 -4 3 C-3.01 3 -2.02 3 -1 3 C-0.67 2.01 -0.34 1.02 0 0 Z " fill="#FEF6E4" transform="translate(292,16)"/>
<path d="M0 0 C0.33 0 0.66 0 1 0 C1.05441656 1.89551022 1.09298035 3.7914792 1.125 5.6875 C1.14820313 6.74324219 1.17140625 7.79898437 1.1953125 8.88671875 C0.9948036 12.08283066 0.49234713 14.17837678 -1 17 C-4 19 -4 19 -7 19 C-7 17 -7 17 -4.5625 14.4375 C-3.716875 13.633125 -2.87125 12.82875 -2 12 C-0.26043342 10.26043342 -0.62809614 7.8063378 -0.4375 5.4375 C-0.35371094 4.42558594 -0.26992188 3.41367187 -0.18359375 2.37109375 C-0.12300781 1.58863281 -0.06242187 0.80617188 0 0 Z " fill="#FDDEB7" transform="translate(389,13)"/>
<path d="M0 0 C0.99 0.33 1.98 0.66 3 1 C0.03 3.97 -2.94 6.94 -6 10 C-6.33 8.68 -6.66 7.36 -7 6 C-5.90716423 4.96704564 -4.80029421 3.94892165 -3.6875 2.9375 C-3.07261719 2.36902344 -2.45773437 1.80054687 -1.82421875 1.21484375 C-0.92123047 0.61349609 -0.92123047 0.61349609 0 0 Z " fill="#FEF4DB" transform="translate(338,24)"/>
<path d="M0 0 C0.98484375 0.11085938 1.9696875 0.22171875 2.984375 0.3359375 C3.73203125 0.43132813 4.4796875 0.52671875 5.25 0.625 C5.25 0.955 5.25 1.285 5.25 1.625 C4.66992188 1.66238281 4.08984375 1.69976562 3.4921875 1.73828125 C-1.56678864 2.16403667 -5.29279158 2.99638991 -9.75 5.625 C-9.75 4.305 -9.75 2.985 -9.75 1.625 C-6.30824478 -0.52199969 -3.9779708 -0.47356795 0 0 Z " fill="#FEF4D7" transform="translate(273.75,12.375)"/>
<path d="M0 0 C1.98 0 3.96 0 6 0 C2 6.57142857 2 6.57142857 -2 8 C-1.47731534 5.23723823 -0.89130413 2.6739124 0 0 Z " fill="#FDF0D6" transform="translate(349,10)"/>
<path d="M0 0 C4.29 0 8.58 0 13 0 C12.34 1.32 11.68 2.64 11 4 C7.37 3.01 3.74 2.02 0 1 C0 0.67 0 0.34 0 0 Z " fill="#FAF2DE" transform="translate(376,0)"/>
<path d="M0 0 C-0.99 1.485 -0.99 1.485 -2 3 C-2.66 3 -3.32 3 -4 3 C-4.28875 3.639375 -4.5775 4.27875 -4.875 4.9375 C-6 7 -6 7 -8 8 C-8.36075949 3.55063291 -8.36075949 3.55063291 -6.8125 1.1875 C-4.44017475 -0.36678206 -2.77958655 -0.22537188 0 0 Z " fill="#EB8022" transform="translate(386,27)"/>
<path d="M0 0 C0 0.66 0 1.32 0 2 C-1.41478135 2.64995297 -2.83191487 3.29478722 -4.25 3.9375 C-5.43335938 4.47697266 -5.43335938 4.47697266 -6.640625 5.02734375 C-8.75823698 5.90033279 -10.76669362 6.51338508 -13 7 C-6.36842105 0 -6.36842105 0 0 0 Z " fill="#EB872D" transform="translate(372,0)"/>
<path d="M0 0 C2.475 0.495 2.475 0.495 5 1 C4.67 1.99 4.34 2.98 4 4 C5.65 4 7.3 4 9 4 C9 4.66 9 5.32 9 6 C10.32 6.66 11.64 7.32 13 8 C8.64546078 7.74385063 6.50390232 7.42722153 3.125 4.5625 C1 2 1 2 0 0 Z " fill="#EB842D" transform="translate(261,123)"/>
<path d="M0 0 C0.99 1.485 0.99 1.485 2 3 C2.70125 4.010625 3.4025 5.02125 4.125 6.0625 C6 9 6 9 6 11 C6.66 11.33 7.32 11.66 8 12 C7.01 12 6.02 12 5 12 C5 11.34 5 10.68 5 10 C3.35 10.33 1.7 10.66 0 11 C0 7.37 0 3.74 0 0 Z " fill="#FCE9C5" transform="translate(258,117)"/>
<path d="M0 0 C0.78375 0.04125 1.5675 0.0825 2.375 0.125 C1.42078192 1.27426266 0.46147955 2.41930541 -0.5 3.5625 C-1.03367187 4.20058594 -1.56734375 4.83867188 -2.1171875 5.49609375 C-3.625 7.125 -3.625 7.125 -5.625 8.125 C-4.59375 0.21875 -4.59375 0.21875 0 0 Z " fill="#EB8120" transform="translate(368.625,41.875)"/>
<path d="M0 0 C1.6286551 0.42369072 3.25287378 0.8644623 4.875 1.3125 C5.77992188 1.55613281 6.68484375 1.79976563 7.6171875 2.05078125 C10 3 10 3 12 6 C11.67 6.99 11.34 7.98 11 9 C10.29875 8.236875 9.5975 7.47375 8.875 6.6875 C6.03647396 4.03409522 3.53050949 2.55999257 0 1 C0 0.67 0 0.34 0 0 Z " fill="#EB852A" transform="translate(374,0)"/>
<path d="M0 0 C2.97903734 2.97903734 4 5.80285329 4 10 C2.68 10.33 1.36 10.66 0 11 C0 7.37 0 3.74 0 0 Z " fill="#E9E9E9" transform="translate(123,281)"/>
<path d="M0 0 C0.33 0.66 0.66 1.32 1 2 C-0.68474722 5.36949443 -1.8191658 6.87944386 -5 9 C-5.99 8.67 -6.98 8.34 -8 8 C-5.36 5.36 -2.72 2.72 0 0 Z " fill="#FDE9C5" transform="translate(342,71)"/>
<path d="M0 0 C0.66 0.33 1.32 0.66 2 1 C2 1.66 2 2.32 2 3 C0.03125 4.7265625 0.03125 4.7265625 -2.5 6.625 C-3.3353125 7.25664063 -4.170625 7.88828125 -5.03125 8.5390625 C-5.6809375 9.02117187 -6.330625 9.50328125 -7 10 C-7.66 9.67 -8.32 9.34 -9 9 C-6 6 -3 3 0 0 Z " fill="#EC872B" transform="translate(301,64)"/>
<path d="M0 0 C0.99 0.33 1.98 0.66 3 1 C2.0919838 2.13199353 1.17316174 3.25532363 0.25 4.375 C-0.26046875 5.00148438 -0.7709375 5.62796875 -1.296875 6.2734375 C-3.08199481 8.08312318 -4.67949644 9.00117455 -7 10 C-7 9.01 -7 8.02 -7 7 C-6.01 7 -5.02 7 -4 7 C-3.896875 6.401875 -3.79375 5.80375 -3.6875 5.1875 C-2.91123545 2.71756736 -1.92911079 1.67748765 0 0 Z " fill="#FCEED0" transform="translate(306,56)"/>
<path d="M0 0 C-3 2 -3 2 -7 2 C-7 2.99 -7 3.98 -7 5 C-8.65 5.33 -10.3 5.66 -12 6 C-6 -2.14285714 -6 -2.14285714 0 0 Z " fill="#EA8C36" transform="translate(274,15)"/>
<path d="M0 0 C0.33 0.66 0.66 1.32 1 2 C-0.98 4.97 -0.98 4.97 -3 8 C-4.32 7.67 -5.64 7.34 -7 7 C-4.66666667 4.66666667 -2.33333333 2.33333333 0 0 Z " fill="#E99040" transform="translate(330,35)"/>
<path d="M0 0 C0.66 0.33 1.32 0.66 2 1 C-1.0684847 3.97550031 -2.46236331 4.96474513 -6.8125 5.25 C-7.864375 5.1675 -8.91625 5.085 -10 5 C-6.76527494 2.84351662 -3.62848922 1.38542316 0 0 Z " fill="#FEEFD2" transform="translate(368,128)"/>
<path d="M0 0 C0.33 1.32 0.66 2.64 1 4 C0.34 4 -0.32 4 -1 4 C-1.33 4.99 -1.66 5.98 -2 7 C-3.32 6.67 -4.64 6.34 -6 6 C-4.02 4.02 -2.04 2.04 0 0 Z " fill="#FEEBCD" transform="translate(381,32)"/>
<path d="M0 0 C1.65 0 3.3 0 5 0 C3.35 1.98 1.7 3.96 0 6 C-1.125 2.25 -1.125 2.25 0 0 Z " fill="#E98228" transform="translate(373,35)"/>
<path d="M0 0 C0.33 0.66 0.66 1.32 1 2 C-0.4375 4.625 -0.4375 4.625 -2 7 C-2.99 6.67 -3.98 6.34 -5 6 C-3.35 4.02 -1.7 2.04 0 0 Z " fill="#E98B35" transform="translate(309,56)"/>
</svg>
