<svg width="380" height="280" viewBox="0 0 380 280" fill="none" xmlns="http://www.w3.org/2000/svg">
<g clip-path="url(#clip0_6_115)">
<path d="M189.486 128.91C196.175 128.91 201.597 123.237 201.597 116.238C201.597 109.24 196.175 103.567 189.486 103.567C182.797 103.567 177.375 109.24 177.375 116.238C177.375 123.237 182.797 128.91 189.486 128.91Z" fill="#4169E2"/>
<path d="M57.1978 16.6633V137.347C57.2011 140.278 58.3158 143.089 60.2971 145.162C62.2785 147.235 64.9648 148.402 67.7669 148.405H369.431C372.233 148.402 374.919 147.235 376.901 145.162C378.882 143.089 379.997 140.278 380 137.347V16.6633C379.997 13.7315 378.882 10.9208 376.901 8.84766C374.919 6.77456 372.233 5.60833 369.431 5.6048H67.7669C64.9648 5.60833 62.2785 6.77455 60.2971 8.84766C58.3158 10.9208 57.2011 13.7315 57.1978 16.6633ZM58.1294 16.6633C58.1294 13.9889 59.1447 11.4241 60.9521 9.53301C62.7595 7.64194 65.2108 6.57954 67.7669 6.57954H306.554C325.786 6.57954 344.23 14.5732 357.829 28.802C371.429 43.0307 379.068 62.3291 379.068 82.4516V137.347C379.068 140.021 378.053 142.586 376.246 144.477C374.438 146.368 371.987 147.43 369.431 147.43H67.7669C65.2108 147.43 62.7595 146.368 60.9521 144.477C59.1447 142.586 58.1294 140.021 58.1294 137.347V16.6633Z" fill="#3F3D56"/>
<path d="M60.6761 270.921L67.4335 270.921L70.648 243.649L60.6747 243.65L60.6761 270.921Z" fill="#FFB6B6"/>
<path d="M60.4381 278.297L81.2179 278.296V278.021C81.2178 275.777 80.3656 273.624 78.8488 272.037C77.332 270.45 75.2749 269.559 73.1298 269.559H73.1293L69.3337 266.546L62.2517 269.559L60.4378 269.559L60.4381 278.297Z" fill="#2F2E41"/>
<path d="M31.1991 270.921L37.9565 270.921L41.171 243.649L31.1977 243.65L31.1991 270.921Z" fill="#FFB6B6"/>
<path d="M30.9613 278.297L51.7411 278.296V278.021C51.741 275.777 50.8888 273.624 49.372 272.037C47.8552 270.45 45.7981 269.559 43.6531 269.559H43.6526L39.8569 266.546L32.775 269.559L30.961 269.559L30.9613 278.297Z" fill="#2F2E41"/>
<path d="M77.5012 122.327C77.5012 122.327 84.0027 143.22 82.8027 145.97C81.6026 148.72 79.5551 146.578 81.6026 148.72C83.6501 150.862 85.4374 148.585 83.52 152.223C81.6026 155.861 78.6978 185.81 77.4202 187.259C76.1427 188.709 74.3861 188.748 75.9469 190.157C77.5077 191.565 79.5552 188.709 77.5077 191.565C75.4602 194.422 70.0272 260.315 70.0272 260.315H59.4136C59.4136 260.315 56.7702 257.127 58.2666 255.052C59.7629 252.977 58.1352 252.178 58.2666 250.792C58.3979 249.407 57.9003 246.42 57.8079 245.057C57.7155 243.694 55.9218 211.225 60.2311 192.469L52.3731 156.756L42.8545 199.92C42.8545 199.92 47.2331 236.126 42.8545 247.765C42.8545 247.765 46.3846 250.841 44.819 252.623C43.2534 254.406 41.8885 252.977 43.2534 254.406C44.6184 255.834 41.206 260.832 41.206 260.832L29.6036 260.118L23.0367 192.469C23.0367 192.469 21.9297 185.414 23.0367 184.205C24.1437 182.996 24.1437 187.281 24.1437 182.996V177.284C24.1437 177.284 24.7849 142.147 24.8704 140.078C24.9559 138.008 33.1458 123.013 33.1458 123.013L77.5012 122.327Z" fill="#2F2E41"/>
<path d="M77.4044 50.1653V91.363C76.1333 95.3521 75.4776 99.5276 75.4619 103.732C75.5039 110.736 76.9758 118.807 76.9711 122.336C76.9908 122.804 76.9421 123.272 76.8267 123.725C70.3102 143.488 35.8267 125.528 32.6918 123.846C32.5428 123.768 32.4636 123.725 32.4636 123.725L33.1436 101.588L33.0272 95.2229L32.2214 51.5592L32.9433 50.9549L39.269 45.6766L39.8885 45.16L41.789 48.0599L58.7303 46.8414L65.1956 44.9699L67.2126 45.8277L76.305 49.6974L77.4044 50.1653Z" fill="#4169E2"/>
<path d="M136.447 82.5393L124.575 78.4324L121.387 85.2011L134.086 89.0759C134.501 89.7652 135.092 90.3198 135.792 90.6771C136.491 91.0345 137.273 91.1805 138.047 91.0988C138.822 91.0171 139.56 90.7109 140.177 90.2146C140.795 89.7184 141.268 89.0517 141.543 88.2895C141.819 87.5274 141.885 86.7 141.736 85.9004C141.586 85.1008 141.227 84.3607 140.697 83.7633C140.168 83.1659 139.489 82.7348 138.739 82.5186C137.988 82.3023 137.194 82.3095 136.447 82.5393Z" fill="#FFB6B6"/>
<path d="M65.9042 46.158L65.855 46.3636C64.9273 50.2468 63.7429 61.3384 66.281 64.3333C69.5402 68.184 95.8674 79.9395 101.097 78.9818C105.154 78.2389 104.319 78.4883 106.26 80.601C108.2 82.7136 104.979 83.2071 109.308 83.5767C113.638 83.9464 113.724 82.2118 114.651 84.1354C115.578 86.059 114.753 87.2182 117.7 87.1112C120.646 87.0042 121.385 87.5796 122.398 87.7686C123.412 87.9576 129.776 91.114 129.776 91.114C129.776 91.114 132.329 83.4932 135.543 80.5911C135.543 80.5911 128.173 79.6543 127.615 78.0184C127.057 76.3825 127.512 74.9356 125.58 75.2317C123.647 75.5277 122.641 77.7474 122.908 74.9523C123.175 72.1572 109.252 66.7158 109.252 66.7158C100.85 58.06 83.5867 52.0465 65.9042 46.158Z" fill="#4169E2"/>
<path d="M28.2371 132.2L27.6986 119.129L20.5192 118.409L21.5586 132.208C21.0897 132.858 20.8035 133.633 20.7322 134.444C20.6609 135.255 20.8074 136.071 21.155 136.8C21.5027 137.529 22.0378 138.143 22.7003 138.571C23.3627 138.999 24.1262 139.225 24.9049 139.225C25.6836 139.224 26.4466 138.996 27.1082 138.566C27.7698 138.136 28.3037 137.522 28.6499 136.792C28.9961 136.062 29.1409 135.246 29.068 134.435C28.9951 133.624 28.7073 132.85 28.2371 132.2Z" fill="#FFB6B6"/>
<path d="M35.7419 50.2871L35.5407 50.3119C33.6694 50.5429 31.88 51.2477 30.3276 52.3652C28.7752 53.4827 27.5065 54.9793 26.6313 56.7253C24.3455 61.2792 17.114 92.1221 18.8846 96.3547C20.5359 100.302 20.4676 99.3314 19.2676 101.979C18.0676 104.627 16.4846 101.65 17.689 106.017C18.8934 110.383 20.4742 109.853 19.0838 111.442C17.6934 113.031 16.3651 112.635 17.5052 115.48C18.6454 118.324 18.393 119.251 18.5834 120.309C18.7738 121.368 18.2092 128.714 18.2092 128.714C18.2092 128.714 25.9248 128.51 29.6575 130.625C29.6575 130.625 27.882 123.082 29.1461 121.956C30.4103 120.831 31.8649 120.764 30.9151 118.978C29.9653 117.192 27.6252 116.995 30.2177 116.265C32.8103 115.535 32.7373 99.9847 32.7373 99.9847L35.7419 50.2871Z" fill="#4169E2"/>
<path d="M54.2399 33.6287C53.9372 33.7018 53.6344 33.7652 53.3316 33.8139C52.4067 33.9729 51.4677 34.0236 50.5321 33.965C48.095 33.8281 45.7417 32.9876 43.7332 31.5366C41.7248 30.0856 40.1397 28.081 39.1537 25.7449C38.1678 23.4089 37.8195 20.8327 38.1475 18.3022C38.4755 15.7717 39.467 13.3856 41.012 11.4088C42.557 9.43185 44.5952 7.94134 46.9004 7.10251C49.2057 6.26367 51.6879 6.1093 54.0719 6.65652C56.4559 7.20374 58.6484 8.43115 60.4064 10.2026C62.1643 11.9741 63.4189 14.2205 64.0311 16.6925C64.0591 16.8046 64.087 16.9118 64.1103 17.0239C64.9051 20.5953 64.3118 24.3508 62.4609 27.4646C60.6099 30.5783 57.6529 32.7956 54.2399 33.6287Z" fill="#FFB6B6"/>
<path d="M42.0442 31.9972C40.2064 30.4923 40.028 27.6238 38.4596 25.8155C35.8374 22.7922 34.6054 19.5396 35.979 15.9573C37.194 12.7888 36.9357 8.89399 39.5524 6.8545C38.2672 6.36774 37.9648 5.35689 39.0987 5.33822C39.8634 5.32564 42.714 6.85477 41.3424 4.94988C39.9707 3.04498 42.5672 3.79688 42.3954 3.01715C42.2237 2.23741 41.1225 1.80553 40.6368 2.42362C42.1874 0.522568 45.5737 0.927869 46.674 3.1462C48.2195 0.722632 49.8601 -0.945013 52.2251 0.592981C54.5479 2.10352 54.5176 3.97077 57.0154 3.52202C58.1897 3.31107 58.3007 5.63234 59.1029 6.55406C59.9051 7.47578 61.0777 8.18914 62.2484 7.95764C63.4192 7.72615 64.3144 6.1996 63.6584 5.15895L66.4177 11.7454L67.5298 10.3182C69.2968 11.5231 68.7164 14.6672 66.9377 15.8532C65.159 17.0392 61.7644 14.298 60.7991 16.2601C59.2775 19.3531 55.7081 17.7912 53.2567 15.6054C50.284 12.9546 46.6959 21.0145 48.1279 24.8163C46.6421 23.2897 43.8935 24.5566 43.1238 26.581C42.3541 28.6055 42.9185 30.8864 43.489 32.9818L42.0442 31.9972Z" fill="#2F2E41"/>
<path d="M225.644 77.5056H211.662C211.299 77.5052 210.951 77.3542 210.695 77.0857C210.438 76.8173 210.294 76.4534 210.294 76.0738V61.6224C210.294 61.2428 210.438 60.8789 210.695 60.6104C210.951 60.342 211.299 60.191 211.662 60.1906H225.644C226.007 60.191 226.355 60.342 226.612 60.6104C226.868 60.8789 227.012 61.2428 227.013 61.6224V76.0738C227.012 76.4534 226.868 76.8173 226.612 77.0857C226.355 77.3542 226.007 77.5052 225.644 77.5056Z" fill="#F2F2F2"/>
<path d="M227.972 78.7234H213.99C213.627 78.723 213.279 78.572 213.023 78.3036C212.766 78.0352 212.622 77.6712 212.621 77.2916V62.8403C212.622 62.4606 212.766 62.0967 213.023 61.8283C213.279 61.5599 213.627 61.4089 213.99 61.4084H227.972C228.335 61.4089 228.683 61.5599 228.939 61.8283C229.196 62.0967 229.34 62.4606 229.341 62.8403V77.2916C229.34 77.6712 229.196 78.0351 228.939 78.3036C228.683 78.572 228.335 78.723 227.972 78.7234Z" fill="#F2F2F2"/>
<path d="M211.955 60.6172C211.623 60.6172 211.304 60.7554 211.069 61.0014C210.833 61.2474 210.701 61.5811 210.701 61.929V75.7671C210.701 76.115 210.833 76.4487 211.069 76.6947C211.304 76.9407 211.623 77.0789 211.955 77.0789H220.505C222.123 77.0789 223.674 76.4065 224.818 75.2095C225.962 74.0125 226.605 72.3891 226.605 70.6963V61.929C226.605 61.5811 226.473 61.2474 226.238 61.0014C226.003 60.7554 225.684 60.6172 225.351 60.6172H211.955Z" fill="white"/>
<path d="M222.398 64.8169H214.879C214.81 64.8169 214.744 64.7882 214.695 64.7371C214.646 64.6861 214.619 64.6169 214.619 64.5447C214.619 64.4725 214.646 64.4032 214.695 64.3522C214.744 64.3011 214.81 64.2725 214.879 64.2725H222.398C222.467 64.2725 222.533 64.3011 222.582 64.3522C222.631 64.4032 222.658 64.4725 222.658 64.5447C222.658 64.6169 222.631 64.6861 222.582 64.7371C222.533 64.7882 222.467 64.8169 222.398 64.8169Z" fill="#F2F2F2"/>
<path d="M222.398 70.6212H214.879C214.81 70.6212 214.744 70.5926 214.695 70.5415C214.646 70.4905 214.619 70.4212 214.619 70.349C214.619 70.2769 214.646 70.2076 214.695 70.1566C214.744 70.1055 214.81 70.0768 214.879 70.0768H222.398C222.467 70.0768 222.533 70.1055 222.582 70.1566C222.631 70.2076 222.658 70.2769 222.658 70.349C222.658 70.4212 222.631 70.4905 222.582 70.5415C222.533 70.5926 222.467 70.6212 222.398 70.6212Z" fill="#F2F2F2"/>
<path d="M225.451 67.721H211.826C211.757 67.721 211.691 67.6923 211.642 67.6413C211.593 67.5902 211.566 67.521 211.566 67.4488C211.566 67.3766 211.593 67.3073 211.642 67.2563C211.691 67.2052 211.757 67.1766 211.826 67.1766H225.451C225.52 67.1766 225.587 67.2052 225.635 67.2563C225.684 67.3073 225.712 67.3766 225.712 67.4488C225.712 67.521 225.684 67.5902 225.635 67.6413C225.587 67.6923 225.52 67.721 225.451 67.721Z" fill="#F2F2F2"/>
<path d="M225.591 72.9813H220.668C220.599 72.9813 220.533 72.9526 220.484 72.9016C220.435 72.8505 220.408 72.7813 220.408 72.7091C220.408 72.6369 220.435 72.5677 220.484 72.5166C220.533 72.4656 220.599 72.4369 220.668 72.4369H225.591C225.66 72.4369 225.726 72.4656 225.774 72.5166C225.823 72.5677 225.851 72.6369 225.851 72.7091C225.851 72.7813 225.823 72.8505 225.774 72.9016C225.726 72.9526 225.66 72.9813 225.591 72.9813Z" fill="#F2F2F2"/>
<path d="M183.475 86.552L183.294 86.4582C172.684 80.9698 161.205 80.9748 148.204 86.4732L147.855 85.5694C161.042 79.9929 172.713 79.9665 183.524 85.4906C198.739 79.4325 208.52 69.165 212.598 54.9694L213.49 55.2502C209.307 69.81 199.272 80.3163 183.665 86.4773L183.475 86.552Z" fill="#F2F2F2"/>
<path d="M227.736 86.5519L227.554 86.4625C217.126 81.3436 205.641 81.3484 192.443 86.4782L192.118 85.5643C205.485 80.3691 217.149 80.3439 227.767 85.4906C244.802 78.3689 254.581 68.1193 256.837 55.0233L257.754 55.1961C255.429 68.6933 245.392 79.2168 227.924 86.4741L227.736 86.5519Z" fill="#F2F2F2"/>
<path d="M262.619 86.0334L262.503 85.9816C253.911 82.1168 242.732 82.1249 227.325 86.0077L227.107 85.0601C242.651 81.143 253.984 81.1335 262.756 85.0344C280.167 82.8067 289.658 72.8384 291.768 54.5638L292.693 54.6809C290.519 73.51 280.722 83.7605 262.743 86.0177L262.619 86.0334Z" fill="#F2F2F2"/>
<path d="M216.969 57.2664C219.027 57.2664 220.695 55.5207 220.695 53.3674C220.695 51.214 219.027 49.4684 216.969 49.4684C214.911 49.4684 213.242 51.214 213.242 53.3674C213.242 55.5207 214.911 57.2664 216.969 57.2664Z" fill="#4169E2"/>
<path d="M258.891 57.2664C260.949 57.2664 262.617 55.5207 262.617 53.3674C262.617 51.214 260.949 49.4684 258.891 49.4684C256.833 49.4684 255.165 51.214 255.165 53.3674C255.165 55.5207 256.833 57.2664 258.891 57.2664Z" fill="#4169E2"/>
<path d="M292.429 56.779C294.487 56.779 296.155 55.0334 296.155 52.88C296.155 50.7267 294.487 48.981 292.429 48.981C290.371 48.981 288.702 50.7267 288.702 52.88C288.702 55.0334 290.371 56.779 292.429 56.779Z" fill="#4169E2"/>
<path d="M188.551 116.251H149.38C148.364 116.25 147.39 115.827 146.671 115.075C145.952 114.323 145.548 113.303 145.547 112.24V71.756C145.548 70.6925 145.952 69.673 146.671 68.921C147.39 68.169 148.364 67.7461 149.38 67.7449H188.551C189.567 67.7461 190.541 68.169 191.26 68.921C191.979 69.673 192.383 70.6925 192.384 71.756V112.24C192.383 113.304 191.979 114.323 191.26 115.075C190.541 115.827 189.567 116.25 188.551 116.251Z" fill="#E6E6E6"/>
<path d="M182.029 112.84H142.859C141.843 112.838 140.868 112.415 140.15 111.663C139.431 110.911 139.027 109.892 139.026 108.828V68.3443C139.027 67.2809 139.431 66.2614 140.15 65.5094C140.868 64.7574 141.843 64.3344 142.859 64.3333H182.029C183.046 64.3344 184.02 64.7574 184.739 65.5094C185.458 66.2614 185.862 67.2809 185.863 68.3443V108.828C185.862 109.892 185.458 110.911 184.739 111.663C184.02 112.415 183.046 112.838 182.029 112.84Z" fill="#E6E6E6"/>
<path d="M150.154 65.5283C147.505 65.5283 144.965 66.6291 143.093 68.5886C141.22 70.5481 140.168 73.2057 140.168 75.9768V107.969C140.168 108.452 140.259 108.93 140.435 109.376C140.612 109.822 140.87 110.227 141.196 110.568C141.523 110.909 141.91 111.18 142.336 111.365C142.762 111.549 143.219 111.644 143.68 111.644H167.632C169.876 111.644 172.098 111.182 174.171 110.283C176.245 109.385 178.129 108.068 179.715 106.407C181.302 104.747 182.561 102.776 183.42 100.606C184.279 98.4371 184.721 96.112 184.721 93.764V69.2032C184.721 68.2286 184.351 67.2939 183.692 66.6047C183.033 65.9155 182.14 65.5283 181.208 65.5283H150.154Z" fill="white"/>
<path d="M172.935 77.2932H151.871C151.678 77.2932 151.493 77.2129 151.356 77.0699C151.219 76.9269 151.142 76.7329 151.142 76.5307C151.142 76.3285 151.219 76.1345 151.356 75.9915C151.493 75.8485 151.678 75.7682 151.871 75.7682H172.935C173.128 75.7682 173.314 75.8485 173.45 75.9915C173.587 76.1345 173.664 76.3285 173.664 76.5307C173.664 76.7329 173.587 76.9269 173.45 77.0699C173.314 77.2129 173.128 77.2932 172.935 77.2932Z" fill="#E6E6E6"/>
<path d="M172.935 93.5538H151.871C151.775 93.554 151.68 93.5345 151.592 93.4963C151.503 93.4581 151.423 93.402 151.355 93.3311C151.287 93.2603 151.233 93.1762 151.196 93.0835C151.16 92.9909 151.141 92.8916 151.141 92.7913C151.141 92.691 151.16 92.5917 151.196 92.499C151.233 92.4064 151.287 92.3222 151.355 92.2514C151.423 92.1806 151.503 92.1244 151.592 92.0862C151.68 92.048 151.775 92.0285 151.871 92.0287H172.935C173.128 92.0293 173.313 92.1098 173.449 92.2528C173.586 92.3957 173.662 92.5894 173.662 92.7913C173.662 92.9932 173.586 93.1868 173.449 93.3298C173.313 93.4727 173.128 93.5533 172.935 93.5538Z" fill="#E6E6E6"/>
<path d="M181.489 85.4288H143.318C143.124 85.4288 142.939 85.3485 142.802 85.2055C142.666 85.0625 142.589 84.8686 142.589 84.6663C142.589 84.4641 142.666 84.2701 142.802 84.1271C142.939 83.9841 143.124 83.9038 143.318 83.9038H181.489C181.682 83.9038 181.867 83.9841 182.004 84.1271C182.141 84.2701 182.218 84.4641 182.218 84.6663C182.218 84.8686 182.141 85.0625 182.004 85.2055C181.867 85.3485 181.682 85.4288 181.489 85.4288Z" fill="#E6E6E6"/>
<path d="M181.879 100.165H168.089C167.993 100.165 167.899 100.146 167.81 100.107C167.722 100.069 167.641 100.013 167.574 99.942C167.506 99.8712 167.452 99.7871 167.416 99.6946C167.379 99.6021 167.36 99.5029 167.36 99.4028C167.36 99.3026 167.379 99.2035 167.416 99.111C167.452 99.0185 167.506 98.9344 167.574 98.8636C167.641 98.7928 167.722 98.7366 167.81 98.6983C167.899 98.66 167.993 98.6403 168.089 98.6403H181.879C182.072 98.6403 182.257 98.7206 182.394 98.8636C182.531 99.0066 182.607 99.2005 182.607 99.4028C182.607 99.605 182.531 99.799 182.394 99.942C182.257 100.085 182.072 100.165 181.879 100.165Z" fill="#E6E6E6"/>
<path d="M275.02 75.5561H261.037C260.674 75.5556 260.327 75.4046 260.07 75.1362C259.813 74.8678 259.669 74.5039 259.669 74.1243V59.6729C259.669 59.2933 259.813 58.9293 260.07 58.6609C260.327 58.3925 260.674 58.2415 261.037 58.2411H275.02C275.382 58.2415 275.73 58.3925 275.987 58.6609C276.243 58.9293 276.388 59.2933 276.388 59.6729V74.1243C276.388 74.5039 276.243 74.8678 275.987 75.1362C275.73 75.4046 275.382 75.5556 275.02 75.5561Z" fill="#F2F2F2"/>
<path d="M277.347 76.7739H263.365C263.002 76.7735 262.654 76.6225 262.398 76.3541C262.141 76.0856 261.997 75.7217 261.997 75.3421V60.8907C261.997 60.5111 262.141 60.1472 262.398 59.8788C262.654 59.6103 263.002 59.4593 263.365 59.4589H277.347C277.71 59.4593 278.058 59.6103 278.315 59.8788C278.571 60.1472 278.715 60.5111 278.716 60.8907V75.3421C278.715 75.7217 278.571 76.0856 278.315 76.354C278.058 76.6225 277.71 76.7735 277.347 76.7739Z" fill="#F2F2F2"/>
<path d="M261.33 58.6677C260.998 58.6677 260.679 58.8059 260.444 59.0519C260.209 59.2979 260.077 59.6316 260.077 59.9795V73.8177C260.077 74.1656 260.209 74.4993 260.444 74.7453C260.679 74.9913 260.998 75.1295 261.33 75.1295H269.88C271.498 75.1295 273.05 74.457 274.194 73.26C275.338 72.0631 275.98 70.4396 275.98 68.7469V59.9795C275.98 59.6316 275.848 59.2979 275.613 59.0519C275.378 58.8059 275.059 58.6677 274.727 58.6677H261.33Z" fill="white"/>
<path d="M271.773 62.8673H264.254C264.185 62.8673 264.119 62.8387 264.07 62.7876C264.021 62.7366 263.994 62.6673 263.994 62.5951C263.994 62.5229 264.021 62.4537 264.07 62.4027C264.119 62.3516 264.185 62.3229 264.254 62.3229H271.773C271.842 62.3229 271.908 62.3516 271.957 62.4027C272.006 62.4537 272.033 62.5229 272.033 62.5951C272.033 62.6673 272.006 62.7366 271.957 62.7876C271.908 62.8387 271.842 62.8673 271.773 62.8673Z" fill="#F2F2F2"/>
<path d="M271.773 68.6718H264.254C264.185 68.6718 264.119 68.6431 264.07 68.5921C264.021 68.541 263.994 68.4718 263.994 68.3996C263.994 68.3274 264.021 68.2581 264.07 68.2071C264.119 68.1561 264.185 68.1274 264.254 68.1274H271.773C271.842 68.1274 271.908 68.1561 271.957 68.2071C272.006 68.2581 272.033 68.3274 272.033 68.3996C272.033 68.4718 272.006 68.541 271.957 68.5921C271.908 68.6431 271.842 68.6718 271.773 68.6718Z" fill="#F2F2F2"/>
<path d="M274.827 65.7714H261.201C261.132 65.7714 261.066 65.7428 261.017 65.6917C260.968 65.6407 260.941 65.5714 260.941 65.4992C260.941 65.4271 260.968 65.3578 261.017 65.3068C261.066 65.2557 261.132 65.2271 261.201 65.2271H274.827C274.896 65.2271 274.962 65.2557 275.011 65.3068C275.059 65.3578 275.087 65.4271 275.087 65.4992C275.087 65.5714 275.059 65.6407 275.011 65.6917C274.962 65.7428 274.896 65.7714 274.827 65.7714Z" fill="#F2F2F2"/>
<path d="M274.966 71.0318H270.043C269.974 71.0318 269.908 71.0032 269.859 70.9521C269.811 70.9011 269.783 70.8318 269.783 70.7596C269.783 70.6874 269.811 70.6182 269.859 70.5672C269.908 70.5161 269.974 70.4874 270.043 70.4874H274.966C275.035 70.4874 275.101 70.5161 275.15 70.5672C275.198 70.6182 275.226 70.6874 275.226 70.7596C275.226 70.8318 275.198 70.9011 275.15 70.9521C275.101 71.0032 275.035 71.0318 274.966 71.0318Z" fill="#F2F2F2"/>
<path d="M114.732 271.552C114.516 271.563 114.301 271.503 114.118 271.382C113.935 271.261 113.792 271.083 113.708 270.874C113.625 270.665 113.605 270.434 113.651 270.212C113.697 269.991 113.807 269.789 113.966 269.635L114.039 269.334C114.029 269.31 114.019 269.286 114.01 269.262C113.792 268.723 113.426 268.263 112.959 267.941C112.492 267.618 111.945 267.447 111.385 267.45C110.826 267.452 110.279 267.627 109.815 267.953C109.35 268.279 108.988 268.741 108.774 269.282C107.917 271.44 106.827 273.602 106.558 275.884C106.44 276.893 106.49 277.915 106.706 278.906C104.694 274.315 103.65 269.325 103.643 264.275C103.642 263.007 103.71 261.741 103.845 260.482C103.956 259.449 104.11 258.424 104.308 257.406C105.386 251.883 107.701 246.707 111.062 242.303C112.689 241.374 114.005 239.946 114.832 238.21C115.131 237.587 115.343 236.921 115.461 236.233C115.277 236.259 114.769 233.334 114.907 233.155C114.651 232.749 114.194 232.547 113.914 232.151C112.525 230.18 110.611 230.524 109.612 233.202C107.478 234.329 107.457 236.198 108.766 237.996C109.6 239.14 109.714 240.688 110.445 241.912C110.37 242.013 110.292 242.11 110.217 242.211C108.842 244.061 107.643 246.047 106.639 248.142C106.883 245.795 106.592 243.422 105.788 241.216C104.974 239.161 103.447 237.43 102.103 235.653C101.748 235.176 101.265 234.819 100.716 234.629C100.167 234.439 99.5764 234.423 99.0189 234.584C98.4613 234.745 97.9618 235.075 97.5836 235.533C97.2053 235.991 96.9653 236.555 96.8938 237.156C96.891 237.182 96.8883 237.208 96.8857 237.234C97.0853 237.352 97.2808 237.477 97.472 237.61C97.7122 237.778 97.8983 238.018 98.006 238.298C98.1136 238.579 98.1378 238.886 98.0753 239.182C98.0128 239.477 97.8666 239.745 97.6558 239.952C97.445 240.159 97.1794 240.294 96.8939 240.34L96.8647 240.345C96.9358 241.097 97.0615 241.843 97.2407 242.576C95.5164 249.554 99.2391 252.095 104.555 252.209C104.672 252.272 104.786 252.335 104.904 252.395C103.894 255.387 103.261 258.505 103.02 261.668C102.884 263.535 102.892 265.41 103.044 267.275L103.035 267.209C102.65 265.135 101.593 263.263 100.042 261.911C97.738 259.931 94.4833 259.201 91.9981 257.61C91.7339 257.433 91.4268 257.338 91.1129 257.337C90.7991 257.336 90.4915 257.429 90.2266 257.605C89.9616 257.781 89.7503 258.033 89.6176 258.331C89.4849 258.628 89.4363 258.96 89.4775 259.285L89.4877 259.355C89.8581 259.512 90.2189 259.694 90.5677 259.899C90.7674 260.017 90.9628 260.142 91.154 260.274C91.3942 260.442 91.5803 260.682 91.688 260.963C91.7957 261.243 91.8198 261.551 91.7573 261.846C91.6948 262.141 91.5486 262.41 91.3378 262.617C91.127 262.823 90.8614 262.958 90.5759 263.005L90.5466 263.009C90.5256 263.012 90.5075 263.016 90.4865 263.019C91.1195 264.6 92.008 266.056 93.113 267.322C94.1911 273.413 98.8219 273.99 103.775 272.217H103.778C104.322 274.688 105.109 277.093 106.128 279.394H114.522C114.552 279.296 114.579 279.196 114.606 279.098C113.829 279.149 113.049 279.101 112.284 278.953C112.906 278.154 113.529 277.348 114.152 276.548C114.166 276.533 114.179 276.518 114.191 276.501C114.507 276.092 114.826 275.686 115.142 275.277L115.142 275.276C115.159 274.022 115.021 272.77 114.732 271.552Z" fill="#F2F2F2"/>
<path d="M6.26941e-06 279.42C-0.000210831 279.496 0.0139747 279.572 0.0417563 279.642C0.069538 279.713 0.110363 279.777 0.161882 279.831C0.213401 279.885 0.2746 279.927 0.341953 279.956C0.409307 279.985 0.481486 280 0.554343 280H118.538C118.685 280 118.826 279.939 118.93 279.83C119.034 279.721 119.092 279.574 119.092 279.42C119.092 279.266 119.034 279.119 118.93 279.01C118.826 278.901 118.685 278.84 118.538 278.84H0.554343C0.481487 278.84 0.409305 278.855 0.341953 278.884C0.274601 278.913 0.213408 278.956 0.161889 279.009C0.110371 279.063 0.069546 279.127 0.0417635 279.198C0.0139809 279.268 -0.000208358 279.344 6.26941e-06 279.42Z" fill="#CCCCCC"/>
<path d="M50.5321 33.965L53.3316 33.814C52.4067 33.9729 51.4677 34.0236 50.5321 33.965Z" fill="#F2F2F2"/>
<path d="M67.2127 45.8277L66.7516 46.4418L65.5125 48.0891L54.813 62.3252L39.2691 45.6766L39.8887 45.16L43.1866 37.825L60.1279 36.6066L65.1958 44.9699L67.2127 45.8277Z" fill="#3F3D56"/>
</g>
<defs>
<clipPath id="clip0_6_115">
<rect width="380" height="280" fill="white"/>
</clipPath>
</defs>
</svg>
