<svg width="380" height="280" viewBox="0 0 380 280" fill="none" xmlns="http://www.w3.org/2000/svg">
<g clip-path="url(#clip0_7_161)">
<path d="M182.359 262.674L181.875 255.649C181.825 255.632 181.774 255.615 181.724 255.598C176.534 253.841 170.587 257.021 172.244 260.647C173.804 264.059 174.852 267.738 177.706 270.724C179.393 272.459 181.663 273.926 184.348 275.018C187.034 276.11 190.065 276.797 193.219 277.03L199.812 279.635C200.716 276.381 200.517 273.04 199.227 269.84C197.937 266.641 195.588 263.661 192.34 261.104C190.497 259.681 188.382 258.414 186.048 257.332C184.469 260.018 182.359 262.674 182.359 262.674Z" fill="#F2F2F2"/>
<path d="M123.331 191.384C110.638 182.939 92.2439 178.096 72.8652 178.096L72.1177 178.097C59.3534 178.101 46.8169 175.917 35.7903 171.769L34.6429 171.337L35.5671 170.723C40.5703 167.384 44.7479 163.568 47.9537 159.41C45.6769 160.779 42.9613 161.809 39.9992 162.426C37.0371 163.043 33.9008 163.233 30.8124 162.982C27.5518 162.731 24.4216 162.007 21.6565 160.865C18.8914 159.722 16.5632 158.191 14.8467 156.385C8.0736 149.295 0 139.236 0 131.572C0.0105433 125.095 2.11289 118.69 6.17305 112.766C10.2332 106.841 16.1621 101.528 23.5818 97.1636C28.2791 94.4312 32.0311 91.0909 34.5931 87.3603C37.155 83.6297 38.4695 79.5927 38.4508 75.5124L38.447 74.9318C38.4458 69.5598 39.4634 64.208 41.4771 58.9955L41.6816 58.4691L42.5211 58.488C47.9346 58.6069 53.3509 58.3141 58.6583 57.6159C53.68 57.2219 48.8098 56.3863 44.186 55.1327L43.2829 54.897L43.5893 54.3C64.7166 45.8611 112.407 50.2312 140.088 9.37458C162.533 -23.7546 241.728 38.7833 241.728 74.9318C241.728 78.6203 236.07 83.4946 240.305 85.9325C286.096 112.287 254.501 129.21 244.54 146.238C242.176 150.279 247.301 154.714 247.301 159.085C247.301 159.827 247.272 160.592 247.214 161.36L247.126 162.542L245.599 161.886C242.578 160.61 239.779 159.128 237.248 157.467C239.874 161.366 241.111 165.594 240.869 169.842C240.627 174.09 238.912 178.248 235.85 182.012C231.051 187.855 226.408 192.038 222.051 194.444C208.093 202.15 190.1 206.125 171.75 205.556C153.4 204.987 136.08 199.918 123.331 191.384Z" fill="#E6E6E6"/>
<path d="M199.994 279.288C200.306 279.288 200.608 279.215 200.843 279.083C201.079 278.951 201.233 278.768 201.277 278.569C201.332 278.319 206.729 253.208 201.882 219.834C197.405 189.012 183.029 144.618 139.965 108.157C139.862 108.07 139.733 107.996 139.585 107.941C139.438 107.886 139.275 107.849 139.106 107.835C138.938 107.82 138.766 107.827 138.601 107.855C138.436 107.883 138.282 107.932 138.146 107.998C138.01 108.065 137.896 108.148 137.811 108.243C137.725 108.338 137.669 108.443 137.647 108.552C137.624 108.661 137.635 108.772 137.678 108.878C137.722 108.985 137.798 109.084 137.901 109.172C180.594 145.317 194.854 189.386 199.299 219.99C204.118 253.17 198.763 278.085 198.709 278.333C198.683 278.452 198.696 278.573 198.749 278.688C198.802 278.803 198.892 278.909 199.014 279C199.136 279.09 199.286 279.163 199.456 279.213C199.625 279.262 199.808 279.288 199.994 279.288Z" fill="#3F3D56"/>
<path d="M164.851 159.586C165.125 159.586 165.392 159.531 165.614 159.427C165.835 159.323 166.001 159.177 166.085 159.009C166.17 158.841 166.17 158.659 166.086 158.491C166.001 158.323 165.836 158.177 165.615 158.073C165.458 158 149.704 150.677 126.152 145.113C104.379 139.971 71.271 135.309 37.1867 142.307C37.0242 142.341 36.8734 142.394 36.743 142.465C36.6125 142.536 36.505 142.622 36.4266 142.72C36.3481 142.818 36.3003 142.924 36.2858 143.034C36.2714 143.144 36.2905 143.254 36.3422 143.359C36.3939 143.463 36.4771 143.561 36.5871 143.645C36.6971 143.729 36.8317 143.798 36.9832 143.848C37.1347 143.899 37.3001 143.929 37.47 143.939C37.6399 143.948 37.8109 143.935 37.9733 143.902C71.3593 137.047 103.867 141.632 125.26 146.685C148.476 152.169 163.936 159.355 164.09 159.426C164.311 159.53 164.577 159.586 164.851 159.586Z" fill="#3F3D56"/>
<path d="M224.211 64.2099C224.231 64.0336 224.164 63.8578 224.019 63.7076C223.875 63.5575 223.66 63.4407 223.407 63.374C223.153 63.3074 222.873 63.2943 222.607 63.3366C222.341 63.3789 222.103 63.4745 221.926 63.6096C221.801 63.7049 209.345 73.3145 199.047 88.0684C189.529 101.707 179.937 122.675 188.302 145.11C188.383 145.326 188.593 145.512 188.886 145.628C189.18 145.744 189.532 145.78 189.867 145.728C190.201 145.676 190.49 145.541 190.669 145.351C190.849 145.162 190.905 144.935 190.824 144.719C182.631 122.743 192.061 102.156 201.413 88.7554C211.563 74.2121 223.787 64.7819 223.909 64.6883C224.086 64.5535 224.191 64.3859 224.211 64.2099Z" fill="#3F3D56"/>
<path d="M222.456 107.353C223.55 113.048 229.668 117.745 238.564 117.745C242.836 117.745 246.933 116.65 249.954 114.701C252.975 112.752 254.672 110.109 254.672 107.353C254.672 101.614 247.422 97.4918 238.564 96.9612C229.165 96.3982 221.051 100.04 222.456 107.353Z" fill="#2F2E41"/>
<path d="M246.025 274.711L252.159 274.711L255.077 259.447L246.023 259.447L246.025 274.711Z" fill="#FFB6B6"/>
<path d="M245.809 278.839L264.672 278.839V278.685C264.672 277.428 263.899 276.224 262.522 275.336C261.145 274.447 259.277 273.948 257.33 273.948L253.884 272.262L247.455 273.948L245.809 273.948L245.809 278.839Z" fill="#2F2E41"/>
<path d="M221.862 274.711L227.996 274.711L230.915 259.447L221.861 259.447L221.862 274.711Z" fill="#FFB6B6"/>
<path d="M221.647 278.839L240.51 278.839V278.685C240.51 277.428 239.736 276.224 238.359 275.336C236.983 274.447 235.115 273.948 233.168 273.948L229.722 272.262L223.293 273.948L221.646 273.948L221.647 278.839Z" fill="#2F2E41"/>
<path d="M267.134 179.111L271.471 188.703L266.362 229.329C266.362 229.329 268.992 231.869 267.134 231.869C265.275 231.869 262.892 232.432 264.393 233.949C265.895 235.466 260.763 240.912 260.763 240.912L253.504 269.838L244.254 269.75C244.254 269.75 239.552 268.06 242.191 266.351C244.83 264.642 246.689 264.643 244.211 263.044C241.732 261.445 241.732 261.927 241.732 260.687C241.732 259.447 239.25 244.293 245.138 238.481L243.363 214.782L239.185 238.028L230.581 269.039L221.67 268.992C221.67 268.992 217.555 266.433 217.563 264.538C217.57 262.644 220.105 262.487 218.218 261.366C216.331 260.246 216.331 243.035 221.907 233.467C221.907 233.467 225.061 228.122 221.9 226.291C218.739 224.459 221.896 222.363 221.896 222.363C221.896 222.363 226.903 221.195 221.891 217.831C216.88 214.467 221.864 190.673 221.864 190.673C221.864 190.673 216.386 181.069 221.934 177.292C227.483 173.516 267.134 179.111 267.134 179.111Z" fill="#2F2E41"/>
<path d="M189.892 195.638L197.63 183.574L203.726 185.759L200.045 198.031C200.413 198.808 200.439 199.637 200.118 200.423C199.796 201.209 199.142 201.922 198.227 202.481C197.313 203.04 196.174 203.424 194.94 203.589C193.706 203.754 192.425 203.693 191.242 203.414C190.058 203.135 189.018 202.649 188.24 202.01C187.461 201.37 186.974 200.604 186.834 199.796C186.694 198.988 186.906 198.17 187.446 197.436C187.986 196.701 188.833 196.079 189.892 195.638Z" fill="#FFB6B6"/>
<path d="M319.733 100.246L307.96 110.864L302.789 107.845L310.685 96.4311C310.599 95.62 310.865 94.8094 311.454 94.0906C312.043 93.3718 312.931 92.7732 314.018 92.3621C315.106 91.951 316.349 91.7437 317.609 91.7635C318.869 91.7833 320.095 92.0295 321.15 92.4742C322.205 92.919 323.047 93.5448 323.581 94.2813C324.114 95.0178 324.319 95.8357 324.172 96.6431C324.025 97.4506 323.531 98.2155 322.747 98.852C321.963 99.4884 320.919 99.9711 319.733 100.246Z" fill="#FFB6B6"/>
<path d="M268.302 180.095C275.938 187.736 237.553 197.433 222.825 193.54C220.246 192.858 211.374 190.606 217.438 187.485C223.502 184.363 216.735 183.924 216.575 181.892C216.468 180.533 218.099 177.553 216.397 177.681C214.696 177.808 212.705 175.93 216.41 175.121C220.115 174.313 216.45 173.575 216.482 172.808C216.837 164.432 226.798 151.11 226.798 151.11L208.849 180.709C208.849 180.709 208.981 185.83 206.693 184.265C204.404 182.701 204.57 187.765 204.57 187.765C204.57 187.765 201.167 189.298 203.124 190.15C205.081 191.003 201.017 193.625 201.017 193.625L191.534 193.188C191.534 193.188 191.682 188.643 193.301 187.638C194.92 186.633 194.125 185.052 194.125 185.052C194.125 185.052 198.341 182.644 195.515 180.69C191.88 178.176 205.132 135.714 209.706 136.134C210.353 134.104 211.857 132.229 214.052 130.716C216.248 129.203 219.049 128.111 222.147 127.56L232.389 125.741L234.208 121.086H248.63L251.142 124.145L262.107 127.337C264.172 125.457 265.715 123.476 274.173 122.834C274.173 122.834 296.961 109.458 295.848 108.413C294.736 107.369 298.268 104.924 298.268 104.924C298.268 104.924 301.285 104.287 299.583 103.947C297.881 103.607 301.098 102.82 301.098 102.82C301.098 102.82 304.079 102.315 302.673 101.65C301.267 100.985 307.364 100.548 307.364 100.548L315.273 104.711L313.675 106.46C313.675 106.46 314.65 108.841 313.377 107.972C312.105 107.102 311.866 109.625 311.866 109.625C311.866 109.625 311.216 112.388 307.364 113.22C303.511 114.053 300.59 121.96 300.59 121.96C291.505 129.581 280.782 135.526 268.076 139.439C273.028 143.106 268.302 180.095 268.302 180.095Z" fill="#4169E2"/>
<path d="M240.345 118.362C248.233 118.362 254.629 114.236 254.629 109.147C254.629 104.057 248.233 99.9318 240.345 99.9318C232.456 99.9318 226.061 104.057 226.061 109.147C226.061 114.236 232.456 118.362 240.345 118.362Z" fill="#FFB6B6"/>
<path d="M225.554 110.151C226.006 112.153 228.651 114.947 228.032 114.947C227.412 114.947 223.007 106.692 227.412 106.154C230.607 105.763 231.322 106.106 234.308 105.271L233.886 105.526C235.863 106.454 238.614 105.882 240.869 105.279C243.13 104.679 245.875 104.107 247.857 105.031C249.102 105.61 249.629 106.617 250.404 107.473C251.178 108.332 252.609 109.143 254.084 108.88C255.267 108.668 255.948 107.813 255.942 107.021C255.936 106.23 254.339 105.477 254.877 104.767C256.471 102.663 255.037 101.229 251.562 100.239C250.298 100.115 249.034 99.9881 247.77 99.8589C248.433 99.2671 249.236 98.7465 250.15 98.3161C249.763 97.6775 249.096 97.1259 248.229 96.7294C247.219 96.3417 245.968 96.3697 244.797 96.4097C242.182 96.4976 239.57 96.5855 236.959 96.6735C235.026 96.7374 233.025 96.8133 231.297 97.3849C229.141 98.1003 227.728 99.4952 226.7 100.914C224.395 104.104 224.761 106.669 225.554 110.151Z" fill="#2F2E41"/>
<path d="M166.133 279.877L306.615 280C306.81 280 306.998 279.95 307.136 279.861C307.275 279.771 307.352 279.65 307.352 279.524C307.352 279.398 307.275 279.277 307.136 279.188C306.998 279.098 306.81 279.048 306.615 279.048L166.133 278.925C165.937 278.925 165.749 278.976 165.611 279.065C165.473 279.154 165.395 279.275 165.395 279.401C165.395 279.528 165.473 279.649 165.611 279.738C165.749 279.827 165.937 279.877 166.133 279.877Z" fill="#CACACA"/>
<path d="M115.324 238.394C115.583 237.246 113.719 236.12 111.16 235.88C108.601 235.64 106.317 236.376 106.058 237.524C105.799 238.673 107.663 239.798 110.222 240.038C112.781 240.278 115.065 239.542 115.324 238.394Z" fill="#E6E6E6"/>
<path d="M145.788 236.476C146.047 235.328 144.182 234.202 141.624 233.962C139.065 233.722 136.781 234.458 136.522 235.607C136.263 236.755 138.127 237.88 140.686 238.121C143.245 238.361 145.529 237.625 145.788 236.476Z" fill="#3F3D56"/>
<path d="M106.982 222.483C107.241 221.335 105.377 220.21 102.818 219.969C100.259 219.729 97.975 220.466 97.7161 221.614C97.4571 222.762 99.3213 223.888 101.88 224.128C104.439 224.368 106.723 223.632 106.982 222.483Z" fill="#FF6584"/>
<path d="M93.7445 215.966C93.7568 214.912 92.8453 214.053 91.7086 214.048C90.5718 214.042 89.6403 214.892 89.6279 215.946C89.6156 217 90.5271 217.859 91.6638 217.865C92.8006 217.871 93.7321 217.02 93.7445 215.966Z" fill="#E6E6E6"/>
<path d="M89.2554 203.827C89.2678 202.773 88.3563 201.914 87.2195 201.909C86.0828 201.903 85.1512 202.753 85.1389 203.807C85.1265 204.861 86.038 205.721 87.1748 205.726C88.3115 205.732 89.243 204.882 89.2554 203.827Z" fill="#3F3D56"/>
<path d="M124.164 225.191C124.176 224.137 123.265 223.278 122.128 223.272C120.991 223.267 120.06 224.117 120.047 225.171C120.035 226.225 120.946 227.084 122.083 227.09C123.22 227.095 124.151 226.245 124.164 225.191Z" fill="#E6E6E6"/>
<path d="M109.442 229.933C109.455 228.879 108.543 228.02 107.406 228.014C106.27 228.009 105.338 228.859 105.326 229.913C105.313 230.967 106.225 231.826 107.362 231.832C108.498 231.837 109.43 230.987 109.442 229.933Z" fill="#FF6584"/>
<path d="M129.935 238.697C129.948 237.643 129.036 236.784 127.899 236.778C126.763 236.773 125.831 237.623 125.819 238.677C125.806 239.731 126.718 240.59 127.855 240.596C128.991 240.601 129.923 239.751 129.935 238.697Z" fill="#3F3D56"/>
<path d="M349.512 176.843C349.771 175.695 347.907 174.57 345.348 174.329C342.789 174.089 340.505 174.825 340.246 175.974C339.987 177.122 341.852 178.247 344.41 178.488C346.969 178.728 349.253 177.992 349.512 176.843Z" fill="#E6E6E6"/>
<path d="M379.976 174.926C380.235 173.777 378.371 172.652 375.812 172.412C373.253 172.171 370.969 172.908 370.71 174.056C370.451 175.204 372.315 176.33 374.874 176.57C377.433 176.81 379.717 176.074 379.976 174.926Z" fill="#3F3D56"/>
<path d="M341.17 160.933C341.429 159.785 339.564 158.659 337.006 158.419C334.447 158.179 332.163 158.915 331.904 160.063C331.645 161.211 333.509 162.337 336.068 162.577C338.626 162.817 340.911 162.081 341.17 160.933Z" fill="#FF6584"/>
<path d="M327.933 154.416C327.945 153.361 327.034 152.502 325.897 152.497C324.76 152.491 323.829 153.341 323.816 154.396C323.804 155.45 324.715 156.309 325.852 156.314C326.989 156.32 327.92 155.47 327.933 154.416Z" fill="#E6E6E6"/>
<path d="M323.444 142.277C323.456 141.223 322.544 140.364 321.408 140.358C320.271 140.352 319.339 141.202 319.327 142.257C319.315 143.311 320.226 144.17 321.363 144.175C322.5 144.181 323.431 143.331 323.444 142.277Z" fill="#3F3D56"/>
<path d="M358.352 163.64C358.364 162.586 357.453 161.727 356.316 161.722C355.179 161.716 354.248 162.566 354.236 163.62C354.223 164.674 355.135 165.534 356.271 165.539C357.408 165.545 358.34 164.695 358.352 163.64Z" fill="#E6E6E6"/>
<path d="M343.63 168.382C343.643 167.328 342.731 166.469 341.595 166.463C340.458 166.458 339.526 167.308 339.514 168.362C339.502 169.416 340.413 170.275 341.55 170.281C342.687 170.286 343.618 169.436 343.63 168.382Z" fill="#FF6584"/>
<path d="M364.123 177.146C364.136 176.092 363.224 175.233 362.087 175.227C360.951 175.222 360.019 176.072 360.007 177.126C359.994 178.18 360.906 179.039 362.043 179.045C363.179 179.05 364.111 178.2 364.123 177.146Z" fill="#3F3D56"/>
<path d="M236.135 62.9347C236.394 61.7864 234.53 60.6608 231.971 60.4207C229.412 60.1805 227.128 60.9167 226.869 62.0649C226.61 63.2132 228.475 64.3388 231.033 64.579C233.592 64.8191 235.876 64.0829 236.135 62.9347Z" fill="white"/>
<path d="M266.599 61.017C266.858 59.8687 264.994 58.7431 262.435 58.503C259.877 58.2628 257.592 58.999 257.333 60.1472C257.074 61.2955 258.939 62.4211 261.497 62.6612C264.056 62.9014 266.34 62.1652 266.599 61.017Z" fill="#3F3D56"/>
<path d="M227.793 47.0241C228.052 45.8759 226.188 44.7503 223.629 44.5101C221.071 44.27 218.786 45.0061 218.527 46.1544C218.268 47.3027 220.133 48.4283 222.691 48.6684C225.25 48.9086 227.534 48.1724 227.793 47.0241Z" fill="#FF6584"/>
<path d="M214.556 40.507C214.568 39.4528 213.657 38.5937 212.52 38.5882C211.383 38.5826 210.452 39.4327 210.439 40.4869C210.427 41.5411 211.339 42.4001 212.475 42.4057C213.612 42.4112 214.544 41.5611 214.556 40.507Z" fill="#E6E6E6"/>
<path d="M210.067 28.3681C210.079 27.3139 209.168 26.4548 208.031 26.4493C206.894 26.4437 205.963 27.2938 205.95 28.348C205.938 29.4021 206.849 30.2612 207.986 30.2668C209.123 30.2723 210.054 29.4222 210.067 28.3681Z" fill="#3F3D56"/>
<path d="M244.975 49.7317C244.988 48.6775 244.076 47.8185 242.939 47.8129C241.803 47.8074 240.871 48.6575 240.859 49.7116C240.846 50.7658 241.758 51.6249 242.895 51.6304C244.031 51.6359 244.963 50.7859 244.975 49.7317Z" fill="#E6E6E6"/>
<path d="M230.254 54.4735C230.266 53.4194 229.355 52.5603 228.218 52.5548C227.081 52.5492 226.15 53.3993 226.137 54.4534C226.125 55.5076 227.036 56.3667 228.173 56.3722C229.31 56.3778 230.241 55.5277 230.254 54.4735Z" fill="#FF6584"/>
<path d="M250.747 63.2376C250.759 62.1834 249.847 61.3243 248.711 61.3188C247.574 61.3133 246.642 62.1633 246.63 63.2175C246.618 64.2716 247.529 65.1307 248.666 65.1363C249.803 65.1418 250.734 64.2917 250.747 63.2376Z" fill="#3F3D56"/>
</g>
<defs>
<clipPath id="clip0_7_161">
<rect width="380" height="280" fill="white"/>
</clipPath>
</defs>
</svg>
