<svg width="414" height="280" viewBox="0 0 414 280" fill="none" xmlns="http://www.w3.org/2000/svg">
<g clip-path="url(#clip0_7_362)">
<path d="M203.742 63.6173H202.03V23.3219C202.03 17.1366 199.17 11.2045 194.079 6.83084C188.988 2.45713 182.083 7.71267e-06 174.883 1.48016e-10H75.5074C71.9423 -1.09109e-05 68.4122 0.603218 65.1185 1.77524C61.8248 2.94727 58.8321 4.66513 56.3112 6.83077C53.7903 8.9964 51.7906 11.5674 50.4263 14.3969C49.062 17.2265 48.3598 20.2591 48.3598 23.3218V244.386C48.3598 247.448 49.0619 250.481 50.4262 253.311C51.7905 256.14 53.7902 258.711 56.3111 260.877C58.832 263.042 61.8247 264.76 65.1183 265.932C68.412 267.104 71.9422 267.708 75.5073 267.708H174.883C178.448 267.708 181.978 267.104 185.272 265.932C188.565 264.76 191.558 263.042 194.079 260.877C196.6 258.711 198.599 256.14 199.964 253.311C201.328 250.481 202.03 247.448 202.03 244.386V92.3003H203.742V63.6173Z" fill="#3F3D56"/>
<path d="M175.774 6.61914H162.802C163.398 7.87556 163.626 9.23872 163.465 10.5886C163.304 11.9384 162.759 13.2335 161.878 14.3597C160.997 15.4859 159.807 16.4087 158.413 17.0468C157.019 17.6849 155.464 18.0187 153.884 18.0188H96.9532C95.3737 18.0187 93.8184 17.6849 92.4245 17.0468C91.0305 16.4087 89.8406 15.4859 88.9596 14.3597C88.0786 13.2335 87.5335 11.9384 87.3723 10.5886C87.2111 9.23873 87.4388 7.87556 88.0354 6.61914H75.9197C70.5429 6.61914 65.3862 8.45407 61.5842 11.7203C57.7822 14.9865 55.6462 19.4165 55.6462 24.0356V244.775C55.6462 247.062 56.1706 249.327 57.1894 251.44C58.2083 253.553 59.7016 255.473 61.5842 257.09C63.4667 258.708 65.7017 259.991 68.1614 260.866C70.6211 261.741 73.2573 262.192 75.9197 262.192H175.774C181.15 262.192 186.307 260.357 190.109 257.09C193.911 253.824 196.047 249.394 196.047 244.775V24.0357C196.047 21.7485 195.523 19.4837 194.504 17.3706C193.485 15.2576 191.992 13.3376 190.109 11.7203C188.227 10.103 185.992 8.82015 183.532 7.94489C181.072 7.06963 178.436 6.61914 175.774 6.61914ZM173.594 109.022C173.59 110.217 173.036 111.362 172.052 112.208C171.068 113.053 169.734 113.529 168.343 113.533H142.962C141.571 113.529 140.237 113.053 139.253 112.208C138.269 111.362 137.715 110.217 137.711 109.022V107.894C137.715 106.698 138.269 105.553 139.253 104.708C140.237 103.862 141.571 103.386 142.962 103.383H168.343C169.734 103.386 171.068 103.862 172.052 104.708C173.036 105.553 173.59 106.698 173.594 107.894V109.022ZM176.439 89.097C176.435 90.2923 175.88 91.4378 174.896 92.283C173.912 93.1283 172.579 93.6047 171.187 93.6082H80.1658C78.7744 93.6047 77.4411 93.1283 76.4571 92.283C75.4732 91.4378 74.9187 90.2923 74.9146 89.097V87.9692C74.9187 86.7738 75.4732 85.6283 76.4571 84.7831C77.4411 83.9378 78.7744 83.4614 80.1658 83.4579H171.187C172.579 83.4614 173.912 83.9378 174.896 84.7831C175.88 85.6283 176.435 86.7738 176.439 87.9692V89.097ZM176.439 69.1723C176.435 70.3677 175.88 71.5131 174.896 72.3584C173.912 73.2036 172.579 73.6801 171.187 73.6836H80.1658C78.7744 73.6801 77.4411 73.2037 76.4571 72.3584C75.4732 71.5131 74.9187 70.3677 74.9146 69.1723V68.0445C74.9187 66.8491 75.4732 65.7037 76.4571 64.8584C77.4411 64.0132 78.7744 63.5368 80.1658 63.5333H171.187C172.579 63.5368 173.912 64.0132 174.896 64.8584C175.88 65.7037 176.435 66.8491 176.439 68.0445V69.1723ZM176.439 49.2477C176.435 50.4431 175.88 51.5885 174.896 52.4337C173.912 53.279 172.579 53.7554 171.187 53.7589H80.1658C78.7744 53.7554 77.4411 53.279 76.4571 52.4337C75.4732 51.5885 74.9187 50.4431 74.9146 49.2477V48.1199C74.9187 46.9245 75.4732 45.7791 76.4571 44.9338C77.4411 44.0885 78.7744 43.6121 80.1658 43.6086H171.187C172.579 43.6121 173.912 44.0885 174.896 44.9338C175.88 45.7791 176.435 46.9245 176.439 48.1199V49.2477Z" fill="white"/>
<path d="M82.135 91.3526C83.8268 91.3526 85.1983 90.1744 85.1983 88.721C85.1983 87.2677 83.8268 86.0895 82.135 86.0895C80.4433 86.0895 79.0718 87.2677 79.0718 88.721C79.0718 90.1744 80.4433 91.3526 82.135 91.3526Z" fill="white"/>
<path d="M92.1999 91.3526C93.8917 91.3526 95.2632 90.1744 95.2632 88.721C95.2632 87.2677 93.8917 86.0895 92.1999 86.0895C90.5082 86.0895 89.1367 87.2677 89.1367 88.721C89.1367 90.1744 90.5082 91.3526 92.1999 91.3526Z" fill="white"/>
<path d="M102.265 91.3526C103.957 91.3526 105.328 90.1744 105.328 88.721C105.328 87.2677 103.957 86.0895 102.265 86.0895C100.573 86.0895 99.2016 87.2677 99.2016 88.721C99.2016 90.1744 100.573 91.3526 102.265 91.3526Z" fill="white"/>
<path d="M112.33 91.3526C114.021 91.3526 115.393 90.1744 115.393 88.721C115.393 87.2677 114.021 86.0895 112.33 86.0895C110.638 86.0895 109.266 87.2677 109.266 88.721C109.266 90.1744 110.638 91.3526 112.33 91.3526Z" fill="white"/>
<path d="M145.15 111.277C146.842 111.277 148.213 110.099 148.213 108.646C148.213 107.192 146.842 106.014 145.15 106.014C143.458 106.014 142.087 107.192 142.087 108.646C142.087 110.099 143.458 111.277 145.15 111.277Z" fill="white"/>
<path d="M155.215 111.277C156.907 111.277 158.278 110.099 158.278 108.646C158.278 107.192 156.907 106.014 155.215 106.014C153.523 106.014 152.152 107.192 152.152 108.646C152.152 110.099 153.523 111.277 155.215 111.277Z" fill="white"/>
<path d="M165.28 111.277C166.972 111.277 168.343 110.099 168.343 108.646C168.343 107.192 166.972 106.014 165.28 106.014C163.588 106.014 162.217 107.192 162.217 108.646C162.217 110.099 163.588 111.277 165.28 111.277Z" fill="white"/>
<path d="M177.143 142.742H73.3352C70.8964 142.742 68.5574 143.575 66.8329 145.056C65.1085 146.538 64.1397 148.547 64.1396 150.642V194.092C64.1396 196.187 65.1085 198.196 66.8329 199.678C68.5574 201.159 70.8964 201.992 73.3352 201.992H177.143C179.582 201.992 181.921 201.159 183.645 199.678C185.37 198.196 186.338 196.187 186.338 194.092V150.642C186.338 148.547 185.37 146.538 183.645 145.056C181.921 143.575 179.582 142.742 177.143 142.742ZM70.7668 148.131C70.9718 148.099 75.8327 147.389 79.8577 149.469C83.8825 151.55 85.4289 155.572 85.4927 155.742L85.6554 156.176L85.1331 156.256C84.3879 156.356 83.6345 156.403 82.8804 156.398C80.488 156.437 78.1269 155.926 76.0419 154.917C72.0171 152.837 70.4709 148.815 70.4072 148.644L70.2445 148.211L70.7668 148.131ZM93.3007 188.472H74.7858C73.4354 188.472 72.1403 188.011 71.1854 187.19C70.2306 186.37 69.6941 185.258 69.6941 184.097C69.6941 182.937 70.2306 181.825 71.1854 181.005C72.1403 180.184 73.4354 179.723 74.7858 179.723H93.3007C94.6511 179.723 95.9462 180.184 96.901 181.005C97.8559 181.825 98.3923 182.937 98.3923 184.097C98.3923 185.258 97.8559 186.37 96.901 187.19C95.9462 188.011 94.6511 188.472 93.3007 188.472ZM177.544 187.676C177.539 188.941 176.953 190.152 175.912 191.046C174.871 191.94 173.461 192.444 171.989 192.448H158.103C156.631 192.444 155.221 191.94 154.18 191.046C153.14 190.152 152.553 188.941 152.549 187.676V180.519C152.553 179.254 153.139 178.043 154.18 177.149C155.221 176.255 156.631 175.751 158.103 175.747H171.989C173.461 175.751 174.871 176.255 175.912 177.149C176.953 178.043 177.539 179.254 177.544 180.519L177.544 187.676Z" fill="#4169E2"/>
<path d="M162.58 186.201H156.997C156.598 186.201 156.216 186.337 155.934 186.58C155.652 186.822 155.494 187.15 155.494 187.493C155.494 187.835 155.652 188.164 155.934 188.406C156.216 188.648 156.598 188.784 156.997 188.784H162.58C162.979 188.784 163.361 188.648 163.643 188.406C163.925 188.164 164.083 187.835 164.083 187.493C164.083 187.15 163.925 186.822 163.643 186.58C163.361 186.337 162.979 186.201 162.58 186.201Z" fill="#3F3D56"/>
<path d="M172.888 186.201H167.305C166.906 186.201 166.524 186.337 166.242 186.58C165.96 186.822 165.801 187.15 165.801 187.493C165.801 187.835 165.96 188.164 166.242 188.406C166.524 188.648 166.906 188.784 167.305 188.784H172.888C173.287 188.784 173.669 188.648 173.951 188.406C174.233 188.164 174.391 187.835 174.391 187.493C174.391 187.15 174.233 186.822 173.951 186.58C173.669 186.337 173.287 186.201 172.888 186.201Z" fill="#3F3D56"/>
<path d="M162.579 182.556H156.996C156.598 182.556 156.215 182.692 155.933 182.934C155.651 183.176 155.493 183.505 155.493 183.847C155.493 184.19 155.651 184.518 155.933 184.761C156.215 185.003 156.598 185.139 156.996 185.139H162.579C162.978 185.139 163.361 185.003 163.642 184.761C163.924 184.518 164.083 184.19 164.083 183.847C164.083 183.505 163.924 183.176 163.642 182.934C163.361 182.692 162.978 182.556 162.579 182.556Z" fill="#3F3D56"/>
<path d="M172.887 182.556H167.304C166.905 182.556 166.523 182.692 166.241 182.934C165.959 183.176 165.801 183.505 165.801 183.847C165.801 184.19 165.959 184.518 166.241 184.761C166.523 185.003 166.905 185.139 167.304 185.139H172.887C173.286 185.139 173.668 185.003 173.95 184.761C174.232 184.518 174.39 184.19 174.39 183.847C174.39 183.505 174.232 183.176 173.95 182.934C173.668 182.692 173.286 182.556 172.887 182.556Z" fill="#3F3D56"/>
<path d="M162.579 178.984H156.996C156.598 178.984 156.215 179.121 155.933 179.363C155.651 179.605 155.493 179.933 155.493 180.276C155.493 180.618 155.651 180.947 155.933 181.189C156.215 181.431 156.598 181.567 156.996 181.567H162.579C162.978 181.567 163.361 181.431 163.642 181.189C163.924 180.947 164.083 180.618 164.083 180.276C164.083 179.933 163.924 179.605 163.642 179.363C163.361 179.121 162.978 178.984 162.579 178.984Z" fill="#3F3D56"/>
<path d="M172.887 178.984H167.304C166.905 178.984 166.523 179.121 166.241 179.363C165.959 179.605 165.801 179.933 165.801 180.276C165.801 180.618 165.959 180.947 166.241 181.189C166.523 181.431 166.905 181.567 167.304 181.567H172.887C173.286 181.567 173.668 181.431 173.95 181.189C174.232 180.947 174.39 180.618 174.39 180.276C174.39 179.933 174.232 179.605 173.95 179.363C173.668 179.121 173.286 178.984 172.887 178.984Z" fill="#3F3D56"/>
<path d="M249.042 159.11H235.501V170.742H249.042V159.11Z" fill="#E6E6E6"/>
<path d="M219.543 166.172H241.788V185.282H219.543V166.172ZM240.821 167.003H220.511V184.451H240.821V167.003Z" fill="#3F3D56"/>
<path d="M13.5401 63.1454H0V74.7774H13.5401V63.1454Z" fill="#E6E6E6"/>
<path d="M29.4981 67.7151H7.25363V48.6053H29.4981V67.7151ZM8.22078 66.8843H28.531V49.4362H8.22078V66.8843Z" fill="#3F3D56"/>
<path d="M315.812 274.773H309.884L307.063 255.128H315.813L315.812 274.773Z" fill="#FFB8B8"/>
<path d="M305.649 273.317H317.083V279.502H298.45C298.45 277.861 299.209 276.288 300.559 275.129C301.909 273.969 303.74 273.317 305.649 273.317Z" fill="#2F2E41"/>
<path d="M345.31 274.773H339.382L336.562 255.128H345.311L345.31 274.773Z" fill="#FFB8B8"/>
<path d="M335.147 273.317H346.581V279.502H327.948C327.948 277.861 328.707 276.288 330.057 275.129C331.407 273.969 333.238 273.317 335.147 273.317Z" fill="#2F2E41"/>
<path d="M286.072 204.518C285.645 203.978 285.362 203.364 285.241 202.72C285.121 202.076 285.166 201.417 285.374 200.789C285.582 200.162 285.947 199.581 286.445 199.088C286.942 198.595 287.56 198.202 288.253 197.936L308.406 150.217L318.323 154.866L295.312 200.468C295.755 201.499 295.742 202.633 295.277 203.656C294.811 204.679 293.925 205.52 292.786 206.019C291.647 206.518 290.334 206.641 289.097 206.364C287.859 206.088 286.783 205.431 286.072 204.518Z" fill="#FFB8B8"/>
<path d="M342.282 213.484C341.623 213.16 341.055 212.715 340.618 212.182C340.181 211.648 339.885 211.039 339.752 210.396C339.619 209.754 339.651 209.095 339.846 208.464C340.042 207.834 340.396 207.248 340.883 206.747L334.64 156.269L345.925 156.712L348.52 206.364C349.444 207.124 350.012 208.148 350.115 209.243C350.219 210.337 349.851 211.427 349.083 212.304C348.314 213.182 347.197 213.787 345.943 214.004C344.69 214.222 343.387 214.037 342.282 213.484Z" fill="#FFB8B8"/>
<path d="M324.278 141.378C330.838 141.378 336.155 136.81 336.155 131.175C336.155 125.54 330.838 120.971 324.278 120.971C317.719 120.971 312.401 125.54 312.401 131.175C312.401 136.81 317.719 141.378 324.278 141.378Z" fill="#FFB8B8"/>
<path d="M342.206 202.004H306.399L306.442 201.765C306.506 201.407 312.824 165.855 308.165 154.224C307.697 153.081 307.738 151.83 308.28 150.712C308.822 149.593 309.826 148.687 311.1 148.166C317.759 145.472 330.543 142.154 341.333 150.205C342.921 151.41 344.16 152.915 344.954 154.602C345.748 156.289 346.074 158.111 345.907 159.925L342.206 202.004Z" fill="#CCCCCC"/>
<path d="M313.276 171.109L297.156 168.3L304.712 152.916C305.164 151.426 306.286 150.151 307.831 149.371C309.376 148.59 311.218 148.368 312.954 148.753C314.689 149.138 316.176 150.098 317.088 151.424C318.001 152.749 318.264 154.331 317.82 155.823L313.276 171.109Z" fill="#CCCCCC"/>
<path d="M333.923 176.326L332.954 157.241C332.219 153.653 334.61 150.261 338.286 149.707C341.964 149.154 345.555 151.643 346.294 155.257L349.936 173.09L333.923 176.326Z" fill="#CCCCCC"/>
<path d="M341.015 199.719C346.777 218.57 347.405 242.537 345.851 268.681L338.114 267.85L324.09 217.998L316.353 268.681L307.648 268.265C305.048 240.834 302.516 217.285 306.681 201.796L341.015 199.719Z" fill="#2F2E41"/>
<path d="M332.104 139.06C329.888 141.088 325.774 139.999 325.485 137.229C325.462 137.014 325.464 136.798 325.49 136.583C325.639 135.356 326.464 134.242 326.266 132.947C326.222 132.624 326.082 132.317 325.86 132.054C324.094 130.023 319.95 132.962 318.283 131.124C317.262 129.996 318.463 128.221 317.679 126.961C316.644 125.298 313.578 126.118 311.656 125.207C309.517 124.194 309.645 121.375 311.053 119.66C312.77 117.569 315.78 116.453 318.753 116.292C321.726 116.132 324.679 116.822 327.454 117.751C330.607 118.807 333.735 120.266 335.675 122.648C338.035 125.545 338.262 129.439 337.082 132.827C336.364 134.887 333.914 137.404 332.104 139.06Z" fill="#2F2E41"/>
<path d="M413.516 280H229.274C229.146 280 229.023 279.956 228.932 279.878C228.841 279.8 228.79 279.695 228.79 279.585C228.79 279.474 228.841 279.369 228.932 279.291C229.023 279.213 229.146 279.169 229.274 279.169H413.516C413.645 279.169 413.768 279.213 413.858 279.291C413.949 279.369 414 279.474 414 279.585C414 279.695 413.949 279.8 413.858 279.878C413.768 279.956 413.645 280 413.516 280Z" fill="#3F3D56"/>
</g>
<defs>
<clipPath id="clip0_7_362">
<rect width="414" height="280" fill="white"/>
</clipPath>
</defs>
</svg>
