<?xml version="1.0" standalone="no"?>
<!DOCTYPE svg PUBLIC "-//W3C//DTD SVG 20010904//EN"
 "http://www.w3.org/TR/2001/REC-SVG-20010904/DTD/svg10.dtd">
<svg version="1.0" xmlns="http://www.w3.org/2000/svg"
 width="24.000000pt" height="24.000000pt" viewBox="0 0 24.000000 24.000000"
 preserveAspectRatio="xMidYMid meet">
<metadata>
Created by potrace 1.10, written by Peter Selinger 2001-2011
</metadata>
<g transform="translate(0.000000,24.000000) scale(0.100000,-0.100000)"
fill="#000000" stroke="none">
<path d="M58 224 c-34 -18 -58 -62 -58 -106 0 -82 77 -134 160 -109 46 14 70
44 77 99 13 97 -91 165 -179 116z m137 -34 c43 -43 42 -98 -3 -142 -25 -26
-40 -33 -72 -33 -88 0 -138 108 -80 171 49 52 104 54 155 4z"/>
<path d="M80 120 c0 -27 5 -50 10 -50 12 0 80 43 80 50 0 7 -68 50 -80 50 -5
0 -10 -22 -10 -50z m60 0 c0 -5 -9 -14 -20 -20 -18 -10 -20 -8 -20 20 0 28 2
30 20 20 11 -6 20 -15 20 -20z"/>
</g>
</svg>
