<?xml version="1.0" encoding="UTF-8"?>
<svg version="1.1" xmlns="http://www.w3.org/2000/svg" width="512" height="513">
<path d="M0 0 C1.01823853 0.00215515 2.03647705 0.0043103 3.08557129 0.00653076 C17.70747424 0.05622604 32.00633932 0.36188758 46.375 3.3125 C47.89383789 3.61051514 47.89383789 3.61051514 49.44335938 3.91455078 C95.19875315 13.06425879 139.83474473 34.04984263 173.61328125 66.69140625 C175.55432327 68.53361161 177.46678757 70.24278135 179.53125 71.9296875 C181.80484029 73.83475629 183.67515656 75.61322382 185.5625 77.875 C187.58098171 80.25486927 189.61935346 82.56879256 191.7734375 84.828125 C204.18056104 97.8537855 214.70115012 112.56392976 223.375 128.3125 C223.83616211 129.14201172 224.29732422 129.97152344 224.77246094 130.82617188 C239.61977109 157.73873276 249.67301689 185.91188143 254.375 216.3125 C254.55377686 217.42407471 254.73255371 218.53564941 254.91674805 219.6809082 C256.50913359 230.70844408 256.71429926 241.63283564 256.69067383 252.76391602 C256.68752935 255.84623155 256.71100982 258.92756887 256.73632812 262.00976562 C256.79595079 280.41720807 254.9704203 298.52067589 250.625 316.4375 C250.36823486 317.51531738 250.11146973 318.59313477 249.84692383 319.70361328 C239.39648077 362.34142094 217.73948439 400.05602162 187.71923828 431.86669922 C185.80221229 433.92856408 183.9662435 436.0579992 182.125 438.1875 C178.49306567 442.28735225 174.56646647 445.79822624 170.375 449.3125 C169.45203125 450.12332031 168.5290625 450.93414062 167.578125 451.76953125 C153.99455783 463.64460963 139.17361055 473.62571916 123.375 482.3125 C122.74867676 482.65732422 122.12235352 483.00214844 121.47705078 483.35742188 C63.05747187 515.02901393 -8.5224232 521.92197678 -72.16015625 503.06054688 C-72.97355469 502.81369141 -73.78695312 502.56683594 -74.625 502.3125 C-75.48996094 502.05017578 -76.35492188 501.78785156 -77.24609375 501.51757812 C-105.27112434 492.81252917 -131.38259851 479.21747704 -154.625 461.3125 C-155.43710938 460.69246094 -156.24921875 460.07242187 -157.0859375 459.43359375 C-162.92040028 454.87829552 -168.35989447 449.97356476 -173.765625 444.92578125 C-175.74196714 443.11953413 -177.70890091 441.40114346 -179.77734375 439.7109375 C-182.08579368 437.76664634 -184.0079271 435.92353516 -185.9375 433.625 C-187.78024919 431.45376073 -189.62361199 429.31397129 -191.578125 427.2421875 C-230.39324951 385.98314774 -255.54451855 325.89482819 -255.828125 269.08203125 C-255.83518463 268.13709808 -255.84224426 267.19216492 -255.84951782 266.21859741 C-256.07729455 226.79542292 -256.07729455 226.79542292 -252.625 210.3125 C-252.42632324 209.33764648 -252.22764648 208.36279297 -252.02294922 207.35839844 C-239.56286762 147.79267502 -207.6726363 91.43883581 -158.625 54.3125 C-158.08617187 53.89726074 -157.54734375 53.48202148 -156.9921875 53.05419922 C-146.99570531 45.36912336 -136.53489551 38.62521939 -125.625 32.3125 C-124.94775879 31.91820801 -124.27051758 31.52391602 -123.57275391 31.11767578 C-85.96935376 9.4890338 -43.05867598 -0.16394455 0 0 Z " fill="#5B2C91" transform="translate(255.625,-0.3125)"/>
<path d="M0 0 C0.82115799 -0.00860046 1.64231598 -0.01720093 2.48835754 -0.02606201 C3.38084702 -0.03032196 4.27333649 -0.03458191 5.19287109 -0.03897095 C6.61323921 -0.05123718 6.61323921 -0.05123718 8.06230164 -0.06375122 C11.19696428 -0.08856599 14.33158161 -0.1051151 17.46630859 -0.11953735 C19.07667496 -0.12752287 19.07667496 -0.12752287 20.71957397 -0.13566971 C26.40679205 -0.16238973 32.0939883 -0.18176464 37.78125 -0.19619751 C42.47383219 -0.20951187 47.16597699 -0.23732051 51.85839844 -0.27822876 C57.53650094 -0.32772459 63.21420809 -0.35233989 68.89251709 -0.35942459 C71.04852616 -0.36611004 73.20452735 -0.38126087 75.3604126 -0.4053154 C90.87855888 -0.56852315 102.29863735 0.34971831 114.58349609 10.85702515 C125.18726118 21.64424638 127.37490678 33.82660142 127.28735352 48.36044312 C127.27873952 50.5464293 127.30786564 52.72988272 127.33935547 54.9156189 C127.34096542 56.31535771 127.3403939 57.71510111 127.33740234 59.11483765 C127.33925537 60.37086792 127.3411084 61.62689819 127.34301758 62.92098999 C126.73826914 66.81786534 125.89742911 67.74733098 122.84130859 70.15390015 C120.22515488 70.64609146 120.22515488 70.64609146 117.19720459 70.63491821 C116.04738098 70.64041687 114.89755737 70.64591553 113.71289062 70.65158081 C112.45557129 70.63719971 111.19825195 70.6228186 109.90283203 70.60800171 C108.56235793 70.60687313 107.22188136 70.60750729 105.88140869 70.60977173 C102.24518109 70.61091944 98.60948122 70.58740154 94.97337627 70.5594759 C91.17240258 70.53447146 87.37141679 70.53212101 83.57037354 70.52737427 C76.3738655 70.51494163 69.17760051 70.48211628 61.9811995 70.44197631 C53.78782661 70.39726744 45.59444212 70.37527381 37.40097761 70.35519457 C20.54761402 70.31338377 3.694487 70.24302629 -13.15869141 70.15390015 C-12.86556902 72.08196063 -12.56457645 74.00882574 -12.26025391 75.93515015 C-12.09348145 77.00829468 -11.92670898 78.08143921 -11.75488281 79.18710327 C-10.97747814 83.05566249 -9.88258828 85.28664028 -7.15869141 88.15390015 C-1.60911619 91.8228079 3.27445312 92.73535819 9.82421875 92.65560913 C10.68381699 92.66101212 11.54341522 92.6664151 12.42906189 92.67198181 C15.24652431 92.68440345 18.06295185 92.66802493 20.88037109 92.6499939 C22.84996596 92.65014901 24.81956112 92.65164002 26.78915405 92.65440369 C30.90628642 92.65578464 35.02306913 92.64327817 39.14013672 92.62045288 C44.41044993 92.59203188 49.68018424 92.59481985 54.95054054 92.60754299 C59.01352869 92.6145049 63.07638358 92.60670562 67.13935471 92.59428596 C69.08256901 92.58977909 71.02579765 92.58942797 72.96901321 92.59335136 C75.6853688 92.59626955 78.40093218 92.57972894 81.1171875 92.55795288 C81.91526321 92.56245453 82.71333893 92.56695618 83.53559875 92.57159424 C89.45878136 92.49290437 93.68984916 91.26347276 98.04833984 86.98983765 C102.35316625 84.16009162 106.4974446 84.64927857 111.52880859 84.77890015 C112.49109375 84.78018921 113.45337891 84.78147827 114.44482422 84.7828064 C121.56009191 84.87268346 121.56009191 84.87268346 123.84130859 87.15390015 C124.15772386 94.58965893 119.50863641 99.75091646 114.84130859 105.15390015 C103.63228219 116.22368399 90.42103659 116.89196728 75.57436943 116.80481148 C74.00300822 116.79391896 74.00300822 116.79391896 72.39990234 116.7828064 C70.22379945 116.78363656 68.04769664 116.7861015 65.87159729 116.79011536 C61.32851102 116.79296186 56.78592089 116.77838311 52.24291992 116.75082397 C46.44399883 116.71672345 40.6459628 116.72277755 34.84699917 116.74148655 C30.35916371 116.75209593 25.87153129 116.74308328 21.38371468 116.72810173 C19.24646674 116.72294974 17.10919735 116.72336512 14.97195244 116.72964668 C-1.15734281 116.75926825 -13.18777416 115.68573113 -25.28759766 104.1187439 C-32.22049996 96.87941497 -36.22075422 88.28002388 -36.33569336 78.19271851 C-36.34852859 77.20746689 -36.36136383 76.22221527 -36.37458801 75.20710754 C-36.38197495 74.14669754 -36.38936188 73.08628754 -36.39697266 71.9937439 C-36.4050444 70.8934938 -36.41311615 69.79324371 -36.4214325 68.65965271 C-36.43526081 66.32873097 -36.44598856 63.99778908 -36.45385742 61.6668396 C-36.46535295 59.29568503 -36.48576589 56.92455584 -36.51538086 54.55355835 C-36.55830168 51.11677566 -36.57426321 47.68076222 -36.58447266 44.2437439 C-36.61073479 42.67438332 -36.61073479 42.67438332 -36.63752747 41.07331848 C-36.60100912 28.49950414 -32.1433228 19.38562935 -23.50244141 10.4390564 C-17.11919718 4.52251163 -8.81478698 0.06910458 0 0 Z " fill="#FCFCFC" transform="translate(300.15869140625,197.84609985351563)"/>
<path d="M0 0 C0.78890625 -0.00515625 1.5778125 -0.0103125 2.390625 -0.015625 C3.62039062 0.00757813 3.62039062 0.00757813 4.875 0.03125 C5.69484375 0.01578125 6.5146875 0.0003125 7.359375 -0.015625 C8.14828125 -0.01046875 8.9371875 -0.0053125 9.75 0 C10.46929687 0.00451172 11.18859375 0.00902344 11.9296875 0.01367188 C13.875 0.53125 13.875 0.53125 15.47253418 2.07545471 C17.40219056 5.45438985 17.29142529 8.55585051 17.25976562 12.34155273 C17.2651384 13.12414459 17.27051117 13.90673645 17.27604675 14.71304321 C17.28581752 16.40940827 17.28877101 18.10582327 17.28569031 19.80221367 C17.28121081 22.4883444 17.29521601 25.17381683 17.31408691 27.85987854 C17.35086569 33.56282497 17.36457811 39.26570243 17.375 44.96875 C17.38707983 51.57461332 17.40862578 58.18015603 17.45500183 64.78587532 C17.46857079 67.42992367 17.46440136 70.07356661 17.45959473 72.71763611 C17.4689365 74.34228023 17.47910561 75.96691987 17.49023438 77.59155273 C17.48408615 78.324702 17.47793793 79.05785126 17.47160339 79.81321716 C17.52462765 84.22598088 18.19043207 87.00531889 20.875 90.53125 C25.50902854 93.89966114 31.77202547 92.86498092 37.23730469 92.84692383 C39.23638356 92.84377147 41.23544373 92.86808142 43.234375 92.89257812 C44.50539062 92.89322266 45.77640625 92.89386719 47.0859375 92.89453125 C48.82302979 92.89900269 48.82302979 92.89900269 50.59521484 92.90356445 C54.36919818 92.47514964 56.70974218 91.62892719 59.875 89.53125 C62.15826398 85.33945355 62.16242921 81.23475642 62.14624023 76.57568359 C62.15408035 75.39675789 62.15408035 75.39675789 62.16207886 74.1940155 C62.17229196 72.49383915 62.17809456 70.79363176 62.17996025 69.09342575 C62.18362926 66.40365787 62.20036818 63.7142569 62.22071838 61.02456665 C62.27609539 53.37972823 62.30687957 45.73483718 62.33129883 38.08984375 C62.34714983 33.40907304 62.37733601 28.72856602 62.41606331 24.04793167 C62.4277282 22.26414406 62.43364379 20.48030937 62.43374443 18.69648361 C62.43393593 16.20671668 62.45215864 13.71768101 62.47436523 11.22802734 C62.46978806 10.48925858 62.46521088 9.75048981 62.460495 8.98933411 C62.50156531 6.10122959 62.5478561 4.02943746 64.15809631 1.57730103 C67.25402777 -0.30894472 70.79670895 0.06127838 74.3125 0.09375 C75.07626953 0.07376953 75.84003906 0.05378906 76.62695312 0.03320312 C77.36751953 0.03384766 78.10808594 0.03449219 78.87109375 0.03515625 C79.54325928 0.03330322 80.2154248 0.0314502 80.90795898 0.02954102 C83.90780943 0.79467601 84.98443773 2.08895215 86.875 4.53125 C87.25243445 7.30009542 87.38939827 9.66885372 87.34155273 12.43334961 C87.34385895 13.22569504 87.34616516 14.01804047 87.34854126 14.83439636 C87.35116848 16.5520762 87.3447362 18.26978849 87.33028984 19.98740959 C87.30840335 22.70725522 87.31211973 25.42598864 87.32276917 28.14588928 C87.34443996 34.90035066 87.32706853 41.65456513 87.30126953 48.40899658 C87.27986944 54.11747049 87.27791896 59.82523145 87.30418587 65.53369331 C87.30853723 68.21131154 87.28389667 70.88769202 87.25865173 73.56517029 C87.26392317 75.21003776 87.27064609 76.85490143 87.27905273 78.49975586 C87.26414291 79.24225586 87.24923309 79.98475586 87.23387146 80.74975586 C87.28840779 84.71400974 87.73765129 86.36388229 90.2872467 89.47071838 C95.83307937 93.88665849 101.83293203 92.71534146 108.6875 92.71875 C109.97205078 92.73099609 111.25660156 92.74324219 112.58007812 92.75585938 C114.43729492 92.75875977 114.43729492 92.75875977 116.33203125 92.76171875 C117.46616455 92.76582764 118.60029785 92.76993652 119.76879883 92.77416992 C123.67843982 92.46841713 126.58303513 91.59250686 129.625 89.09375 C132.53293493 85.45883133 132.02652675 81.20731268 132.03271484 76.80273438 C132.03779556 76.01707596 132.04287628 75.23141754 132.04811096 74.42195129 C132.05880907 72.71627415 132.06743144 71.01058301 132.07423019 69.30488586 C132.08601635 66.60695036 132.10546687 63.90917513 132.12734985 61.21130371 C132.188987 53.54082544 132.24307733 45.87036489 132.27636719 38.19970703 C132.29727667 33.50825356 132.33254587 28.81709437 132.37712479 24.12580872 C132.39131072 22.33644568 132.40001306 20.5470306 132.40317917 18.75761414 C132.40807137 16.25801637 132.43118324 13.75920449 132.45849609 11.25976562 C132.45398689 10.14689934 132.45398689 10.14689934 132.4493866 9.0115509 C132.49649646 6.11804734 132.54724936 4.03189973 134.15689087 1.57312012 C137.26639629 -0.31249979 140.84849115 0.10326406 144.375 0.15625 C145.53322266 0.13884766 145.53322266 0.13884766 146.71484375 0.12109375 C152.2322332 0.14978035 152.2322332 0.14978035 154.59388733 1.55137634 C156.62227039 4.68610624 156.29998153 7.99218228 156.27905273 11.60766602 C156.28591599 12.43084824 156.29277924 13.25403046 156.29985046 14.10215759 C156.31818388 16.82999833 156.31426891 19.55726695 156.30859375 22.28515625 C156.31315518 24.18505541 156.31846063 26.08495292 156.32447815 27.98484802 C156.33342414 31.973772 156.33097247 35.96249599 156.32104492 39.95141602 C156.30960289 45.04332401 156.32968561 50.1345336 156.35896206 55.22634983 C156.3773927 59.1548242 156.37701712 63.08313375 156.37132454 67.01164055 C156.3711719 68.88736889 156.37716878 70.76310881 156.38961601 72.63879585 C156.46596627 86.04122701 155.71578587 97.38498519 145.875 107.53125 C137.99884623 113.97537581 130.00836973 117.0028148 119.9140625 116.96484375 C119.08345306 116.9700856 118.25284363 116.97532745 117.39706421 116.98072815 C115.65078848 116.98711249 113.90446953 116.98585822 112.15820312 116.97729492 C109.51352843 116.96879349 106.87102412 116.99758104 104.2265625 117.02929688 C85.6587054 117.10750823 85.6587054 117.10750823 77.76416016 110.86108398 C77.1407373 110.42223877 76.51731445 109.98339355 75.875 109.53125 C73.4658295 110.04011646 73.4658295 110.04011646 70.875 111.53125 C69.52263157 112.22228057 68.16833412 112.90954429 66.8125 113.59375 C66.16152344 113.93535156 65.51054687 114.27695312 64.83984375 114.62890625 C60.12306678 116.79506029 55.38122722 116.72257799 50.26953125 116.76953125 C49.43089035 116.777603 48.59224945 116.78567474 47.72819519 116.79399109 C45.9538274 116.80780353 44.17943336 116.81853835 42.4050293 116.82641602 C40.60221495 116.83791542 38.79943411 116.85833488 36.99682617 116.88793945 C34.37916141 116.9308992 31.76250608 116.94682499 29.14453125 116.95703125 C28.35045364 116.97453934 27.55637604 116.99204742 26.73823547 117.01008606 C17.77166815 116.97589464 9.59671259 112.98374213 3.09375 106.8515625 C-1.56736629 101.93368981 -4.01258419 96.92528279 -6.125 90.53125 C-6.455 89.54125 -6.785 88.55125 -7.125 87.53125 C-7.23141841 84.89064199 -7.28224331 82.27603683 -7.28613281 79.63500977 C-7.29109772 78.8314505 -7.29606262 78.02789124 -7.30117798 77.19998169 C-7.31578738 74.54086452 -7.32259885 71.88180696 -7.328125 69.22265625 C-7.33387658 67.37564594 -7.33963431 65.52863564 -7.34539795 63.68162537 C-7.35590385 59.80882489 -7.3617495 55.93604515 -7.36523438 52.06323242 C-7.37072435 47.098671 -7.3947648 42.13438311 -7.42320633 37.16990757 C-7.44181926 33.35494685 -7.44703755 29.54005227 -7.44857025 25.72504997 C-7.45159934 23.89459675 -7.4596365 22.06414476 -7.47275543 20.23373604 C-7.48979117 17.67457284 -7.48794212 15.1160815 -7.48144531 12.55688477 C-7.4906601 11.79986771 -7.49987488 11.04285065 -7.5093689 10.26289368 C-7.4839057 7.06447677 -7.31804198 4.87155915 -5.7243042 2.06199646 C-3.72208303 0.14560497 -2.74344956 0.01720802 0 0 Z " fill="#FBFBFC" transform="translate(92.125,197.46875)"/>
<path d="M0 0 C1.29920883 -0.01073296 1.29920883 -0.01073296 2.62466431 -0.02168274 C5.46516959 -0.03848209 8.30407691 -0.01921901 11.14453125 0.00219727 C13.13175588 0.00136776 15.11898043 -0.0010947 17.10620117 -0.00511169 C21.2620927 -0.00796371 25.41744353 0.00667328 29.57324219 0.03417969 C34.88608448 0.06826115 40.19796044 0.0622384 45.510849 0.04351711 C49.61169411 0.0329217 53.71231644 0.04190804 57.81314087 0.05690193 C59.77144712 0.06206554 61.72977681 0.06162417 63.68807983 0.05535698 C66.43057857 0.049874 69.1717188 0.07037789 71.9140625 0.09765625 C72.7142984 0.09113037 73.5145343 0.08460449 74.33901978 0.07788086 C79.95680615 0.17234676 84.25107163 1.5133053 88.95703125 4.63110352 C93.33058385 9.22894086 94.08648151 12.5922289 94.01953125 18.81860352 C94.01050781 19.9052832 94.00148438 20.99196289 93.9921875 22.11157227 C93.98058594 22.94301758 93.96898437 23.77446289 93.95703125 24.63110352 C78.98016819 24.65443329 64.00330653 24.67208308 49.02642918 24.68291569 C42.07287044 24.68807848 35.11932298 24.69512085 28.16577148 24.70654297 C21.46145916 24.71755046 14.757161 24.72337972 8.05283928 24.72598076 C5.48865512 24.72783554 2.92447163 24.73145715 0.36029243 24.73683357 C-3.21742033 24.74404011 -6.79508394 24.74509462 -10.37280273 24.74462891 C-11.44454239 24.74822418 -12.51628204 24.75181946 -13.62049866 24.75552368 C-14.58950104 24.75414902 -15.55850342 24.75277435 -16.55686951 24.75135803 C-17.82756114 24.75274072 -17.82756114 24.75274072 -19.1239233 24.75415134 C-21.04296875 24.63110352 -21.04296875 24.63110352 -22.04296875 23.63110352 C-22.88700555 17.44551955 -22.21969608 12.80287886 -18.91796875 7.51782227 C-13.27696344 1.84156068 -7.88008695 -0.11513549 0 0 Z " fill="#5E3093" transform="translate(309.04296875,220.368896484375)"/>
</svg>
